RobotoFlex_opsz144_wght400_wdth25_slnt-10.ufo
<glyph name="exclam" format="2">
  <advance width="258"/>
  <unicode hex="0021"/>
  <outline>
    <contour>
      <point x="-62.422822485448194" y="77.0" type="qcurve" smooth="yes"/>
      <point x="-56.251378160651925" y="112.0"/>
      <point x="-7.964010067354067" y="159.0"/>
      <point x="29.03598993264592" y="159.0" type="qcurve" smooth="yes"/>
      <point x="66.03598993264592" y="159.0"/>
      <point x="97.74862183934806" y="112.0"/>
      <point x="91.5771775145518" y="77.0" type="qcurve" smooth="yes"/>
      <point x="85.22940620904706" y="41.0"/>
      <point x="36.9420381157492" y="-6.0"/>
      <point x="-0.057961884250786966" y="-6.0" type="qcurve" smooth="yes"/>
      <point x="-37.05796188425079" y="-6.0"/>
      <point x="-68.59426681024448" y="42.0"/>
    </contour>
    <contour>
      <point x="20.946290784965896" y="374.0" type="line"/>
      <point x="207.73208391152502" y="1456.0" type="line"/>
      <point x="308.732083911525" y="1456.0" type="line"/>
      <point x="112.9462907849659" y="374.0" type="line"/>
    </contour>
  </outline>
</glyph>
<glyph name="quotedbl" format="2">
  <advance width="291"/>
  <unicode hex="0022"/>
  <outline>
    <contour>
      <point x="99.25192952852152" y="1113.0" type="line"/>
      <point x="131.9810207442208" y="1361.0" type="line"/>
      <point x="148.73208391152502" y="1456.0" type="line"/>
      <point x="243.73208391152502" y="1456.0" type="line"/>
      <point x="226.9810207442208" y="1361.0" type="line"/>
      <point x="173.2519295285215" y="1113.0" type="line"/>
    </contour>
    <contour>
      <point x="254.2519295285215" y="1113.0" type="line"/>
      <point x="286.9810207442208" y="1361.0" type="line"/>
      <point x="303.732083911525" y="1456.0" type="line"/>
      <point x="399.732083911525" y="1456.0" type="line"/>
      <point x="382.9810207442208" y="1361.0" type="line"/>
      <point x="329.2519295285215" y="1113.0" type="line"/>
    </contour>
  </outline>
</glyph>
<glyph name="numbersign" format="2">
  <advance width="486"/>
  <unicode hex="0023"/>
  <outline>
    <contour>
      <point x="-72.76326980708464" y="-10.0" type="line"/>
      <point x="304.49535371860964" y="1466.0" type="line"/>
      <point x="390.31902673790114" y="1465.0" type="line"/>
      <point x="13.060403212206893" y="-11.0" type="line"/>
    </contour>
    <contour>
      <point x="95.23673019291536" y="-10.0" type="line"/>
      <point x="473.49535371860964" y="1466.0" type="line"/>
      <point x="557.4953537186096" y="1466.0" type="line"/>
      <point x="181.23673019291533" y="-10.0" type="line"/>
    </contour>
    <contour>
      <point x="-35.59245546898387" y="439.0" type="line"/>
      <point x="-20.428335128055892" y="525.0" type="line"/>
      <point x="418.5716648719441" y="525.0" type="line"/>
      <point x="403.40754453101613" y="439.0" type="line"/>
    </contour>
    <contour>
      <point x="67.80776507816395" y="929.0" type="line"/>
      <point x="82.97188541909196" y="1015.0" type="line"/>
      <point x="521.9718854190919" y="1015.0" type="line"/>
      <point x="506.8077650781639" y="929.0" type="line"/>
    </contour>
  </outline>
</glyph>
<glyph name="dollar" format="2">
  <advance width="339"/>
  <unicode hex="0024"/>
  <outline>
    <contour>
      <point x="-36.1" y="249.25" type="qcurve" smooth="yes"/>
      <point x="-9.775000000000002" y="457.05" type="line"/>
      <point x="55.375" y="457.05" type="line"/>
      <point x="29.75" y="258.225" type="line" smooth="yes"/>
      <point x="12.625" y="139.75"/>
      <point x="39.30000000000001" y="50.625"/>
      <point x="71.75" y="50.625" type="qcurve" smooth="yes"/>
      <point x="108.27500000000003" y="50.625"/>
      <point x="148" y="146"/>
      <point x="175" y="335" type="qcurve" smooth="yes"/>
      <point x="197.0" y="483"/>
      <point x="189" y="662"/>
      <point x="151" y="742" type="qcurve" smooth="yes"/>
      <point x="98" y="854"/>
      <point x="75.1" y="1003.25"/>
      <point x="100.675" y="1188.9" type="qcurve" smooth="yes"/>
      <point x="126.425" y="1341.3"/>
      <point x="213.32500000000002" y="1456.775"/>
      <point x="274.7" y="1456.775" type="qcurve" smooth="yes"/>
      <point x="341.375" y="1456.775"/>
      <point x="394.42500000000007" y="1347.475"/>
      <point x="372.57500000000005" y="1200.25" type="qcurve" smooth="yes"/>
      <point x="346.42500000000007" y="1019.3" type="line"/>
      <point x="280.4" y="1019.3" type="line"/>
      <point x="306.025" y="1197.1" type="line" smooth="yes"/>
      <point x="323.5" y="1314.35"/>
      <point x="302.125" y="1403.175"/>
      <point x="267.70000000000005" y="1403.175" type="qcurve" smooth="yes"/>
      <point x="233.275" y="1403.175"/>
      <point x="199" y="1318"/>
      <point x="177" y="1190" type="qcurve" smooth="yes"/>
      <point x="155" y="1031"/>
      <point x="165" y="919"/>
      <point x="210" y="814" type="qcurve" smooth="yes"/>
      <point x="254" y="712"/>
      <point x="276" y="513"/>
      <point x="253.39999999999998" y="335.025" type="qcurve" smooth="yes"/>
      <point x="227" y="125"/>
      <point x="127.0" y="0.3500000000000001"/>
      <point x="64.75" y="0.3500000000000001" type="qcurve" smooth="yes"/>
      <point x="6.0" y="0.3500000000000001"/>
      <point x="-57.25" y="111.05"/>
    </contour>
    <contour>
      <point x="13.625" y="-150.175" type="line"/>
      <point x="150" y="792.0" type="line"/>
      <point x="197" y="782" type="line"/>
      <point x="87" y="19" type="line"/>
      <point x="98.22500000000002" y="12.075000000000003" type="line"/>
      <point x="71.60000000000002" y="-150.175" type="line"/>
    </contour>
    <contour>
      <point x="162" y="792" type="line"/>
      <point x="260" y="1438.0" type="line"/>
      <point x="248.975" y="1439.75" type="line"/>
      <point x="270.65" y="1607.65" type="line"/>
      <point x="328.625" y="1607.65" type="line"/>
      <point x="209" y="782" type="line"/>
    </contour>
  </outline>
</glyph>
<glyph name="ampersand" format="2">
  <advance width="424"/>
  <unicode hex="0026"/>
  <outline>
    <contour>
      <point x="-46.80965503825047" y="313.0" type="qcurve" smooth="yes"/>
      <point x="-16.30508737568603" y="486.0"/>
      <point x="58.43376915183768" y="666.0"/>
      <point x="117.83217835772493" y="759.0" type="qcurve" smooth="yes"/>
      <point x="153.5301622966905" y="814.0" type="line" smooth="yes"/>
      <point x="212.57591754116083" y="905.0"/>
      <point x="269.3678532970231" y="1125.0"/>
      <point x="284.53197363795107" y="1211.0" type="qcurve" smooth="yes"/>
      <point x="304.6332494387161" y="1325.0"/>
      <point x="301.6863286670547" y="1365.0"/>
      <point x="281.6863286670547" y="1365.0" type="qcurve" smooth="yes"/>
      <point x="263.6863286670547" y="1365.0"/>
      <point x="248.51488434225843" y="1330.0"/>
      <point x="227.0029926958257" y="1208.0" type="qcurve" smooth="yes"/>
      <point x="210.95723745135535" y="1117.0"/>
      <point x="183.75956850573755" y="855.0"/>
      <point x="192.9481021262265" y="771.0" type="qcurve" smooth="yes"/>
      <point x="282.0" y="0.0" type="line"/>
      <point x="180.0" y="0.0" type="line"/>
      <point x="109.77909912938634" y="719.0" type="line" smooth="yes"/>
      <point x="99.4697590844836" y="825.0"/>
      <point x="110.20129162813902" y="1056.0"/>
      <point x="136.65033873440876" y="1206.0" type="qcurve" smooth="yes"/>
      <point x="161.51244301430233" y="1347.0"/>
      <point x="228.67168069931813" y="1467.0"/>
      <point x="298.67168069931813" y="1467.0" type="qcurve" smooth="yes"/>
      <point x="372.67168069931813" y="1467.0"/>
      <point x="397.7467318792616" y="1354.0"/>
      <point x="376.7638211749543" y="1235.0" type="qcurve" smooth="yes"/>
      <point x="354.7229485863961" y="1110.0"/>
      <point x="262.99629869865294" y="845.0"/>
      <point x="187.13175309080327" y="721.0" type="qcurve" smooth="yes"/>
      <point x="149.19948028687838" y="659.0" type="line" smooth="yes"/>
      <point x="115.50149634791285" y="604.0"/>
      <point x="77.40266187510395" y="473.0"/>
      <point x="51.835249672376506" y="328.0" type="qcurve" smooth="yes"/>
      <point x="25.738856527523694" y="180.0"/>
      <point x="34.98779336021951" y="85.0"/>
      <point x="88.98779336021951" y="85.0" type="qcurve" smooth="yes"/>
      <point x="148.98779336021954" y="85.0"/>
      <point x="250.593636823549" y="372.0"/>
      <point x="304.834619685681" y="742.0" type="qcurve"/>
      <point x="395.834619685681" y="742.0" type="line"/>
      <point x="343.2965034184267" y="393.0"/>
      <point x="196.23673019291533" y="-10.0"/>
      <point x="65.23673019291536" y="-10.0" type="qcurve" smooth="yes"/>
      <point x="-15.763269807084654" y="-10.0"/>
      <point x="-81.3697432571096" y="117.0"/>
    </contour>
  </outline>
</glyph>
<glyph name="quotesingle" format="2">
  <advance width="203"/>
  <unicode hex="0027"/>
  <outline>
    <contour>
      <point x="104" y="1077" type="line"/>
      <point x="142" y="1348" type="line"/>
      <point x="157" y="1458" type="line"/>
      <point x="242.47500000000002" y="1457.65" type="line"/>
      <point x="227.15000000000003" y="1348.175" type="line"/>
      <point x="183.8" y="1077.1" type="line"/>
    </contour>
  </outline>
</glyph>
<glyph name="parenleft" format="2">
  <advance width="277"/>
  <unicode hex="0028"/>
  <outline>
    <contour>
      <point x="18.17451563944786" y="-396.0" type="line"/>
      <point x="-47.59851947946116" y="-338.0"/>
      <point x="-78.58938415433228" y="8.0"/>
      <point x="-5.061033198902379" y="425.0" type="qcurve" smooth="yes"/>
      <point x="29.499055019956756" y="621.0" type="line" smooth="yes"/>
      <point x="101.08780918759354" y="1027.0"/>
      <point x="265.6186014709795" y="1427.0"/>
      <point x="348.2586235256943" y="1476.0" type="qcurve"/>
      <point x="390.2659475095626" y="1425.0" type="line"/>
      <point x="333.9785794162647" y="1378.0"/>
      <point x="187.79799976633956" y="997.0"/>
      <point x="115.6802646565774" y="588.0" type="qcurve" smooth="yes"/>
      <point x="89.40754453101613" y="439.0" type="line" smooth="yes"/>
      <point x="28.92739014801265" y="96.0"/>
      <point x="28.39171520871446" y="-270.0"/>
      <point x="79.63821071345419" y="-348.0" type="qcurve"/>
    </contour>
  </outline>
</glyph>
<glyph name="parenright" format="2">
  <advance width="277"/>
  <unicode hex="0029"/>
  <outline>
    <contour>
      <point x="-136.82548436055214" y="-396.0" type="qcurve"/>
      <point x="-181.36178928654581" y="-348.0" type="line"/>
      <point x="-102.60828479128554" y="-270.0"/>
      <point x="25.92739014801265" y="96.0"/>
      <point x="86.40754453101613" y="439.0" type="qcurve" smooth="yes"/>
      <point x="112.6802646565774" y="588.0" type="line" smooth="yes"/>
      <point x="184.79799976633956" y="997.0"/>
      <point x="172.97857941626472" y="1378.0"/>
      <point x="133.26594750956258" y="1425.0" type="qcurve"/>
      <point x="193.2586235256943" y="1476.0" type="line"/>
      <point x="258.6186014709795" y="1427.0"/>
      <point x="282.0878091875935" y="1027.0"/>
      <point x="210.49905501995676" y="621.0" type="qcurve" smooth="yes"/>
      <point x="175.93896680109765" y="425.0" type="line" smooth="yes"/>
      <point x="102.4106158456677" y="8.0"/>
      <point x="-50.59851947946116" y="-338.0"/>
    </contour>
  </outline>
</glyph>
<glyph name="asterisk" format="2">
  <advance width="430"/>
  <unicode hex="002A"/>
  <outline>
    <contour>
      <point x="118.0511892682521" y="1282.0" type="line"/>
      <point x="174.6838873390986" y="1382.0" type="line"/>
      <point x="282.81201774738065" y="1309.0" type="line"/>
      <point x="293.49535371860964" y="1466.0" type="line"/>
      <point x="397.49535371860964" y="1466.0" type="line"/>
      <point x="352.81201774738065" y="1309.0" type="line"/>
      <point x="485.68388733909865" y="1382.0" type="line"/>
      <point x="508.0511892682521" y="1282.0" type="line"/>
      <point x="359.17443702062195" y="1243.0" type="line"/>
      <point x="454.72050725843997" y="1127.0" type="line"/>
      <point x="362.2592535123898" y="1062.0" type="line"/>
      <point x="298.76870383086646" y="1201.0" type="line"/>
      <point x="185.25925351238982" y="1062.0" type="line"/>
      <point x="115.72050725844002" y="1127.0" type="line"/>
      <point x="253.17443702062195" y="1243.0" type="line"/>
    </contour>
  </outline>
</glyph>
<glyph name="plus" format="2">
  <advance width="360"/>
  <unicode hex="002B"/>
  <outline>
    <contour>
      <point x="-3.6193100765009234" y="626.0" type="line"/>
      <point x="13.30808007151171" y="722.0" type="line"/>
      <point x="345.3080800715117" y="722.0" type="line"/>
      <point x="328.38068992349906" y="626.0" type="line"/>
    </contour>
    <contour>
      <point x="85.75775716447697" y="458.0" type="line"/>
      <point x="161.93101283053386" y="890.0" type="line"/>
      <point x="255.93101283053386" y="890.0" type="line"/>
      <point x="179.75775716447697" y="458.0" type="line"/>
    </contour>
  </outline>
</glyph>
<glyph name="comma" format="2">
  <advance width="242"/>
  <unicode hex="002C"/>
  <outline>
    <contour>
      <point x="-149.5674122027274" y="-145.0" type="line"/>
      <point x="-111.80902505155495" y="-101.0"/>
      <point x="-56.93959678779312" y="-11.0"/>
      <point x="-46.183650964576756" y="50.0" type="qcurve" smooth="yes"/>
      <point x="-29.78524175868951" y="143.0" type="line"/>
      <point x="69.2147582413105" y="143.0" type="line"/>
      <point x="52.81634903542326" y="50.0" type="line" smooth="yes"/>
      <point x="40.591825482288385" y="-25.0"/>
      <point x="-40.86210427989356" y="-141.0"/>
      <point x="-88.09151048894063" y="-182.0" type="qcurve"/>
    </contour>
  </outline>
</glyph>
<glyph name="hyphen" format="2">
  <advance width="386"/>
  <unicode hex="002D"/>
  <outline>
    <contour>
      <point x="17.040242601862616" y="539.0" type="line"/>
      <point x="35.55457557625144" y="644.0" type="line"/>
      <point x="321.5545755762514" y="644.0" type="line"/>
      <point x="303.0402426018626" y="539.0" type="line"/>
    </contour>
  </outline>
</glyph>
<glyph name="period" format="2">
  <advance width="186"/>
  <unicode hex="002E"/>
  <outline>
    <contour>
      <point x="-66.525" y="56.375" type="qcurve" smooth="yes"/>
      <point x="-65.65" y="82.05000000000001"/>
      <point x="-31.32499999999999" y="115.20000000000005"/>
      <point x="-0.44999999999998863" y="115.375" type="qcurve" smooth="yes"/>
      <point x="29.42500000000001" y="115.55000000000001"/>
      <point x="60.30000000000001" y="80.75"/>
      <point x="59.25" y="55.72500000000002" type="qcurve" smooth="yes"/>
      <point x="58.55000000000001" y="29.875"/>
      <point x="24.05000000000001" y="-4.275"/>
      <point x="-6.649999999999977" y="-4.450000000000001" type="qcurve" smooth="yes"/>
      <point x="-37.349999999999994" y="-4.625"/>
      <point x="-67.4" y="30.875"/>
    </contour>
  </outline>
</glyph>
<glyph name="slash" format="2">
  <advance width="196"/>
  <unicode hex="002F"/>
  <outline>
    <contour>
      <point x="-159.28736809329786" y="-47.0" type="line"/>
      <point x="254.73208391152502" y="1456.0" type="line"/>
      <point x="347.732083911525" y="1456.0" type="line"/>
      <point x="-67.28736809329786" y="-47.0" type="line"/>
    </contour>
  </outline>
</glyph>
<glyph name="zero" format="2">
  <advance width="364"/>
  <unicode hex="0030"/>
  <outline>
    <contour>
      <point x="-33.025" y="212.65000000000003" type="qcurve" smooth="yes"/>
      <point x="114.1" y="1244.475" type="line" smooth="yes"/>
      <point x="132.75" y="1363.475"/>
      <point x="219.9" y="1461.15"/>
      <point x="289.32500000000005" y="1461.15" type="qcurve" smooth="yes"/>
      <point x="358.57500000000005" y="1461.15"/>
      <point x="416.35" y="1365.225"/>
      <point x="397.35" y="1244.475" type="qcurve" smooth="yes"/>
      <point x="250.22500000000002" y="212.65000000000003" type="line" smooth="yes"/>
      <point x="231.75" y="94.35"/>
      <point x="134.40000000000003" y="-8.450000000000001"/>
      <point x="74.82499999999999" y="-8.450000000000001" type="qcurve" smooth="yes"/>
      <point x="4.700000000000017" y="-8.450000000000001"/>
      <point x="-56.45" y="94.875"/>
    </contour>
    <contour>
      <point x="50.67500000000001" y="191.3" type="line" smooth="yes"/>
      <point x="40.25" y="124.32500000000002"/>
      <point x="60.05000000000001" y="62.82499999999999"/>
      <point x="85.85000000000002" y="62.82499999999999" type="qcurve" smooth="yes"/>
      <point x="111.65000000000003" y="62.82499999999999"/>
      <point x="147.0" y="124.32500000000002"/>
      <point x="157.425" y="191.3" type="qcurve" smooth="yes"/>
      <point x="311.725" y="1263.725" type="line" smooth="yes"/>
      <point x="321.975" y="1335.3"/>
      <point x="302.175" y="1386.55"/>
      <point x="276.375" y="1386.55" type="qcurve" smooth="yes"/>
      <point x="250.75" y="1386.55"/>
      <point x="210.27500000000003" y="1335.3"/>
      <point x="204.97500000000002" y="1263.725" type="qcurve" smooth="yes"/>
    </contour>
  </outline>
</glyph>
<glyph name="one" format="2">
  <advance width="352"/>
  <unicode hex="0031"/>
  <outline>
    <contour>
      <point x="33.0" y="0.0" type="line"/>
      <point x="268.39651924580073" y="1335.0" type="line"/>
      <point x="110.94014815566271" y="1236.0" type="line"/>
      <point x="130.8650969757192" y="1349.0" type="line"/>
      <point x="308.732083911525" y="1456.0" type="line"/>
      <point x="387.732083911525" y="1456.0" type="line"/>
      <point x="131.0" y="0.0" type="line"/>
    </contour>
  </outline>
</glyph>
<glyph name="two" format="2">
  <advance width="352"/>
  <unicode hex="0032"/>
  <outline>
    <contour>
      <point x="-106.0" y="0.0" type="line"/>
      <point x="-91.18853362048894" y="84.0" type="line"/>
      <point x="140.02071197821385" y="675.0" type="line" smooth="yes"/>
      <point x="185.82729570181272" y="793.0"/>
      <point x="281.7906757824713" y="1048.0"/>
      <point x="307.1817610044902" y="1192.0" type="qcurve" smooth="yes"/>
      <point x="324.1091511525029" y="1288.0"/>
      <point x="320.56796357059704" y="1370.0"/>
      <point x="285.56796357059704" y="1370.0" type="qcurve" smooth="yes"/>
      <point x="255.56796357059704" y="1370.0"/>
      <point x="227.98834472808915" y="1310.0"/>
      <point x="205.947472139531" y="1185.0" type="qcurve" smooth="yes"/>
      <point x="168.91880619075334" y="975.0" type="line"/>
      <point x="77.91880619075334" y="975.0" type="line"/>
      <point x="120.23728156078494" y="1215.0" type="line" smooth="yes"/>
      <point x="147.44959847413935" y="1375.0"/>
      <point x="241.49535371860964" y="1466.0"/>
      <point x="307.49535371860964" y="1466.0" type="qcurve" smooth="yes"/>
      <point x="379.49535371860964" y="1466.0"/>
      <point x="432.62836678280394" y="1359.0"/>
      <point x="404.94503081157495" y="1202.0" type="qcurve" smooth="yes"/>
      <point x="373.91148220688507" y="1026.0"/>
      <point x="279.29831475968734" y="790.0"/>
      <point x="226.8468263254615" y="657.0" type="qcurve" smooth="yes"/>
      <point x="6.927390148012648" y="96.0" type="line"/>
      <point x="228.92739014801265" y="96.0" type="line"/>
      <point x="212.0" y="0.0" type="line"/>
    </contour>
  </outline>
</glyph>
<glyph name="three" format="2">
  <advance width="364"/>
  <unicode hex="0033"/>
  <outline>
    <contour>
      <point x="-40.95" y="263.475" type="qcurve" smooth="yes"/>
      <point x="-17.65" y="426.625" type="line"/>
      <point x="68.67500000000001" y="426.625" type="line"/>
      <point x="43.450000000000045" y="252.275" type="line" smooth="yes"/>
      <point x="27.725000000000023" y="149.07500000000002"/>
      <point x="47.700000000000045" y="62.0"/>
      <point x="78.625" y="62.0" type="qcurve" smooth="yes"/>
      <point x="113.67500000000001" y="62.0"/>
      <point x="153.02500000000003" y="151.60000000000002"/>
      <point x="183.22500000000002" y="354.15" type="qcurve" smooth="yes"/>
      <point x="214.425" y="565.35"/>
      <point x="212" y="713.0"/>
      <point x="170" y="713" type="qcurve" smooth="yes"/>
      <point x="128" y="713" type="line"/>
      <point x="140.0" y="797" type="line"/>
      <point x="181" y="797" type="line" smooth="yes"/>
      <point x="216" y="797"/>
      <point x="264.05" y="936.35"/>
      <point x="287.425" y="1118.625" type="qcurve" smooth="yes"/>
      <point x="311.625" y="1309.5"/>
      <point x="298.725" y="1387.375"/>
      <point x="268.27500000000003" y="1387.375" type="qcurve" smooth="yes"/>
      <point x="235.52500000000003" y="1387.375"/>
      <point x="201.3" y="1303.15"/>
      <point x="189.82500000000005" y="1219.625" type="qcurve" smooth="yes"/>
      <point x="167.22500000000002" y="1056.075" type="line"/>
      <point x="83.875" y="1056.075" type="line"/>
      <point x="105.775" y="1219.1" type="line" smooth="yes"/>
      <point x="121.625" y="1334.125"/>
      <point x="206.675" y="1461.15"/>
      <point x="283.15000000000003" y="1461.15" type="qcurve" smooth="yes"/>
      <point x="353.27500000000003" y="1461.15"/>
      <point x="405.7750000000001" y="1345.425"/>
      <point x="377.07500000000005" y="1129.3" type="qcurve" smooth="yes"/>
      <point x="352.125" y="937.225"/>
      <point x="286.17500000000007" y="774.375"/>
      <point x="243.07500000000005" y="762.575" type="qcurve"/>
      <point x="243.07500000000005" y="760.225" type="line"/>
      <point x="288.45000000000005" y="749.9"/>
      <point x="305.30000000000007" y="565.95"/>
      <point x="272.0" y="340.15" type="qcurve" smooth="yes"/>
      <point x="239.70000000000005" y="123.0"/>
      <point x="148.52500000000003" y="-8.450000000000001"/>
      <point x="68.65000000000003" y="-8.450000000000001" type="qcurve" smooth="yes"/>
      <point x="-5.025000000000006" y="-8.450000000000001"/>
      <point x="-59.475" y="118.4"/>
    </contour>
  </outline>
</glyph>
<glyph name="four" format="2">
  <advance width="352"/>
  <unicode hex="0034"/>
  <outline>
    <contour>
      <point x="47.0" y="0.0" type="line"/>
      <point x="115.9438494570098" y="391.0" type="line"/>
      <point x="124.41242718692831" y="405.0" type="line"/>
      <point x="233.38250126475964" y="1023.0" type="line"/>
      <point x="229.38250126475964" y="1023.0" type="line"/>
      <point x="40.583871511724595" y="440.0" type="line"/>
      <point x="152.58387151172462" y="440.0" type="line"/>
      <point x="178.46550641526693" y="445.0" type="line"/>
      <point x="293.46550641526693" y="445.0" type="line"/>
      <point x="276.5381162672543" y="349.0" type="line"/>
      <point x="-58.46188373274572" y="349.0" type="line"/>
      <point x="-43.826744333943125" y="432.0" type="line"/>
      <point x="297.732083911525" y="1456.0" type="line"/>
      <point x="398.732083911525" y="1456.0" type="line"/>
      <point x="142.0" y="0.0" type="line"/>
    </contour>
  </outline>
</glyph>
<glyph name="five" format="2">
  <advance width="364"/>
  <unicode hex="0035"/>
  <outline>
    <contour>
      <point x="-52.25" y="253.57500000000002" type="qcurve" smooth="yes"/>
      <point x="-28.775" y="423.425" type="line"/>
      <point x="58.075000000000045" y="423.425" type="line"/>
      <point x="33.55000000000001" y="247.45000000000002" type="line" smooth="yes"/>
      <point x="17.650000000000034" y="137.20000000000002"/>
      <point x="42.400000000000034" y="62.82499999999999"/>
      <point x="79.15000000000003" y="62.82499999999999" type="qcurve" smooth="yes"/>
      <point x="115.90000000000003" y="62.82499999999999"/>
      <point x="160" y="165"/>
      <point x="204.60000000000002" y="468.475" type="qcurve" smooth="yes"/>
      <point x="253" y="795"/>
      <point x="239" y="868"/>
      <point x="206.175" y="868.1" type="qcurve" smooth="yes"/>
      <point x="179" y="868"/>
      <point x="135.45" y="814.6"/>
      <point x="116.72500000000002" y="738.25" type="qcurve"/>
      <point x="36.175" y="747.35" type="line"/>
      <point x="171.275" y="1456.0" type="line"/>
      <point x="419.6" y="1456.0" type="line"/>
      <point x="406.475" y="1371.075" type="line"/>
      <point x="232.45" y="1371.075" type="line"/>
      <point x="148" y="888" type="line"/>
      <point x="168" y="906"/>
      <point x="213.625" y="924.425"/>
      <point x="248.3" y="924.425" type="qcurve" smooth="yes"/>
      <point x="303.32500000000005" y="924.425"/>
      <point x="348.35" y="818.55"/>
      <point x="296.70000000000005" y="471.1" type="qcurve" smooth="yes"/>
      <point x="246.17500000000007" y="133.22500000000002"/>
      <point x="145.85000000000002" y="-8.450000000000001"/>
      <point x="66.02500000000003" y="-8.450000000000001" type="qcurve" smooth="yes"/>
      <point x="-12.074999999999989" y="-8.450000000000001"/>
      <point x="-73.75" y="110.95"/>
    </contour>
  </outline>
</glyph>
<glyph name="six" format="2">
  <advance width="352"/>
  <unicode hex="0036"/>
  <outline>
    <contour>
      <point x="4.740667868784271" y="577.0" type="qcurve" smooth="yes"/>
      <point x="19.023153306169945" y="658.0" type="line" smooth="yes"/>
      <point x="104.8943929111924" y="1145.0"/>
      <point x="229.6234841268917" y="1393.0"/>
      <point x="363.3794299501081" y="1454.0" type="qcurve" smooth="yes"/>
      <point x="389.49535371860964" y="1466.0" type="line"/>
      <point x="410.33123337768166" y="1380.0" type="line"/>
      <point x="382.8626556477632" y="1366.0" type="line" smooth="yes"/>
      <point x="277.0463066123399" y="1316.0"/>
      <point x="195.54418027773158" y="1126.0"/>
      <point x="124.66073403292864" y="724.0" type="qcurve" smooth="yes"/>
      <point x="105.26476615499749" y="614.0" type="line" smooth="yes"/>
      <point x="47.07686252120405" y="284.0"/>
      <point x="15.282485437385674" y="81.0"/>
      <point x="67.28248543738567" y="81.0" type="qcurve" smooth="yes"/>
      <point x="119.28248543738567" y="81.0"/>
      <point x="151.96582140861466" y="238.0"/>
      <point x="190.2287762223516" y="455.0" type="qcurve" smooth="yes"/>
      <point x="221.7913057691668" y="634.0"/>
      <point x="249.4722004124397" y="808.0"/>
      <point x="199.4722004124397" y="808.0" type="qcurve" smooth="yes"/>
      <point x="153.4722004124397" y="808.0"/>
      <point x="101.61009613254612" y="667.0"/>
      <point x="63.99204602943621" y="465.0" type="qcurve"/>
      <point x="9.99204602943621" y="465.0" type="line"/>
      <point x="56.189714975054045" y="727.0"/>
      <point x="170.0469365990354" y="902.0"/>
      <point x="233.0469365990354" y="902.0" type="qcurve" smooth="yes"/>
      <point x="294.0469365990354" y="902.0"/>
      <point x="339.0664672226842" y="766.0"/>
      <point x="284.2287762223516" y="455.0" type="qcurve" smooth="yes"/>
      <point x="225.86454560784966" y="124.0"/>
      <point x="123.23673019291536" y="-10.0"/>
      <point x="54.23673019291536" y="-10.0" type="qcurve" smooth="yes"/>
      <point x="-25.763269807084654" y="-10.0"/>
      <point x="-65.43747045318477" y="179.0"/>
    </contour>
  </outline>
</glyph>
<glyph name="seven" format="2">
  <advance width="352"/>
  <unicode hex="0037"/>
  <outline>
    <contour>
      <point x="-50.0" y="0.0" type="line"/>
      <point x="309.8046937635124" y="1360.0" type="line"/>
      <point x="142.80469376351238" y="1360.0" type="line"/>
      <point x="159.73208391152502" y="1456.0" type="line"/>
      <point x="415.732083911525" y="1456.0" type="line"/>
      <point x="400.9206175320139" y="1372.0" type="line"/>
      <point x="49.0" y="0.0" type="line"/>
    </contour>
  </outline>
</glyph>
<glyph name="eight" format="2">
  <advance width="364"/>
  <unicode hex="0038"/>
  <outline>
    <contour>
      <point x="-33.85" y="385.7" type="qcurve" smooth="yes"/>
      <point x="-4.725000000000001" y="563.125"/>
      <point x="65.42500000000001" y="740.475"/>
      <point x="119.15" y="753.45" type="qcurve"/>
      <point x="119.325" y="754.975" type="line"/>
      <point x="79" y="779"/>
      <point x="69.1" y="953.2"/>
      <point x="99.5" y="1130.8" type="qcurve" smooth="yes"/>
      <point x="134.25" y="1336.0"/>
      <point x="213.65" y="1461.15"/>
      <point x="288.625" y="1461.15" type="qcurve" smooth="yes"/>
      <point x="366.65000000000003" y="1461.15"/>
      <point x="409.85" y="1328.075"/>
      <point x="381.1500000000001" y="1118.55" type="qcurve" smooth="yes"/>
      <point x="358.20000000000005" y="947.25"/>
      <point x="305.80000000000007" y="771.925"/>
      <point x="254.14999999999998" y="754.1" type="qcurve"/>
      <point x="253.97500000000002" y="752.575" type="line"/>
      <point x="301" y="730"/>
      <point x="318.725" y="553.975"/>
      <point x="291.625" y="376.25" type="qcurve" smooth="yes"/>
      <point x="260.75" y="170.05"/>
      <point x="156.02500000000003" y="-8.450000000000001"/>
      <point x="74.125" y="-8.450000000000001" type="qcurve" smooth="yes"/>
      <point x="-10.599999999999994" y="-8.450000000000001"/>
      <point x="-67.675" y="180.675"/>
    </contour>
    <contour>
      <point x="56.325000000000045" y="396.2" type="qcurve" smooth="yes"/>
      <point x="26.600000000000023" y="211.0"/>
      <point x="43.625" y="61.60000000000002"/>
      <point x="84.80000000000001" y="61.60000000000002" type="qcurve" smooth="yes"/>
      <point x="123.5" y="61.60000000000002"/>
      <point x="178.40000000000003" y="207.70000000000002"/>
      <point x="205.65000000000003" y="396.2" type="qcurve" smooth="yes"/>
      <point x="228.77500000000003" y="558.825"/>
      <point x="228.07500000000002" y="723.2"/>
      <point x="178.65000000000003" y="723.2" type="qcurve" smooth="yes"/>
      <point x="130.875" y="723.2"/>
      <point x="83.57500000000005" y="564.6"/>
    </contour>
    <contour>
      <point x="176.02500000000003" y="1103.5" type="qcurve" smooth="yes"/>
      <point x="150.47500000000002" y="941.0"/>
      <point x="144.57500000000005" y="779.975"/>
      <point x="190.52500000000003" y="779.975" type="qcurve" smooth="yes"/>
      <point x="231.35000000000002" y="779.975"/>
      <point x="272.7" y="941.0"/>
      <point x="294.95" y="1103.5" type="qcurve" smooth="yes"/>
      <point x="320.025" y="1288.725"/>
      <point x="312.725" y="1389.525"/>
      <point x="276.02500000000003" y="1389.525" type="qcurve" smooth="yes"/>
      <point x="239.97500000000002" y="1389.525"/>
      <point x="205.22500000000002" y="1287.075"/>
    </contour>
  </outline>
</glyph>
<glyph name="nine" format="2">
  <advance width="364"/>
  <unicode hex="0039"/>
  <outline>
    <contour>
      <point x="57.55" y="992.2" type="qcurve" smooth="yes"/>
      <point x="104.675" y="1302.2"/>
      <point x="205.05" y="1461.15"/>
      <point x="284.20000000000005" y="1461.15" type="qcurve" smooth="yes"/>
      <point x="369.175" y="1461.15"/>
      <point x="427" y="1281"/>
      <point x="356" y="852" type="qcurve" smooth="yes"/>
      <point x="349" y="810" type="line" smooth="yes"/>
      <point x="266" y="313"/>
      <point x="119.125" y="-8.450000000000001"/>
      <point x="-13.424999999999997" y="-8.450000000000001" type="qcurve" smooth="yes"/>
      <point x="-46.65" y="-8.450000000000001" type="line"/>
      <point x="-33.52499999999999" y="70.0" type="line"/>
      <point x="-13.424999999999997" y="70.0" type="line" smooth="yes"/>
      <point x="73.4" y="70.0"/>
      <point x="183.10000000000002" y="333.875"/>
      <point x="266.425" y="827.975" type="qcurve" smooth="yes"/>
      <point x="276.1" y="884.275" type="line" smooth="yes"/>
      <point x="340.15" y="1270.4"/>
      <point x="314.65000000000003" y="1388.3"/>
      <point x="272.825" y="1388.3" type="qcurve" smooth="yes"/>
      <point x="236.77500000000003" y="1388.3"/>
      <point x="190.82500000000005" y="1281.725"/>
      <point x="146.5" y="987.3" type="qcurve" smooth="yes"/>
      <point x="108.35000000000002" y="705.175"/>
      <point x="123.55000000000001" y="622.65"/>
      <point x="160.77500000000003" y="622.65" type="qcurve" smooth="yes"/>
      <point x="206.25" y="622.65"/>
      <point x="271" y="841"/>
      <point x="291" y="972" type="qcurve"/>
      <point x="322" y="972" type="line"/>
      <point x="290" y="731"/>
      <point x="194" y="568"/>
      <point x="118" y="568" type="qcurve" smooth="yes"/>
      <point x="65.0" y="568.0"/>
      <point x="15.375" y="682.2"/>
    </contour>
  </outline>
</glyph>
<glyph name="colon" format="2">
  <advance width="184"/>
  <unicode hex="003A"/>
  <outline>
    <contour>
      <point x="-67" y="58" type="qcurve" smooth="yes"/>
      <point x="-67" y="83.0"/>
      <point x="-34" y="117"/>
      <point x="-4" y="117" type="qcurve" smooth="yes"/>
      <point x="27" y="117"/>
      <point x="58" y="81"/>
      <point x="58" y="57" type="qcurve" smooth="yes"/>
      <point x="58" y="30"/>
      <point x="24" y="-5.0"/>
      <point x="-6" y="-5.0" type="qcurve" smooth="yes"/>
      <point x="-37" y="-5.0"/>
      <point x="-68" y="31"/>
    </contour>
    <contour>
      <point x="36" y="790" type="qcurve" smooth="yes"/>
      <point x="36" y="815"/>
      <point x="72" y="850"/>
      <point x="101" y="850" type="qcurve" smooth="yes"/>
      <point x="131" y="850"/>
      <point x="162" y="814"/>
      <point x="162" y="789.0" type="qcurve" smooth="yes"/>
      <point x="161" y="763"/>
      <point x="128" y="729"/>
      <point x="97" y="729" type="qcurve" smooth="yes"/>
      <point x="66.0" y="729"/>
      <point x="36" y="764"/>
    </contour>
  </outline>
</glyph>
<glyph name="semicolon" format="2">
  <advance width="242"/>
  <unicode hex="003B"/>
  <outline>
    <contour>
      <point x="-149.5674122027274" y="-145.0" type="line"/>
      <point x="-111.80902505155495" y="-101.0"/>
      <point x="-56.93959678779312" y="-11.0"/>
      <point x="-46.183650964576756" y="50.0" type="qcurve" smooth="yes"/>
      <point x="-29.78524175868951" y="143.0" type="line"/>
      <point x="69.2147582413105" y="143.0" type="line"/>
      <point x="52.81634903542326" y="50.0" type="line" smooth="yes"/>
      <point x="40.591825482288385" y="-25.0"/>
      <point x="-40.86210427989356" y="-141.0"/>
      <point x="-88.09151048894063" y="-182.0" type="qcurve"/>
    </contour>
    <contour>
      <point x="44.718695917179446" y="730.0" type="qcurve" smooth="yes"/>
      <point x="50.8901402419757" y="765.0"/>
      <point x="99.17750833527356" y="812.0"/>
      <point x="136.17750833527356" y="812.0" type="qcurve" smooth="yes"/>
      <point x="173.17750833527356" y="812.0"/>
      <point x="204.8901402419757" y="765.0"/>
      <point x="198.71869591717945" y="730.0" type="qcurve" smooth="yes"/>
      <point x="192.3709246116747" y="694.0"/>
      <point x="144.08355651837684" y="647.0"/>
      <point x="107.08355651837684" y="647.0" type="qcurve" smooth="yes"/>
      <point x="70.08355651837684" y="647.0"/>
      <point x="38.54725159238316" y="695.0"/>
    </contour>
  </outline>
</glyph>
<glyph name="less" format="2">
  <advance width="360"/>
  <unicode hex="003C"/>
  <outline>
    <contour>
      <point x="228.90297686845167" y="266.0" type="line"/>
      <point x="34.20192161483453" y="642.0" type="line"/>
      <point x="45.48684838017627" y="706.0" type="line"/>
      <point x="372.7857931265591" y="1082.0" type="line"/>
      <point x="347.57103488524865" y="939.0" type="line"/>
      <point x="119.84438499750539" y="674.0" type="line"/>
      <point x="254.11773510976218" y="409.0" type="line"/>
    </contour>
  </outline>
</glyph>
<glyph name="equal" format="2">
  <advance width="360"/>
  <unicode hex="003D"/>
  <outline>
    <contour>
      <point x="-6.957316070181278" y="522.0" type="line"/>
      <point x="9.970074077831356" y="618.0" type="line"/>
      <point x="311.9700740778313" y="618.0" type="line"/>
      <point x="295.04268392981874" y="522.0" type="line"/>
    </contour>
    <contour>
      <point x="30.07134987859635" y="732.0" type="line"/>
      <point x="46.998740026609" y="828.0" type="line"/>
      <point x="348.99874002660897" y="828.0" type="line"/>
      <point x="332.0713498785964" y="732.0" type="line"/>
    </contour>
  </outline>
</glyph>
<glyph name="greater" format="2">
  <advance width="360"/>
  <unicode hex="003E"/>
  <outline>
    <contour>
      <point x="-31.097023131548326" y="266.0" type="line"/>
      <point x="-5.8822648902378205" y="409.0" type="line"/>
      <point x="221.84438499750536" y="674.0" type="line"/>
      <point x="87.57103488524862" y="939.0" type="line"/>
      <point x="112.7857931265591" y="1082.0" type="line"/>
      <point x="307.4868483801763" y="706.0" type="line"/>
      <point x="296.20192161483453" y="642.0" type="line"/>
    </contour>
  </outline>
</glyph>
<glyph name="question" format="2">
  <advance width="340"/>
  <unicode hex="003F"/>
  <outline>
    <contour>
      <point x="-44.18609229253285" y="67.0" type="qcurve" smooth="yes"/>
      <point x="-38.01464796773658" y="102.0"/>
      <point x="10.272720125561278" y="149.0"/>
      <point x="47.27272012556128" y="149.0" type="qcurve" smooth="yes"/>
      <point x="84.27272012556128" y="149.0"/>
      <point x="115.98535203226342" y="102.0"/>
      <point x="109.81390770746717" y="67.0" type="qcurve" smooth="yes"/>
      <point x="103.46613640196242" y="31.0"/>
      <point x="55.17876830866456" y="-16.0"/>
      <point x="18.17876830866456" y="-16.0" type="qcurve" smooth="yes"/>
      <point x="-18.82123169133544" y="-16.0"/>
      <point x="-50.35753661732912" y="32.0"/>
    </contour>
    <contour>
      <point x="82.43802182105438" y="1046.0" type="line"/>
      <point x="117.35076400133042" y="1244.0" type="line" smooth="yes"/>
      <point x="139.03898262847162" y="1367.0"/>
      <point x="224.67168069931813" y="1467.0"/>
      <point x="295.67168069931813" y="1467.0" type="qcurve"/>
      <point x="369.67168069931813" y="1467.0"/>
      <point x="432.03898262847156" y="1367.0"/>
      <point x="408.2348402328289" y="1232.0" type="qcurve" smooth="yes"/>
      <point x="393.5997008340263" y="1149.0"/>
      <point x="325.51063167304176" y="950.0"/>
      <point x="280.58324152502905" y="854.0" type="qcurve" smooth="yes"/>
      <point x="224.07134987859638" y="732.0"/>
      <point x="157.45085844753032" y="547.0"/>
      <point x="146.51858564360555" y="485.0" type="qcurve" smooth="yes"/>
      <point x="120.06953853733577" y="335.0" type="line"/>
      <point x="28.069538537335774" y="335.0" type="line"/>
      <point x="54.165931682188585" y="483.0" type="line" smooth="yes"/>
      <point x="69.33005202311656" y="569.0"/>
      <point x="143.0664672226842" y="766.0"/>
      <point x="198.2257049077" y="886.0" type="qcurve" smooth="yes"/>
      <point x="239.09513317146184" y="976.0"/>
      <point x="298.1866436604024" y="1158.0"/>
      <point x="312.46912909778814" y="1239.0" type="qcurve" smooth="yes"/>
      <point x="326.75161453517376" y="1320.0"/>
      <point x="311.56796357059704" y="1370.0"/>
      <point x="284.56796357059704" y="1370.0" type="qcurve" smooth="yes"/>
      <point x="263.56796357059704" y="1370.0"/>
      <point x="227.86753830367536" y="1332.0"/>
      <point x="211.9981100399135" y="1242.0" type="qcurve" smooth="yes"/>
      <point x="177.43802182105435" y="1046.0" type="line"/>
    </contour>
  </outline>
</glyph>
<glyph name="at" format="2">
  <advance width="557"/>
  <unicode hex="0040"/>
  <outline>
    <contour>
      <point x="113" y="441" type="qcurve" smooth="yes"/>
      <point x="162" y="805"/>
      <point x="287.8" y="1059.1"/>
      <point x="349.975" y="1059.1" type="qcurve" smooth="yes"/>
      <point x="377.20000000000005" y="1059.1"/>
      <point x="406.75" y="1015.875"/>
      <point x="406.17500000000007" y="980.05" type="qcurve"/>
      <point x="446.0" y="980.05" type="line"/>
      <point x="332.70000000000005" y="376.875" type="line" smooth="yes"/>
      <point x="306.5" y="237.675"/>
      <point x="305" y="106"/>
      <point x="330" y="106" type="qcurve" smooth="yes"/>
      <point x="364.0" y="106"/>
      <point x="408" y="272"/>
      <point x="462" y="641.0" type="qcurve" smooth="yes"/>
      <point x="517" y="1019"/>
      <point x="502" y="1389"/>
      <point x="402" y="1389" type="qcurve" smooth="yes"/>
      <point x="279" y="1389"/>
      <point x="124" y="1007"/>
      <point x="51" y="481" type="qcurve" smooth="yes"/>
      <point x="-17" y="13"/>
      <point x="28.700000000000045" y="-327.92499999999995"/>
      <point x="111.5" y="-327.92499999999995" type="qcurve" smooth="yes"/>
      <point x="145.65000000000003" y="-327.92499999999995"/>
      <point x="205.72500000000002" y="-287.675"/>
      <point x="233.05000000000007" y="-243.34999999999997" type="qcurve"/>
      <point x="237.30000000000007" y="-293.5" type="line"/>
      <point x="209.97500000000002" y="-335.15"/>
      <point x="149.90000000000003" y="-381.4"/>
      <point x="104.5" y="-381.4" type="qcurve" smooth="yes"/>
      <point x="-3.0249999999999773" y="-381.4"/>
      <point x="-85.45" y="-20.099999999999994"/>
      <point x="-14.5" y="488.425" type="qcurve" smooth="yes"/>
      <point x="63.55" y="1028.075"/>
      <point x="260.05" y="1454.75"/>
      <point x="403.70000000000005" y="1454.75" type="qcurve" smooth="yes"/>
      <point x="538.95" y="1454.75"/>
      <point x="595" y="1058"/>
      <point x="535.6500000000001" y="664.45" type="qcurve" smooth="yes"/>
      <point x="476" y="271"/>
      <point x="379.42500000000007" y="26.075000000000003"/>
      <point x="315.975" y="26.075000000000003" type="qcurve" smooth="yes"/>
      <point x="274.85" y="26.075000000000003"/>
      <point x="252" y="148"/>
      <point x="263" y="266" type="qcurve"/>
      <point x="230" y="144"/>
      <point x="182" y="26"/>
      <point x="142" y="26" type="qcurve" smooth="yes"/>
      <point x="99" y="26"/>
      <point x="75" y="159"/>
    </contour>
    <contour>
      <point x="189" y="437" type="qcurve" smooth="yes"/>
      <point x="152" y="185"/>
      <point x="151" y="105"/>
      <point x="168" y="105.0" type="qcurve" smooth="yes"/>
      <point x="186" y="105"/>
      <point x="219" y="227"/>
      <point x="256" y="416" type="qcurve" smooth="yes"/>
      <point x="359" y="947" type="line"/>
      <point x="364" y="979"/>
      <point x="361" y="986"/>
      <point x="344" y="986" type="qcurve" smooth="yes"/>
      <point x="309" y="986"/>
      <point x="242" y="801"/>
    </contour>
  </outline>
</glyph>
<glyph name="A" format="2">
  <advance width="350"/>
  <unicode hex="0041"/>
  <outline>
    <contour>
      <point x="-138.0" y="0.0" type="line"/>
      <point x="247.55575693081653" y="1455.0" type="line"/>
      <point x="360.55575693081653" y="1455.0" type="line"/>
      <point x="232.0" y="0.0" type="line"/>
      <point x="135.0" y="0.0" type="line"/>
      <point x="221.873050946283" y="884.0" type="line" smooth="yes"/>
      <point x="226.27878413603855" y="926.0"/>
      <point x="242.9596787793115" y="1100.0"/>
      <point x="247.83643102694157" y="1139.0" type="qcurve"/>
      <point x="243.83643102694157" y="1139.0" type="line"/>
      <point x="234.9596787793115" y="1100.0"/>
      <point x="192.27878413603855" y="926.0"/>
      <point x="181.873050946283" y="884.0" type="qcurve" smooth="yes"/>
      <point x="-43.0" y="0.0" type="line"/>
    </contour>
    <contour>
      <point x="-2.2324775236986625" y="390.0" type="line"/>
      <point x="32.51858564360552" y="485.0" type="line"/>
      <point x="230.51858564360555" y="485.0" type="line"/>
      <point x="231.76752247630134" y="390.0" type="line"/>
    </contour>
  </outline>
</glyph>
<glyph name="B" format="2">
  <advance width="352"/>
  <unicode hex="0042"/>
  <anchor x="176.0" y="0" name="bottom"/>
  <anchor x="176.0" y="1456" name="top"/>
  <outline>
    <contour>
      <point x="-82.0" y="0.0" type="line"/>
      <point x="174.73208391152502" y="1456.0" type="line"/>
      <point x="305.732083911525" y="1456.0" type="line" smooth="yes"/>
      <point x="382.732083911525" y="1456.0"/>
      <point x="428.8144590753368" y="1292.0"/>
      <point x="393.3727359529353" y="1091.0" type="qcurve" smooth="yes"/>
      <point x="359.1653016954931" y="897.0"/>
      <point x="291.9456607982704" y="788.0"/>
      <point x="233.77177514551806" y="770.0" type="qcurve"/>
      <point x="233.41912118410107" y="768.0" type="line"/>
      <point x="285.4215625120572" y="751.0"/>
      <point x="317.26476615499746" y="614.0"/>
      <point x="282.3520239747214" y="416.0" type="qcurve" smooth="yes"/>
      <point x="238.27027879760522" y="166.0"/>
      <point x="130.0" y="0.0"/>
      <point x="23.0" y="0.0" type="qcurve" smooth="yes"/>
    </contour>
    <contour>
      <point x="32.574736186595715" y="94.0" type="line"/>
      <point x="53.574736186595715" y="94.0" type="line" smooth="yes"/>
      <point x="97.57473618659571" y="94.0"/>
      <point x="146.8498976401131" y="226.0"/>
      <point x="180.35202397472142" y="416.0" type="qcurve" smooth="yes"/>
      <point x="212.0908805022451" y="596.0"/>
      <point x="197.3684832837186" y="711.0"/>
      <point x="166.19215630301017" y="710.0" type="qcurve" smooth="yes"/>
      <point x="141.19215630301017" y="710.0" type="line"/>
    </contour>
    <contour>
      <point x="158.11954645102276" y="806.0" type="line"/>
      <point x="173.11954645102276" y="806.0" type="line" smooth="yes"/>
      <point x="210.11954645102276" y="806.0"/>
      <point x="258.34162867620154" y="898.0"/>
      <point x="290.6674280301014" y="1087.0" type="qcurve" smooth="yes"/>
      <point x="322.99322738400133" y="1276.0"/>
      <point x="314.9810207442208" y="1361.0"/>
      <point x="285.8046937635124" y="1360.0" type="qcurve" smooth="yes"/>
      <point x="255.80469376351238" y="1360.0" type="line"/>
    </contour>
  </outline>
</glyph>
<glyph name="C" format="2">
  <advance width="350"/>
  <unicode hex="0043"/>
  <anchor x="181.0" y="0" name="bottom"/>
  <anchor x="181.0" y="1456" name="top"/>
  <outline>
    <contour>
      <point x="-49.676641974056224" y="206.0" type="qcurve" smooth="yes"/>
      <point x="136.17199569266586" y="1260.0" type="line" smooth="yes"/>
      <point x="155.56796357059704" y="1370.0"/>
      <point x="243.49535371860964" y="1466.0"/>
      <point x="311.49535371860964" y="1466.0" type="qcurve" smooth="yes"/>
      <point x="369.49535371860964" y="1466.0"/>
      <point x="425.212868281224" y="1385.0"/>
      <point x="410.9303828438383" y="1304.0" type="qcurve" smooth="yes"/>
      <point x="345.6893999817063" y="934.0" type="line"/>
      <point x="249.6893999817063" y="934.0" type="line"/>
      <point x="313.1671130367537" y="1294.0" type="line" smooth="yes"/>
      <point x="321.45448113005153" y="1341.0"/>
      <point x="309.56796357059704" y="1370.0"/>
      <point x="293.56796357059704" y="1370.0" type="qcurve" smooth="yes"/>
      <point x="273.56796357059704" y="1370.0"/>
      <point x="248.1622303808415" y="1328.0"/>
      <point x="236.17199569266586" y="1260.0" type="qcurve" smooth="yes"/>
      <point x="50.323358025943776" y="206.0" type="line" smooth="yes"/>
      <point x="35.33556466572426" y="121.0"/>
      <point x="44.811466379511046" y="84.0"/>
      <point x="65.81146637951105" y="84.0" type="qcurve" smooth="yes"/>
      <point x="84.81146637951105" y="84.0"/>
      <point x="108.101275800765" y="114.0"/>
      <point x="120.7968184117745" y="186.0" type="qcurve" smooth="yes"/>
      <point x="180.04268392981874" y="522.0" type="line"/>
      <point x="274.04268392981874" y="522.0" type="line"/>
      <point x="213.38620256610676" y="178.0" type="line" smooth="yes"/>
      <point x="197.34044732163647" y="87.0"/>
      <point x="112.23673019291536" y="-10.0"/>
      <point x="49.23673019291536" y="-10.0" type="qcurve" smooth="yes"/>
      <point x="-22.763269807084654" y="-10.0"/>
      <point x="-69.77791777482122" y="92.0"/>
    </contour>
  </outline>
</glyph>
<glyph name="D" format="2">
  <advance width="381"/>
  <unicode hex="0044"/>
  <outline>
    <contour>
      <point x="-82.0" y="0.0" type="line"/>
      <point x="174.73208391152502" y="1456.0" type="line"/>
      <point x="307.732083911525" y="1456.0" type="line" smooth="yes"/>
      <point x="383.732083911525" y="1456.0"/>
      <point x="442.8699796316314" y="1315.0"/>
      <point x="414.48133573756854" y="1154.0" type="qcurve" smooth="yes"/>
      <point x="257.3739959263263" y="263.0" type="line" smooth="yes"/>
      <point x="235.50945031847664" y="139.0"/>
      <point x="119.0" y="0.0"/>
      <point x="45.0" y="0.0" type="qcurve" smooth="yes"/>
    </contour>
    <contour>
      <point x="32.574736186595715" y="94.0" type="line"/>
      <point x="49.574736186595715" y="94.0" type="line" smooth="yes"/>
      <point x="88.57473618659571" y="94.0"/>
      <point x="142.9151835082322" y="181.0"/>
      <point x="156.3160340420755" y="257.0" type="qcurve" smooth="yes"/>
      <point x="320.47645308165636" y="1188.0" type="line" smooth="yes"/>
      <point x="338.1091511525029" y="1288.0"/>
      <point x="308.1573477249293" y="1362.0"/>
      <point x="272.8046937635124" y="1360.0" type="qcurve" smooth="yes"/>
      <point x="255.80469376351238" y="1360.0" type="line"/>
    </contour>
  </outline>
</glyph>
<glyph name="E" format="2">
  <advance width="299"/>
  <unicode hex="0045"/>
  <anchor x="170" y="0" name="bottom"/>
  <anchor x="268" y="0" name="ogonek"/>
  <anchor x="170" y="1456" name="top"/>
  <outline>
    <contour>
      <point x="-82.0" y="0.0" type="line"/>
      <point x="174.73208391152502" y="1456.0" type="line"/>
      <point x="410.732083911525" y="1456.0" type="line"/>
      <point x="393.80469376351243" y="1360.0" type="line"/>
      <point x="255.80469376351238" y="1360.0" type="line"/>
      <point x="157.94321947031432" y="805.0" type="line"/>
      <point x="268.9432194703143" y="805.0" type="line"/>
      <point x="252.01582932230167" y="709.0" type="line"/>
      <point x="141.01582932230167" y="709.0" type="line"/>
      <point x="32.574736186595715" y="94.0" type="line"/>
      <point x="181.57473618659571" y="94.0" type="line"/>
      <point x="165.0" y="0.0" type="line"/>
    </contour>
  </outline>
</glyph>
<glyph name="F" format="2">
  <advance width="259"/>
  <unicode hex="0046"/>
  <anchor x="157" y="0" name="bottom"/>
  <anchor x="157" y="1456" name="top"/>
  <outline>
    <contour>
      <point x="-82.0" y="0.0" type="line"/>
      <point x="174.73208391152502" y="1456.0" type="line"/>
      <point x="385.732083911525" y="1456.0" type="line"/>
      <point x="368.8046937635124" y="1360.0" type="line"/>
      <point x="255.80469376351238" y="1360.0" type="line"/>
      <point x="157.061584566772" y="800.0" type="line"/>
      <point x="255.061584566772" y="800.0" type="line"/>
      <point x="238.1341944187593" y="704.0" type="line"/>
      <point x="140.1341944187593" y="704.0" type="line"/>
      <point x="16.0" y="0.0" type="line"/>
    </contour>
  </outline>
</glyph>
<glyph name="G" format="2">
  <advance width="346"/>
  <unicode hex="0047"/>
  <anchor x="188.0" y="0" name="bottom"/>
  <anchor x="188.0" y="1456" name="top"/>
  <outline>
    <contour>
      <point x="-50.38194989689008" y="202.0" type="qcurve" smooth="yes"/>
      <point x="135.99566871195736" y="1259.0" type="line" smooth="yes"/>
      <point x="155.56796357059704" y="1370.0"/>
      <point x="242.49535371860964" y="1466.0"/>
      <point x="318.49535371860964" y="1466.0" type="qcurve" smooth="yes"/>
      <point x="392.49535371860964" y="1466.0"/>
      <point x="442.2732714934309" y="1374.0"/>
      <point x="421.99566871195736" y="1259.0" type="qcurve" smooth="yes"/>
      <point x="379.3245393805089" y="1017.0" type="line"/>
      <point x="288.3245393805089" y="1017.0" type="line"/>
      <point x="327.11647513637115" y="1237.0" type="line" smooth="yes"/>
      <point x="342.1042684965907" y="1322.0"/>
      <point x="324.56796357059704" y="1370.0"/>
      <point x="302.56796357059704" y="1370.0" type="qcurve" smooth="yes"/>
      <point x="277.56796357059704" y="1370.0"/>
      <point x="246.985903400133" y="1327.0"/>
      <point x="231.11647513637115" y="1237.0" type="qcurve" smooth="yes"/>
      <point x="48.97070406452684" y="204.0" type="line" smooth="yes"/>
      <point x="35.74618051139197" y="129.0"/>
      <point x="50.811466379511046" y="84.0"/>
      <point x="74.81146637951105" y="84.0" type="qcurve" smooth="yes"/>
      <point x="91.81146637951105" y="84.0"/>
      <point x="110.28004410942958" y="98.0"/>
      <point x="119.92494882005656" y="113.0" type="qcurve"/>
      <point x="210.55701690420756" y="627.0" type="line"/>
      <point x="153.55701690420756" y="627.0" type="line"/>
      <point x="170.48440705222015" y="723.0" type="line"/>
      <point x="317.48440705222015" y="723.0" type="line"/>
      <point x="201.6375807267587" y="66.0" type="line"/>
      <point x="184.05307922833862" y="40.0"/>
      <point x="109.23673019291536" y="-10.0"/>
      <point x="58.23673019291536" y="-10.0" type="qcurve" smooth="yes"/>
      <point x="-14.763269807084654" y="-10.0"/>
      <point x="-69.60159079411275" y="93.0"/>
    </contour>
  </outline>
</glyph>
<glyph name="H" format="2">
  <advance width="392"/>
  <unicode hex="0048"/>
  <anchor x="196.0" y="0" name="bottom"/>
  <anchor x="196.0" y="1089.0" name="center"/>
  <anchor x="196.0" y="1456" name="top"/>
  <outline>
    <contour>
      <point x="-82.0" y="0.0" type="line"/>
      <point x="174.73208391152502" y="1456.0" type="line"/>
      <point x="272.732083911525" y="1456.0" type="line"/>
      <point x="157.061584566772" y="800.0" type="line"/>
      <point x="261.061584566772" y="800.0" type="line"/>
      <point x="376.732083911525" y="1456.0" type="line"/>
      <point x="474.732083911525" y="1456.0" type="line"/>
      <point x="218.0" y="0.0" type="line"/>
      <point x="120.0" y="0.0" type="line"/>
      <point x="244.1341944187593" y="704.0" type="line"/>
      <point x="140.1341944187593" y="704.0" type="line"/>
      <point x="16.0" y="0.0" type="line"/>
    </contour>
  </outline>
</glyph>
<glyph name="I" format="2">
  <advance width="194"/>
  <unicode hex="0049"/>
  <outline>
    <contour>
      <point x="-80.0" y="0.0" type="line"/>
      <point x="176.73208391152502" y="1456.0" type="line"/>
      <point x="274.732083911525" y="1456.0" type="line"/>
      <point x="18.0" y="0.0" type="line"/>
    </contour>
  </outline>
</glyph>
<glyph name="J" format="2">
  <advance width="376"/>
  <unicode hex="004A"/>
  <outline>
    <contour>
      <point x="-51.2635848004324" y="197.0" type="qcurve" smooth="yes"/>
      <point x="-26.930461462664226" y="335.0" type="line"/>
      <point x="69.06953853733577" y="335.0" type="line"/>
      <point x="46.49968500665224" y="207.0" type="line"/>
      <point x="32.393526549975064" y="127.0"/>
      <point x="47.98779336021951" y="85.0"/>
      <point x="72.98779336021951" y="85.0" type="qcurve" smooth="yes"/>
      <point x="99.98779336021951" y="85.0"/>
      <point x="131.0988344728089" y="131.0"/>
      <point x="148.20255160153" y="228.0" type="qcurve" smooth="yes"/>
      <point x="364.732083911525" y="1456.0" type="line"/>
      <point x="462.732083911525" y="1456.0" type="line"/>
      <point x="247.4368404664893" y="235.0" type="line" smooth="yes"/>
      <point x="222.92739014801265" y="96.0"/>
      <point x="133.41305717362383" y="-9.0"/>
      <point x="59.41305717362383" y="-9.0" type="qcurve" smooth="yes"/>
      <point x="-11.586942826376188" y="-9.0"/>
      <point x="-70.65955267836355" y="87.0"/>
    </contour>
  </outline>
</glyph>
<glyph name="K" format="2">
  <advance width="348"/>
  <unicode hex="004B"/>
  <anchor x="200.0" y="0" name="bottom"/>
  <anchor x="200.0" y="1456" name="top"/>
  <outline>
    <contour>
      <point x="-82.0" y="0.0" type="line"/>
      <point x="174.73208391152502" y="1456.0" type="line"/>
      <point x="272.732083911525" y="1456.0" type="line"/>
      <point x="177.69184130966238" y="917.0" type="line"/>
      <point x="373.732083911525" y="1456.0" type="line"/>
      <point x="469.732083911525" y="1456.0" type="line"/>
      <point x="113.68514731248959" y="554.0" type="line"/>
      <point x="16.0" y="0.0" type="line"/>
    </contour>
    <contour>
      <point x="135.0" y="0.0" type="line"/>
      <point x="132.83950234159317" y="708.0" type="line"/>
      <point x="221.27878413603855" y="926.0" type="line"/>
      <point x="234.0" y="0.0" type="line"/>
    </contour>
  </outline>
</glyph>
<glyph name="L" format="2">
  <advance width="298"/>
  <unicode hex="004C"/>
  <anchor x="149.0" y="0" name="bottom"/>
  <anchor x="242.0" y="753.0" name="center"/>
  <anchor x="142.0" y="1456" name="top"/>
  <anchor x="155" y="914" name="topright"/>
  <outline>
    <contour>
      <point x="-82.0" y="0.0" type="line"/>
      <point x="174.73208391152502" y="1456.0" type="line"/>
      <point x="274.732083911525" y="1456.0" type="line"/>
      <point x="34.92739014801265" y="96.0" type="line"/>
      <point x="178.92739014801265" y="96.0" type="line"/>
      <point x="162.0" y="0.0" type="line"/>
    </contour>
  </outline>
</glyph>
<glyph name="M" format="2">
  <advance width="540"/>
  <unicode hex="004D"/>
  <anchor x="270.0" y="0" name="bottom"/>
  <anchor x="270.0" y="1456" name="top"/>
  <outline>
    <contour>
      <point x="-82.0" y="0.0" type="line"/>
      <point x="174.73208391152502" y="1456.0" type="line"/>
      <point x="276.732083911525" y="1456.0" type="line"/>
      <point x="189.48503703891566" y="309.0" type="line" smooth="yes"/>
      <point x="189.07442119324799" y="301.0"/>
      <point x="187.3715545983702" y="280.0"/>
      <point x="186.48991969482785" y="275.0" type="qcurve"/>
      <point x="190.48991969482785" y="275.0" type="line"/>
      <point x="191.3715545983702" y="280.0"/>
      <point x="197.07442119324799" y="301.0"/>
      <point x="199.48503703891566" y="309.0" type="qcurve" smooth="yes"/>
      <point x="515.732083911525" y="1456.0" type="line"/>
      <point x="622.732083911525" y="1456.0" type="line"/>
      <point x="366.0" y="0.0" type="line"/>
      <point x="271.0" y="0.0" type="line"/>
      <point x="410.2983147596874" y="790.0" type="line" smooth="yes"/>
      <point x="412.2379115474805" y="801.0"/>
      <point x="418.05670191085983" y="834.0"/>
      <point x="420.8779336021953" y="850.0" type="qcurve"/>
      <point x="416.8779336021953" y="850.0" type="line"/>
      <point x="413.05670191085983" y="834.0"/>
      <point x="404.4142385281889" y="802.0"/>
      <point x="401.2983147596874" y="790.0" type="qcurve" smooth="yes"/>
      <point x="184.0" y="0.0" type="line"/>
      <point x="96.0" y="0.0" type="line"/>
      <point x="157.1219877789789" y="789.0" type="line" smooth="yes"/>
      <point x="158.4142385281889" y="802.0"/>
      <point x="161.05670191085983" y="834.0"/>
      <point x="162.87793360219524" y="850.0" type="qcurve"/>
      <point x="158.87793360219524" y="850.0" type="line"/>
      <point x="156.05670191085983" y="834.0"/>
      <point x="150.23791154748045" y="801.0"/>
      <point x="147.9456607982704" y="788.0" type="qcurve" smooth="yes"/>
      <point x="9.0" y="0.0" type="line"/>
    </contour>
  </outline>
</glyph>
<glyph name="N" format="2">
  <advance width="413"/>
  <unicode hex="004E"/>
  <anchor x="206.5" y="0" name="bottom"/>
  <anchor x="206.5" y="1456" name="top"/>
  <outline>
    <contour>
      <point x="-82.0" y="0.0" type="line"/>
      <point x="174.73208391152502" y="1456.0" type="line"/>
      <point x="314.732083911525" y="1456.0" type="line"/>
      <point x="194.66380534758025" y="293.0" type="line" smooth="yes"/>
      <point x="193.54788157907865" y="281.0"/>
      <point x="179.50456766256445" y="173.0"/>
      <point x="178.27027879760522" y="166.0" type="qcurve"/>
      <point x="182.27027879760522" y="166.0" type="line"/>
      <point x="183.50456766256445" y="173.0"/>
      <point x="204.31115138616332" y="291.0"/>
      <point x="205.01645930899718" y="295.0" type="qcurve" smooth="yes"/>
      <point x="409.732083911525" y="1456.0" type="line"/>
      <point x="495.732083911525" y="1456.0" type="line"/>
      <point x="239.0" y="0.0" type="line"/>
      <point x="95.0" y="0.0" type="line"/>
      <point x="208.43069783718607" y="1097.0" type="line" smooth="yes"/>
      <point x="209.72294858639611" y="1110.0"/>
      <point x="220.0029926958257" y="1208.0"/>
      <point x="222.1189164643273" y="1220.0" type="qcurve"/>
      <point x="218.1189164643273" y="1220.0" type="line"/>
      <point x="216.0029926958257" y="1208.0"/>
      <point x="198.31233274072838" y="1102.0"/>
      <point x="197.25437085647764" y="1096.0" type="qcurve" smooth="yes"/>
      <point x="4.0" y="0.0" type="line"/>
    </contour>
  </outline>
</glyph>
<glyph name="P" format="2">
  <advance width="351"/>
  <unicode hex="0050"/>
  <outline>
    <contour>
      <point x="-82.0" y="0.0" type="line"/>
      <point x="174.73208391152502" y="1456.0" type="line"/>
      <point x="285.732083911525" y="1456.0" type="line" smooth="yes"/>
      <point x="391.732083911525" y="1456.0"/>
      <point x="438.9907860560452" y="1293.0"/>
      <point x="392.616790129719" y="1030.0" type="qcurve" smooth="yes"/>
      <point x="346.24279420339263" y="767.0"/>
      <point x="231.50149634791285" y="604.0"/>
      <point x="154.50149634791285" y="604.0" type="qcurve" smooth="yes"/>
      <point x="122.50149634791285" y="604.0" type="line"/>
      <point x="16.0" y="0.0" type="line"/>
    </contour>
    <contour>
      <point x="139.07623253450856" y="698.0" type="line"/>
      <point x="165.07623253450856" y="698.0" type="line" smooth="yes"/>
      <point x="198.07623253450856" y="698.0"/>
      <point x="249.06402589472805" y="783.0"/>
      <point x="292.4404631490105" y="1029.0" type="qcurve" smooth="yes"/>
      <point x="331.05607192416426" y="1248.0"/>
      <point x="324.1573477249293" y="1362.0"/>
      <point x="281.8046937635124" y="1360.0" type="qcurve" smooth="yes"/>
      <point x="255.80469376351238" y="1360.0" type="line"/>
    </contour>
  </outline>
</glyph>
<glyph name="R" format="2">
  <advance width="386"/>
  <unicode hex="0052"/>
  <outline>
    <contour>
      <point x="-82.0" y="0.0" type="line"/>
      <point x="174.73208391152502" y="1456.0" type="line"/>
      <point x="311.732083911525" y="1456.0" type="line" smooth="yes"/>
      <point x="388.732083911525" y="1456.0"/>
      <point x="454.1622303808415" y="1328.0"/>
      <point x="404.0853678596375" y="1044.0" type="qcurve" smooth="yes"/>
      <point x="361.9432194703143" y="805.0"/>
      <point x="237.90967086562443" y="629.0"/>
      <point x="141.90967086562443" y="629.0" type="qcurve" smooth="yes"/>
      <point x="126.90967086562446" y="629.0" type="line"/>
      <point x="16.0" y="0.0" type="line"/>
    </contour>
    <contour>
      <point x="143.48440705222015" y="723.0" type="line"/>
      <point x="176.48440705222015" y="723.0" type="line" smooth="yes"/>
      <point x="218.48440705222015" y="723.0"/>
      <point x="274.2861081199069" y="875.0"/>
      <point x="303.909040878929" y="1043.0" type="qcurve" smooth="yes"/>
      <point x="344.28791946116746" y="1272.0"/>
      <point x="328.9810207442208" y="1361.0"/>
      <point x="289.8046937635124" y="1360.0" type="qcurve" smooth="yes"/>
      <point x="255.80469376351238" y="1360.0" type="line"/>
    </contour>
    <contour>
      <point x="157.0" y="0.0" type="line"/>
      <point x="152.72601990104772" y="679.0" type="line"/>
      <point x="246.72601990104772" y="679.0" type="line"/>
      <point x="258.0" y="0.0" type="line"/>
    </contour>
  </outline>
</glyph>
<glyph name="S" format="2">
  <advance width="376"/>
  <unicode hex="0053"/>
  <outline>
    <contour>
      <point x="-41.38927388075837" y="253.0" type="qcurve" smooth="yes"/>
      <point x="0.04756658573091954" y="488.0" type="line"/>
      <point x="96.04756658573092" y="488.0" type="line"/>
      <point x="56.3739959263263" y="263.0" type="line" smooth="yes"/>
      <point x="35.449047106269745" y="150.0"/>
      <point x="42.811466379511046" y="84.0"/>
      <point x="72.81146637951105" y="84.0" type="qcurve" smooth="yes"/>
      <point x="100.81146637951105" y="84.0"/>
      <point x="132.80170106768668" y="152.0"/>
      <point x="162.9536147688342" y="323.0" type="qcurve" smooth="yes"/>
      <point x="190.81327772077168" y="481.0"/>
      <point x="187.14884238649591" y="602.0"/>
      <point x="162.60277214867784" y="718.0" type="qcurve" smooth="yes"/>
      <point x="136.64364473723595" y="843.0"/>
      <point x="100.38250126475967" y="1023.0"/>
      <point x="125.4209325253617" y="1165.0" type="qcurve" smooth="yes"/>
      <point x="158.92305885997007" y="1355.0"/>
      <point x="250.67168069931813" y="1467.0"/>
      <point x="317.67168069931813" y="1467.0" type="qcurve" smooth="yes"/>
      <point x="384.67168069931813" y="1467.0"/>
      <point x="431.03898262847156" y="1367.0"/>
      <point x="411.81934173124887" y="1258.0" type="qcurve" smooth="yes"/>
      <point x="364.91636486279725" y="992.0" type="line"/>
      <point x="267.91636486279725" y="992.0" type="line"/>
      <point x="310.9401481556627" y="1236.0" type="line" smooth="yes"/>
      <point x="325.2226335930484" y="1317.0"/>
      <point x="321.7442905513055" y="1371.0"/>
      <point x="297.7442905513055" y="1371.0" type="qcurve" smooth="yes"/>
      <point x="274.7442905513055" y="1371.0"/>
      <point x="252.75161453517376" y="1320.0"/>
      <point x="225.59725950607015" y="1166.0" type="qcurve" smooth="yes"/>
      <point x="207.6119074738067" y="1064.0"/>
      <point x="222.86816829037082" y="918.0"/>
      <point x="244.6460860651921" y="826.0" type="qcurve" smooth="yes"/>
      <point x="271.54481026442704" y="712.0"/>
      <point x="298.7479918526526" y="526.0"/>
      <point x="267.0091353251289" y="346.0" type="qcurve" smooth="yes"/>
      <point x="231.038431260602" y="142.0"/>
      <point x="142.23673019291533" y="-10.0"/>
      <point x="59.23673019291536" y="-10.0" type="qcurve" smooth="yes"/>
      <point x="-24.763269807084654" y="-10.0"/>
      <point x="-68.01464796773658" y="102.0"/>
    </contour>
  </outline>
</glyph>
<glyph name="T" format="2">
  <advance width="314"/>
  <unicode hex="0054"/>
  <outline>
    <contour>
      <point x="113.80469376351238" y="1360.0" type="line"/>
      <point x="130.73208391152502" y="1456.0" type="line"/>
      <point x="440.732083911525" y="1456.0" type="line"/>
      <point x="423.80469376351243" y="1360.0" type="line"/>
      <point x="317.8046937635124" y="1360.0" type="line"/>
      <point x="78.0" y="0.0" type="line"/>
      <point x="-20.0" y="0.0" type="line"/>
      <point x="219.80469376351238" y="1360.0" type="line"/>
    </contour>
  </outline>
</glyph>
<glyph name="U" format="2">
  <advance width="375"/>
  <unicode hex="0055"/>
  <outline>
    <contour>
      <point x="-45.44479443705305" y="230.0" type="qcurve" smooth="yes"/>
      <point x="170.73208391152502" y="1456.0" type="line"/>
      <point x="268.732083911525" y="1456.0" type="line"/>
      <point x="47.794377083818404" y="203.0" type="line" smooth="yes"/>
      <point x="34.04087258855813" y="125.0"/>
      <point x="50.45881241809414" y="82.0"/>
      <point x="74.45881241809414" y="82.0" type="qcurve" smooth="yes"/>
      <point x="98.45881241809414" y="82.0"/>
      <point x="131.0408725885581" y="125.0"/>
      <point x="144.7943770838184" y="203.0" type="qcurve" smooth="yes"/>
      <point x="365.732083911525" y="1456.0" type="line"/>
      <point x="461.732083911525" y="1456.0" type="line"/>
      <point x="245.55520556294692" y="230.0" type="line" smooth="yes"/>
      <point x="223.51433297438882" y="105.0"/>
      <point x="127.88407623149843" y="-12.0"/>
      <point x="57.884076231498426" y="-12.0" type="qcurve" smooth="yes"/>
      <point x="-13.115923768501574" y="-12.0"/>
      <point x="-67.48566702561118" y="105.0"/>
    </contour>
  </outline>
</glyph>
<glyph name="V" format="2">
  <advance width="368"/>
  <unicode hex="0056"/>
  <anchor x="184.0" y="0" name="bottom"/>
  <anchor x="184.0" y="1456" name="top"/>
  <outline>
    <contour>
      <point x="138.73208391152502" y="1456.0" type="line"/>
      <point x="238.73208391152502" y="1456.0" type="line"/>
      <point x="135.1104111258939" y="460.0" type="line" smooth="yes"/>
      <point x="134.75775716447697" y="458.0"/>
      <point x="125.23854153417597" y="387.0"/>
      <point x="123.29894474638283" y="376.0" type="qcurve"/>
      <point x="127.29894474638283" y="376.0" type="line"/>
      <point x="129.23854153417597" y="387.0"/>
      <point x="144.75775716447697" y="458.0"/>
      <point x="145.1104111258939" y="460.0" type="qcurve" smooth="yes"/>
      <point x="389.732083911525" y="1456.0" type="line"/>
      <point x="486.732083911525" y="1456.0" type="line"/>
      <point x="102.41305717362383" y="-9.0" type="line"/>
      <point x="10.413057173623827" y="-9.0" type="line"/>
    </contour>
  </outline>
</glyph>
<glyph name="W" format="2">
  <advance width="541"/>
  <unicode hex="0057"/>
  <outline>
    <contour>
      <point x="-13.586942826376188" y="-9.0" type="line"/>
      <point x="138.73208391152502" y="1456.0" type="line"/>
      <point x="231.73208391152502" y="1456.0" type="line"/>
      <point x="109.04268392981874" y="522.0" type="line" smooth="yes"/>
      <point x="107.98472204556793" y="516.0"/>
      <point x="96.41242718692831" y="405.0"/>
      <point x="95.530792283386" y="400.0" type="qcurve"/>
      <point x="99.530792283386" y="400.0" type="line"/>
      <point x="100.41242718692831" y="405.0"/>
      <point x="128.16104902627637" y="517.0"/>
      <point x="129.04268392981874" y="522.0" type="qcurve" smooth="yes"/>
      <point x="358.732083911525" y="1456.0" type="line"/>
      <point x="444.732083911525" y="1456.0" type="line"/>
      <point x="349.04268392981874" y="522.0" type="line" smooth="yes"/>
      <point x="347.98472204556793" y="516.0"/>
      <point x="336.5887541676368" y="406.0"/>
      <point x="335.70711926409444" y="401.0" type="qcurve"/>
      <point x="339.70711926409444" y="401.0" type="line"/>
      <point x="340.5887541676368" y="406.0"/>
      <point x="366.1610490262764" y="517.0"/>
      <point x="367.04268392981874" y="522.0" type="qcurve" smooth="yes"/>
      <point x="565.732083911525" y="1456.0" type="line"/>
      <point x="659.732083911525" y="1456.0" type="line"/>
      <point x="306.4130571736238" y="-9.0" type="line"/>
      <point x="229.41305717362383" y="-9.0" type="line"/>
      <point x="338.55638691751204" y="1041.0" type="line" smooth="yes"/>
      <point x="339.2616948403459" y="1045.0"/>
      <point x="354.4788944096125" y="1171.0"/>
      <point x="355.3605293131548" y="1176.0" type="qcurve"/>
      <point x="351.3605293131548" y="1176.0" type="line"/>
      <point x="350.4788944096125" y="1171.0"/>
      <point x="321.2616948403459" y="1045.0"/>
      <point x="320.55638691751204" y="1041.0" type="qcurve" smooth="yes"/>
      <point x="63.41305717362383" y="-9.0" type="line"/>
    </contour>
  </outline>
</glyph>
<glyph name="X" format="2">
  <advance width="356"/>
  <unicode hex="0058"/>
  <anchor x="178.0" y="0" name="bottom"/>
  <anchor x="178.0" y="1456" name="top"/>
  <outline>
    <contour>
      <point x="-128.0" y="0.0" type="line"/>
      <point x="182.40447321636452" y="870.0" type="line"/>
      <point x="188.40447321636452" y="870.0" type="line"/>
      <point x="383.732083911525" y="1456.0" type="line"/>
      <point x="474.732083911525" y="1456.0" type="line"/>
      <point x="195.02315330616995" y="658.0" type="line"/>
      <point x="189.02315330616995" y="658.0" type="line"/>
      <point x="-37.0" y="0.0" type="line"/>
    </contour>
    <contour>
      <point x="142.73208391152502" y="1456.0" type="line"/>
      <point x="239.73208391152502" y="1456.0" type="line"/>
      <point x="233.9334541584899" y="873.0" type="line"/>
      <point x="233.9334541584899" y="873.0" type="line"/>
      <point x="228.0" y="0.0" type="line"/>
      <point x="131.0" y="0.0" type="line"/>
      <point x="142.66805801679692" y="673.0" type="line"/>
      <point x="142.84438499750536" y="674.0" type="line"/>
    </contour>
  </outline>
</glyph>
<glyph name="Y" format="2">
  <advance width="328"/>
  <unicode hex="0059"/>
  <anchor x="164.0" y="0" name="bottom"/>
  <anchor x="167.0" y="1456" name="top"/>
  <outline>
    <contour>
      <point x="-13.0" y="0.0" type="line"/>
      <point x="88.74066786878427" y="577.0" type="line"/>
      <point x="132.73208391152502" y="1456.0" type="line"/>
      <point x="234.73208391152502" y="1456.0" type="line"/>
      <point x="192.16286036753695" y="914.0" type="line" smooth="yes"/>
      <point x="191.75224452186927" y="906.0"/>
      <point x="180.05914323881586" y="817.0"/>
      <point x="178.11954645102276" y="806.0" type="qcurve"/>
      <point x="182.11954645102276" y="806.0" type="line"/>
      <point x="184.05914323881586" y="817.0"/>
      <point x="204.75224452186927" y="906.0"/>
      <point x="207.16286036753695" y="914.0" type="qcurve" smooth="yes"/>
      <point x="356.732083911525" y="1456.0" type="line"/>
      <point x="452.732083911525" y="1456.0" type="line"/>
      <point x="186.74066786878427" y="577.0" type="line"/>
      <point x="85.0" y="0.0" type="line"/>
    </contour>
  </outline>
</glyph>
<glyph name="Z" format="2">
  <advance width="276"/>
  <unicode hex="005A"/>
  <outline>
    <contour>
      <point x="-122.0" y="0.0" type="line"/>
      <point x="-110.71507323465823" y="64.0" type="line"/>
      <point x="274.8046937635124" y="1360.0" type="line"/>
      <point x="130.80469376351238" y="1360.0" type="line"/>
      <point x="147.73208391152502" y="1456.0" type="line"/>
      <point x="388.732083911525" y="1456.0" type="line"/>
      <point x="377.44715714618326" y="1392.0" type="line"/>
      <point x="-5.425263813404285" y="94.0" type="line"/>
      <point x="160.57473618659571" y="94.0" type="line"/>
      <point x="144.0" y="0.0" type="line"/>
    </contour>
  </outline>
</glyph>
<glyph name="bracketleft" format="2">
  <advance width="211"/>
  <unicode hex="005B"/>
  <outline>
    <contour>
      <point x="-116.275" y="-311.65" type="line"/>
      <point x="141.1" y="1457.65" type="line"/>
      <point x="297.725" y="1457.65" type="line"/>
      <point x="284" y="1385" type="line"/>
      <point x="220" y="1385" type="line"/>
      <point x="-22" y="-239" type="line"/>
      <point x="46" y="-239" type="line"/>
      <point x="37" y="-312" type="line"/>
    </contour>
  </outline>
</glyph>
<glyph name="backslash" format="2">
  <advance width="269"/>
  <unicode hex="005C"/>
  <outline>
    <contour>
      <point x="91" y="1458" type="line"/>
      <point x="163" y="1458" type="line"/>
      <point x="178" y="-52" type="line"/>
      <point x="106" y="-52" type="line"/>
    </contour>
  </outline>
</glyph>
<glyph name="bracketright" format="2">
  <advance width="258"/>
  <unicode hex="005D"/>
  <outline>
    <contour>
      <point x="31.33863598037584" y="-310.0" type="line"/>
      <point x="-161.66136401962416" y="-310.0" type="line"/>
      <point x="-147.20255160153002" y="-228.0" type="line"/>
      <point x="-55.20255160153002" y="-228.0" type="line"/>
      <point x="227.2732714934309" y="1374.0" type="line"/>
      <point x="135.2732714934309" y="1374.0" type="line"/>
      <point x="149.73208391152502" y="1456.0" type="line"/>
      <point x="342.732083911525" y="1456.0" type="line"/>
    </contour>
  </outline>
</glyph>
<glyph name="asciicircum" format="2">
  <advance width="305"/>
  <unicode hex="005E"/>
  <outline>
    <contour>
      <point x="40.16530169549307" y="897.0" type="line"/>
      <point x="231.2610648536504" y="1459.0" type="line"/>
      <point x="332.2610648536504" y="1459.0" type="line"/>
      <point x="325.1653016954931" y="897.0" type="line"/>
      <point x="239.1653016954931" y="897.0" type="line"/>
      <point x="247.4062845576251" y="1267.0" type="line"/>
      <point x="126.16530169549307" y="897.0" type="line"/>
    </contour>
  </outline>
</glyph>
<glyph name="underscore" format="2">
  <advance width="333"/>
  <unicode hex="005F"/>
  <outline>
    <contour>
      <point x="-188.48015438300348" y="-343.0" type="line"/>
      <point x="-171.20011027357393" y="-245.0" type="line"/>
      <point x="161.7998897264261" y="-245.0" type="line"/>
      <point x="144.51984561699652" y="-343.0" type="line"/>
    </contour>
  </outline>
</glyph>
<glyph name="grave" format="2">
  <advance width="500"/>
  <unicode hex="0060"/>
  <outline>
    <contour>
      <point x="338.0" y="970.0" type="line"/>
      <point x="158.0" y="1129.0" type="line"/>
      <point x="228.0" y="1192.0" type="line"/>
      <point x="392.0" y="1014.0" type="line"/>
    </contour>
  </outline>
</glyph>
<glyph name="a" format="2">
  <advance width="320"/>
  <unicode hex="0061"/>
  <anchor x="160.0" y="0" name="bottom"/>
  <anchor x="255" y="0" name="ogonek"/>
  <anchor x="160.0" y="914" name="top"/>
  <outline>
    <contour>
      <point x="-67.74436917013139" y="268.0" type="qcurve" smooth="yes"/>
      <point x="-39.355725276068526" y="429.0"/>
      <point x="61.97983938965575" y="550.0"/>
      <point x="124.97983938965575" y="550.0" type="qcurve" smooth="yes"/>
      <point x="160.97983938965575" y="550.0" type="line"/>
      <point x="199.41912118410107" y="768.0" type="line" smooth="yes"/>
      <point x="204.88525758606352" y="799.0"/>
      <point x="195.5277209687344" y="831.0"/>
      <point x="177.5277209687344" y="831.0" type="qcurve" smooth="yes"/>
      <point x="160.5277209687344" y="831.0"/>
      <point x="140.59056550889738" y="803.0"/>
      <point x="136.18239099118574" y="778.0" type="qcurve" smooth="yes"/>
      <point x="113.43621047979377" y="649.0" type="line"/>
      <point x="21.436210479793772" y="649.0" type="line"/>
      <point x="41.713813261267234" y="764.0" type="line" smooth="yes"/>
      <point x="55.46731775652751" y="842.0"/>
      <point x="136.74980319391318" y="923.0"/>
      <point x="195.74980319391318" y="923.0" type="qcurve" smooth="yes"/>
      <point x="254.74980319391318" y="923.0"/>
      <point x="304.7016066214868" y="849.0"/>
      <point x="288.83217835772496" y="759.0" type="qcurve" smooth="yes"/>
      <point x="182.33068200981205" y="155.0" type="line" smooth="yes"/>
      <point x="173.69065995509732" y="106.0"/>
      <point x="169.05307922833862" y="40.0"/>
      <point x="175.8212316913354" y="16.0" type="qcurve"/>
      <point x="173.0" y="0.0" type="line"/>
      <point x="89.0" y="0.0" type="line"/>
      <point x="84.76326980708464" y="10.0"/>
      <point x="80.87675224763012" y="39.0"/>
      <point x="81.69798393896556" y="55.0" type="qcurve"/>
      <point x="62.05552055629468" y="23.0"/>
      <point x="16.9420381157492" y="-6.0"/>
      <point x="-11.057961884250787" y="-6.0" type="qcurve" smooth="yes"/>
      <point x="-67.05796188425079" y="-6.0"/>
      <point x="-93.48810835356727" y="122.0"/>
    </contour>
    <contour>
      <point x="23.492361022783967" y="258.0" type="qcurve" smooth="yes"/>
      <point x="1.9804693763512375" y="136.0"/>
      <point x="10.45881241809414" y="82.0"/>
      <point x="34.45881241809414" y="82.0" type="qcurve" smooth="yes"/>
      <point x="57.45881241809414" y="82.0"/>
      <point x="84.80658372359886" y="118.0"/>
      <point x="91.50700899052055" y="156.0" type="qcurve" smooth="yes"/>
      <point x="144.9340841451854" y="459.0" type="line"/>
      <point x="116.93408414518541" y="459.0" type="line" smooth="yes"/>
      <point x="83.93408414518541" y="459.0"/>
      <point x="45.0042526692167" y="380.0"/>
    </contour>
  </outline>
</glyph>
<glyph name="b" format="2">
  <advance width="359"/>
  <unicode hex="0062"/>
  <anchor x="179.5" y="0" name="bottom"/>
  <anchor x="179.5" y="914" name="top"/>
  <outline>
    <contour>
      <point x="-88.0" y="0.0" type="line"/>
      <point x="168.73208391152502" y="1456.0" type="line"/>
      <point x="259.732083911525" y="1456.0" type="line"/>
      <point x="153.58324152502905" y="854.0" type="line"/>
      <point x="161.46243510061532" y="876.0"/>
      <point x="213.74980319391318" y="923.0"/>
      <point x="251.74980319391318" y="923.0" type="qcurve" smooth="yes"/>
      <point x="303.7498031939132" y="923.0"/>
      <point x="343.81997171794444" y="844.0"/>
      <point x="328.3031974155995" y="756.0" type="qcurve" smooth="yes"/>
      <point x="223.7412978554798" y="163.0" type="line" smooth="yes"/>
      <point x="210.16412034092798" y="86.0"/>
      <point x="142.58938415433227" y="-8.0"/>
      <point x="90.5893841543323" y="-8.0" type="qcurve" smooth="yes"/>
      <point x="60.58938415433229" y="-8.0"/>
      <point x="18.99755867204391" y="17.0"/>
      <point x="10.229406209047056" y="41.0" type="qcurve"/>
      <point x="10.229406209047056" y="41.0" type="line"/>
      <point x="3.0" y="0.0" type="line"/>
    </contour>
    <contour>
      <point x="25.393526549975064" y="127.0" type="line"/>
      <point x="27.51433297438882" y="105.0"/>
      <point x="45.811466379511046" y="84.0"/>
      <point x="65.81146637951105" y="84.0" type="qcurve" smooth="yes"/>
      <point x="86.81146637951105" y="84.0"/>
      <point x="124.33556466572426" y="121.0"/>
      <point x="133.32824068185596" y="172.0" type="qcurve" smooth="yes"/>
      <point x="232.07134987859638" y="732.0" type="line" smooth="yes"/>
      <point x="243.17994966322965" y="795.0"/>
      <point x="224.17506700731747" y="829.0"/>
      <point x="201.17506700731747" y="829.0" type="qcurve" smooth="yes"/>
      <point x="183.17506700731747" y="829.0"/>
      <point x="149.94321947031432" y="805.0"/>
      <point x="139.65341004906037" y="775.0" type="qcurve"/>
    </contour>
  </outline>
</glyph>
<glyph name="c" format="2">
  <advance width="316"/>
  <unicode hex="0063"/>
  <outline>
    <contour>
      <point x="-62.024413279560946" y="170.0" type="qcurve" smooth="yes"/>
      <point x="39.716254589223325" y="747.0" type="line" smooth="yes"/>
      <point x="54.70404794944287" y="832.0"/>
      <point x="140.74980319391318" y="923.0"/>
      <point x="203.74980319391318" y="923.0" type="qcurve" smooth="yes"/>
      <point x="261.7498031939132" y="923.0"/>
      <point x="316.58324152502905" y="854.0"/>
      <point x="305.8272957018127" y="793.0" type="qcurve" smooth="yes"/>
      <point x="270.9145535215367" y="595.0" type="line"/>
      <point x="179.91455352153667" y="595.0" type="line"/>
      <point x="211.47708306835193" y="774.0" type="line" smooth="yes"/>
      <point x="217.11954645102276" y="806.0"/>
      <point x="202.5277209687344" y="831.0"/>
      <point x="185.5277209687344" y="831.0" type="qcurve" smooth="yes"/>
      <point x="169.5277209687344" y="831.0"/>
      <point x="142.59056550889738" y="803.0"/>
      <point x="132.71625458922335" y="747.0" type="qcurve" smooth="yes"/>
      <point x="30.975586720439054" y="170.0" type="line" smooth="yes"/>
      <point x="20.572294858639623" y="111.0"/>
      <point x="36.282485437385674" y="81.0"/>
      <point x="53.282485437385674" y="81.0" type="qcurve" smooth="yes"/>
      <point x="71.28248543738567" y="81.0"/>
      <point x="92.98535203226342" y="102.0"/>
      <point x="100.39108522201894" y="144.0" type="qcurve" smooth="yes"/>
      <point x="131.24830684600033" y="319.0" type="line"/>
      <point x="222.24830684600033" y="319.0" type="line"/>
      <point x="188.0408725885581" y="125.0" type="line" smooth="yes"/>
      <point x="176.22696488109096" y="58.0"/>
      <point x="93.41305717362383" y="-9.0"/>
      <point x="39.41305717362383" y="-9.0" type="qcurve" smooth="yes"/>
      <point x="-24.586942826376188" y="-9.0"/>
      <point x="-77.18853362048894" y="84.0"/>
    </contour>
  </outline>
</glyph>
<glyph name="d" format="2">
  <advance width="359"/>
  <unicode hex="0064"/>
  <outline>
    <contour>
      <point x="-63.258702144520214" y="163.0" type="qcurve" smooth="yes"/>
      <point x="41.30319741559953" y="756.0" type="line" smooth="yes"/>
      <point x="56.81997171794444" y="844.0"/>
      <point x="125.74980319391318" y="923.0"/>
      <point x="176.74980319391318" y="923.0" type="qcurve" smooth="yes"/>
      <point x="214.74980319391318" y="923.0"/>
      <point x="250.46243510061532" y="876.0"/>
      <point x="250.58324152502905" y="854.0" type="qcurve"/>
      <point x="356.732083911525" y="1456.0" type="line"/>
      <point x="447.732083911525" y="1456.0" type="line"/>
      <point x="191.0" y="0.0" type="line"/>
      <point x="100.0" y="0.0" type="line"/>
      <point x="107.22940620904706" y="41.0" type="line"/>
      <point x="107.22940620904706" y="41.0" type="line"/>
      <point x="89.99755867204391" y="17.0"/>
      <point x="39.58938415433229" y="-8.0"/>
      <point x="9.589384154332294" y="-8.0" type="qcurve"/>
      <point x="-41.41061584566772" y="-8.0"/>
      <point x="-76.83587965907202" y="86.0"/>
    </contour>
    <contour>
      <point x="30.328240681855988" y="172.0" type="line" smooth="yes"/>
      <point x="21.335564665724263" y="121.0"/>
      <point x="45.811466379511046" y="84.0"/>
      <point x="66.81146637951105" y="84.0" type="qcurve" smooth="yes"/>
      <point x="87.81146637951105" y="84.0"/>
      <point x="113.51433297438882" y="105.0"/>
      <point x="122.39352654997506" y="127.0" type="qcurve"/>
      <point x="236.65341004906037" y="775.0" type="line"/>
      <point x="236.94321947031432" y="805.0"/>
      <point x="212.17506700731747" y="829.0"/>
      <point x="195.17506700731747" y="829.0" type="qcurve" smooth="yes"/>
      <point x="171.17506700731747" y="829.0"/>
      <point x="140.17994966322965" y="795.0"/>
      <point x="129.07134987859638" y="732.0" type="qcurve" smooth="yes"/>
    </contour>
  </outline>
</glyph>
<glyph name="e" format="2">
  <advance width="334"/>
  <unicode hex="0065"/>
  <anchor x="171.0" y="0" name="bottom"/>
  <anchor x="199" y="0" name="ogonek"/>
  <anchor x="171.0" y="914" name="top"/>
  <outline>
    <contour>
      <point x="-62.55339422168635" y="167.0" type="qcurve" smooth="yes"/>
      <point x="39.010946666389486" y="743.0" type="line" smooth="yes"/>
      <point x="53.4697590844836" y="825.0"/>
      <point x="145.74980319391318" y="923.0"/>
      <point x="205.74980319391318" y="923.0" type="qcurve" smooth="yes"/>
      <point x="268.7498031939132" y="923.0"/>
      <point x="326.4093558722767" y="836.0"/>
      <point x="313.0109466663895" y="743.0" type="qcurve" smooth="yes"/>
      <point x="263.46306508731084" y="462.0" type="line"/>
      <point x="25.463065087310838" y="462.0" type="line"/>
      <point x="40.274531466821884" y="546.0" type="line"/>
      <point x="186.27453146682188" y="546.0" type="line"/>
      <point x="219.95298478213869" y="737.0" type="line" smooth="yes"/>
      <point x="229.82729570181272" y="793.0"/>
      <point x="212.5277209687344" y="831.0"/>
      <point x="190.5277209687344" y="831.0" type="qcurve" smooth="yes"/>
      <point x="170.5277209687344" y="831.0"/>
      <point x="140.35627664393814" y="796.0"/>
      <point x="130.12931176284712" y="738.0" type="qcurve" smooth="yes"/>
      <point x="30.15191370114752" y="171.0" type="line" smooth="yes"/>
      <point x="21.159237685015796" y="120.0"/>
      <point x="32.282485437385674" y="81.0"/>
      <point x="56.282485437385674" y="81.0" type="qcurve" smooth="yes"/>
      <point x="79.28248543738567" y="81.0"/>
      <point x="115.98046937635124" y="136.0"/>
      <point x="133.2580721578247" y="251.0" type="qcurve"/>
      <point x="222.14214838932315" y="239.0" type="line"/>
      <point x="207.1592376850158" y="120.0"/>
      <point x="114.41305717362383" y="-9.0"/>
      <point x="42.41305717362383" y="-9.0" type="qcurve" smooth="yes"/>
      <point x="-20.586942826376188" y="-9.0"/>
      <point x="-78.07016852403126" y="79.0"/>
    </contour>
  </outline>
</glyph>
<glyph name="f" format="2">
  <advance width="207"/>
  <unicode hex="0066"/>
  <outline>
    <contour>
      <point x="-77.0" y="0.0" type="line"/>
      <point x="145.70097663479123" y="1263.0" type="line" smooth="yes"/>
      <point x="166.15490639697316" y="1379.0"/>
      <point x="265.61127748711124" y="1478.0"/>
      <point x="325.61127748711124" y="1478.0" type="qcurve" smooth="yes"/>
      <point x="349.61127748711124" y="1478.0"/>
      <point x="381.49535371860964" y="1466.0"/>
      <point x="388.4373918343589" y="1460.0" type="qcurve"/>
      <point x="346.6259254548478" y="1376.0" type="line"/>
      <point x="341.33123337768166" y="1380.0"/>
      <point x="327.38919526193246" y="1386.0"/>
      <point x="317.38919526193246" y="1386.0" type="qcurve" smooth="yes"/>
      <point x="286.38919526193246" y="1386.0"/>
      <point x="247.75161453517376" y="1320.0"/>
      <point x="234.87974494345582" y="1247.0" type="qcurve" smooth="yes"/>
      <point x="170.69672396557456" y="883.0" type="line"/>
      <point x="168.75712717778146" y="872.0" type="line"/>
      <point x="15.0" y="0.0" type="line"/>
    </contour>
    <contour>
      <point x="22.29343210377513" y="824.0" type="line"/>
      <point x="38.16286036753698" y="914.0" type="line"/>
      <point x="117.16286036753698" y="914.0" type="line"/>
      <point x="135.16286036753695" y="914.0" type="line"/>
      <point x="251.16286036753695" y="914.0" type="line"/>
      <point x="235.2934321037751" y="824.0" type="line"/>
    </contour>
  </outline>
</glyph>
<glyph name="g" format="2">
  <advance width="359"/>
  <unicode hex="0067"/>
  <anchor x="179.5" y="-416" name="bottom"/>
  <anchor x="179.5" y="914" name="top"/>
  <outline>
    <contour>
      <point x="-187.12261776567436" y="-375.0" type="qcurve"/>
      <point x="-142.95849742474638" y="-289.0" type="line"/>
      <point x="-127.89809421253949" y="-300.0"/>
      <point x="-86.12994174954265" y="-324.0"/>
      <point x="-54.12994174954265" y="-324.0" type="qcurve" smooth="yes"/>
      <point x="-9.129941749542652" y="-324.0"/>
      <point x="61.20806424413769" y="-220.0"/>
      <point x="82.19097494844505" y="-101.0" type="qcurve" smooth="yes"/>
      <point x="107.22940620904706" y="41.0" type="line"/>
      <point x="89.99755867204391" y="17.0"/>
      <point x="39.58938415433229" y="-8.0"/>
      <point x="9.589384154332294" y="-8.0" type="qcurve" smooth="yes"/>
      <point x="-42.41061584566772" y="-8.0"/>
      <point x="-76.83587965907202" y="86.0"/>
      <point x="-63.258702144520214" y="163.0" type="qcurve" smooth="yes"/>
      <point x="41.30319741559953" y="756.0" type="line" smooth="yes"/>
      <point x="56.81997171794444" y="844.0"/>
      <point x="124.74980319391318" y="923.0"/>
      <point x="176.74980319391318" y="923.0" type="qcurve" smooth="yes"/>
      <point x="214.74980319391318" y="923.0"/>
      <point x="250.46243510061532" y="876.0"/>
      <point x="250.58324152502905" y="854.0" type="qcurve"/>
      <point x="250.58324152502905" y="854.0" type="line"/>
      <point x="261.16286036753695" y="914.0" type="line"/>
      <point x="352.16286036753695" y="914.0" type="line"/>
      <point x="168.60647345002496" y="-127.0" type="line" smooth="yes"/>
      <point x="143.03906124729752" y="-272.0"/>
      <point x="18.64797602527858" y="-416.0"/>
      <point x="-71.35202397472143" y="-416.0" type="qcurve" smooth="yes"/>
      <point x="-118.35202397472143" y="-416.0"/>
      <point x="-173.59119549559287" y="-389.0"/>
    </contour>
    <contour>
      <point x="30.328240681855988" y="172.0" type="line" smooth="yes"/>
      <point x="21.335564665724263" y="121.0"/>
      <point x="46.811466379511046" y="84.0"/>
      <point x="66.81146637951105" y="84.0" type="qcurve" smooth="yes"/>
      <point x="87.81146637951105" y="84.0"/>
      <point x="113.69065995509729" y="106.0"/>
      <point x="122.39352654997506" y="127.0" type="qcurve"/>
      <point x="236.65341004906037" y="775.0" type="line"/>
      <point x="236.94321947031432" y="805.0"/>
      <point x="211.17506700731747" y="829.0"/>
      <point x="194.17506700731747" y="829.0" type="qcurve" smooth="yes"/>
      <point x="173.17506700731747" y="829.0"/>
      <point x="140.17994966322965" y="795.0"/>
      <point x="129.07134987859638" y="732.0" type="qcurve" smooth="yes"/>
    </contour>
  </outline>
</glyph>
<glyph name="h" format="2">
  <advance width="360"/>
  <unicode hex="0068"/>
  <outline>
    <contour>
      <point x="-88.0" y="0.0" type="line"/>
      <point x="168.73208391152502" y="1456.0" type="line"/>
      <point x="259.732083911525" y="1456.0" type="line"/>
      <point x="155.34651133211378" y="864.0" type="line"/>
      <point x="174.81264773407617" y="895.0"/>
      <point x="231.92613017462168" y="924.0"/>
      <point x="262.9261301746217" y="924.0" type="qcurve" smooth="yes"/>
      <point x="305.9261301746217" y="924.0"/>
      <point x="345.2885494478629" y="858.0"/>
      <point x="332.24035287543654" y="784.0" type="qcurve" smooth="yes"/>
      <point x="194.0" y="0.0" type="line"/>
      <point x="103.0" y="0.0" type="line"/>
      <point x="235.24523553134873" y="750.0" type="line" smooth="yes"/>
      <point x="244.94321947031432" y="805.0"/>
      <point x="223.88037493015133" y="833.0"/>
      <point x="203.88037493015133" y="833.0" type="qcurve" smooth="yes"/>
      <point x="182.88037493015133" y="833.0"/>
      <point x="150.64852739314813" y="809.0"/>
      <point x="141.41667985614504" y="785.0" type="qcurve"/>
      <point x="3.0" y="0.0" type="line"/>
    </contour>
  </outline>
</glyph>
<glyph name="i" format="2">
  <advance width="189"/>
  <unicode hex="0069"/>
  <outline>
    <contour>
      <point x="-79.0" y="0.0" type="line"/>
      <point x="82.16286036753698" y="914.0" type="line"/>
      <point x="173.16286036753695" y="914.0" type="line"/>
      <point x="12.0" y="0.0" type="line"/>
    </contour>
    <contour>
      <point x="119.99811003991351" y="1242.0" type="qcurve" smooth="yes"/>
      <point x="125.28791946116746" y="1272.0"/>
      <point x="164.34099868950602" y="1312.0"/>
      <point x="198.34099868950602" y="1312.0" type="qcurve" smooth="yes"/>
      <point x="232.34099868950602" y="1312.0"/>
      <point x="256.4642464418759" y="1273.0"/>
      <point x="250.9981100399135" y="1242.0" type="qcurve" smooth="yes"/>
      <point x="245.70830061865956" y="1212.0"/>
      <point x="206.4788944096125" y="1171.0"/>
      <point x="172.4788944096125" y="1171.0" type="qcurve" smooth="yes"/>
      <point x="138.4788944096125" y="1171.0"/>
      <point x="114.70830061865956" y="1212.0"/>
    </contour>
  </outline>
</glyph>
<glyph name="j" format="2">
  <advance width="189"/>
  <unicode hex="006A"/>
  <outline>
    <contour>
      <point x="-280.3544653026775" y="-399.0" type="qcurve"/>
      <point x="-246.366671942458" y="-314.0" type="line"/>
      <point x="-238.8956528845834" y="-317.0"/>
      <point x="-214.9536147688342" y="-323.0"/>
      <point x="-195.9536147688342" y="-323.0" type="qcurve" smooth="yes"/>
      <point x="-173.9536147688342" y="-323.0"/>
      <point x="-129.25318950191252" y="-285.0"/>
      <point x="-116.02866594877764" y="-210.0" type="qcurve" smooth="yes"/>
      <point x="82.16286036753698" y="914.0" type="line"/>
      <point x="173.16286036753695" y="914.0" type="line"/>
      <point x="-22.031107276733735" y="-193.0" type="line" smooth="yes"/>
      <point x="-42.661364019624145" y="-310.0"/>
      <point x="-133.52835095542991" y="-417.0"/>
      <point x="-197.52835095542991" y="-417.0" type="qcurve" smooth="yes"/>
      <point x="-229.52835095542991" y="-417.0"/>
      <point x="-269.4124271869283" y="-405.0"/>
    </contour>
    <contour>
      <point x="119.99811003991351" y="1242.0" type="qcurve" smooth="yes"/>
      <point x="125.28791946116746" y="1272.0"/>
      <point x="164.34099868950602" y="1312.0"/>
      <point x="197.34099868950602" y="1312.0" type="qcurve" smooth="yes"/>
      <point x="231.34099868950602" y="1312.0"/>
      <point x="256.4642464418759" y="1273.0"/>
      <point x="250.9981100399135" y="1242.0" type="qcurve" smooth="yes"/>
      <point x="245.70830061865956" y="1212.0"/>
      <point x="205.4788944096125" y="1171.0"/>
      <point x="171.4788944096125" y="1171.0" type="qcurve" smooth="yes"/>
      <point x="138.4788944096125" y="1171.0"/>
      <point x="114.70830061865956" y="1212.0"/>
    </contour>
  </outline>
</glyph>
<glyph name="k" format="2">
  <advance width="328"/>
  <unicode hex="006B"/>
  <anchor x="183.0" y="0" name="bottom"/>
  <anchor x="183.0" y="914" name="top"/>
  <outline>
    <contour>
      <point x="-88.0" y="0.0" type="line"/>
      <point x="168.73208391152502" y="1456.0" type="line"/>
      <point x="260.732083911525" y="1456.0" type="line"/>
      <point x="113.32272803924829" y="620.0" type="line"/>
      <point x="252.16286036753695" y="914.0" type="line"/>
      <point x="347.16286036753695" y="914.0" type="line"/>
      <point x="68.88832890071512" y="368.0" type="line"/>
      <point x="4.0" y="0.0" type="line"/>
    </contour>
    <contour>
      <point x="106.0" y="0.0" type="line"/>
      <point x="109.98228071761184" y="533.0" type="line"/>
      <point x="185.55213424829537" y="661.0" type="line"/>
      <point x="200.0" y="0.0" type="line"/>
    </contour>
  </outline>
</glyph>
<glyph name="l" format="2">
  <advance width="175"/>
  <unicode hex="006C"/>
  <outline>
    <contour>
      <point x="-86.0" y="0.0" type="line"/>
      <point x="170.73208391152502" y="1456.0" type="line"/>
      <point x="261.732083911525" y="1456.0" type="line"/>
      <point x="5.0" y="0.0" type="line"/>
    </contour>
  </outline>
</glyph>
<glyph name="m" format="2">
  <advance width="551"/>
  <unicode hex="006D"/>
  <anchor x="275.5" y="0" name="bottom"/>
  <anchor x="275.5" y="914" name="top"/>
  <outline>
    <contour>
      <point x="-88.0" y="0.0" type="line"/>
      <point x="73.16286036753698" y="914.0" type="line"/>
      <point x="160.16286036753695" y="914.0" type="line"/>
      <point x="151.34651133211378" y="864.0" type="line"/>
      <point x="152.34651133211378" y="864.0" type="line"/>
      <point x="173.63632075336773" y="894.0"/>
      <point x="231.92613017462168" y="924.0"/>
      <point x="262.9261301746217" y="924.0" type="qcurve" smooth="yes"/>
      <point x="291.9261301746217" y="924.0"/>
      <point x="328.81264773407617" y="895.0"/>
      <point x="335.1701843514053" y="863.0" type="qcurve"/>
      <point x="336.1701843514053" y="863.0" type="line"/>
      <point x="359.6363207533677" y="894.0"/>
      <point x="418.9261301746217" y="924.0"/>
      <point x="449.9261301746217" y="924.0" type="qcurve" smooth="yes"/>
      <point x="496.9261301746217" y="924.0"/>
      <point x="536.2885494478629" y="858.0"/>
      <point x="523.2403528754365" y="784.0" type="qcurve" smooth="yes"/>
      <point x="385.0" y="0.0" type="line"/>
      <point x="294.0" y="0.0" type="line"/>
      <point x="426.2452355313487" y="750.0" type="line" smooth="yes"/>
      <point x="435.94321947031426" y="805.0"/>
      <point x="414.88037493015133" y="833.0"/>
      <point x="394.88037493015133" y="833.0" type="qcurve" smooth="yes"/>
      <point x="373.88037493015133" y="833.0"/>
      <point x="341.64852739314813" y="809.0"/>
      <point x="332.41667985614504" y="785.0" type="qcurve"/>
      <point x="194.0" y="0.0" type="line"/>
      <point x="103.0" y="0.0" type="line"/>
      <point x="235.24523553134873" y="750.0" type="line" smooth="yes"/>
      <point x="244.94321947031432" y="805.0"/>
      <point x="223.88037493015133" y="833.0"/>
      <point x="203.88037493015133" y="833.0" type="qcurve" smooth="yes"/>
      <point x="182.88037493015133" y="833.0"/>
      <point x="150.64852739314813" y="809.0"/>
      <point x="141.41667985614504" y="785.0" type="qcurve"/>
      <point x="3.0" y="0.0" type="line"/>
    </contour>
  </outline>
</glyph>
<glyph name="n" format="2">
  <advance width="360"/>
  <unicode hex="006E"/>
  <anchor x="180.0" y="0" name="bottom"/>
  <anchor x="180.0" y="914" name="top"/>
  <outline>
    <contour>
      <point x="-88.0" y="0.0" type="line"/>
      <point x="73.16286036753698" y="914.0" type="line"/>
      <point x="160.16286036753695" y="914.0" type="line"/>
      <point x="151.34651133211378" y="864.0" type="line"/>
      <point x="152.34651133211378" y="864.0" type="line"/>
      <point x="173.63632075336773" y="894.0"/>
      <point x="231.92613017462168" y="924.0"/>
      <point x="262.9261301746217" y="924.0" type="qcurve" smooth="yes"/>
      <point x="305.9261301746217" y="924.0"/>
      <point x="345.2885494478629" y="858.0"/>
      <point x="332.24035287543654" y="784.0" type="qcurve" smooth="yes"/>
      <point x="194.0" y="0.0" type="line"/>
      <point x="103.0" y="0.0" type="line"/>
      <point x="235.24523553134873" y="750.0" type="line" smooth="yes"/>
      <point x="244.94321947031432" y="805.0"/>
      <point x="223.88037493015133" y="833.0"/>
      <point x="203.88037493015133" y="833.0" type="qcurve" smooth="yes"/>
      <point x="182.88037493015133" y="833.0"/>
      <point x="150.64852739314813" y="809.0"/>
      <point x="141.41667985614504" y="785.0" type="qcurve"/>
      <point x="3.0" y="0.0" type="line"/>
    </contour>
  </outline>
</glyph>
<glyph name="o" format="2">
  <advance width="350"/>
  <unicode hex="006F"/>
  <outline>
    <contour>
      <point x="-62.90604818310328" y="165.0" type="qcurve" smooth="yes"/>
      <point x="39.716254589223325" y="747.0" type="line" smooth="yes"/>
      <point x="54.70404794944287" y="832.0"/>
      <point x="143.74980319391318" y="923.0"/>
      <point x="208.74980319391318" y="923.0" type="qcurve" smooth="yes"/>
      <point x="274.7498031939132" y="923.0"/>
      <point x="332.70404794944284" y="832.0"/>
      <point x="317.71625458922335" y="747.0" type="qcurve" smooth="yes"/>
      <point x="215.09395181689672" y="165.0" type="line" smooth="yes"/>
      <point x="200.28248543738567" y="81.0"/>
      <point x="110.41305717362383" y="-9.0"/>
      <point x="44.41305717362383" y="-9.0" type="qcurve" smooth="yes"/>
      <point x="-20.586942826376188" y="-9.0"/>
      <point x="-77.71751456261434" y="81.0"/>
    </contour>
    <contour>
      <point x="131.65829270497255" y="741.0" type="qcurve" smooth="yes"/>
      <point x="30.270278797605187" y="166.0" type="line" smooth="yes"/>
      <point x="19.866986935805755" y="107.0"/>
      <point x="40.282485437385674" y="81.0"/>
      <point x="61.282485437385674" y="81.0" type="qcurve" smooth="yes"/>
      <point x="82.28248543738567" y="81.0"/>
      <point x="111.86698693580576" y="107.0"/>
      <point x="122.27027879760519" y="166.0" type="qcurve" smooth="yes"/>
      <point x="223.65829270497255" y="741.0" type="line" smooth="yes"/>
      <point x="234.59056550889738" y="803.0"/>
      <point x="216.5277209687344" y="831.0"/>
      <point x="193.5277209687344" y="831.0" type="qcurve" smooth="yes"/>
      <point x="170.5277209687344" y="831.0"/>
      <point x="142.59056550889738" y="803.0"/>
    </contour>
  </outline>
</glyph>
<glyph name="p" format="2">
  <advance width="360"/>
  <unicode hex="0070"/>
  <anchor x="180.0" y="0" name="bottom"/>
  <anchor x="180.0" y="914" name="top"/>
  <outline>
    <contour>
      <point x="-160.35202397472142" y="-416.0" type="line"/>
      <point x="74.16286036753698" y="914.0" type="line"/>
      <point x="161.16286036753695" y="914.0" type="line"/>
      <point x="150.58324152502905" y="854.0" type="line"/>
      <point x="151.58324152502905" y="854.0" type="line"/>
      <point x="161.99141604274075" y="879.0"/>
      <point x="214.74980319391318" y="923.0"/>
      <point x="252.74980319391318" y="923.0" type="qcurve" smooth="yes"/>
      <point x="304.7498031939132" y="923.0"/>
      <point x="344.81997171794444" y="844.0"/>
      <point x="329.3031974155995" y="756.0" type="qcurve" smooth="yes"/>
      <point x="224.7412978554798" y="163.0" type="line" smooth="yes"/>
      <point x="211.16412034092798" y="86.0"/>
      <point x="142.58938415433227" y="-8.0"/>
      <point x="91.5893841543323" y="-8.0" type="qcurve" smooth="yes"/>
      <point x="61.58938415433229" y="-8.0"/>
      <point x="19.99755867204391" y="17.0"/>
      <point x="11.229406209047056" y="41.0" type="qcurve"/>
      <point x="-69.35202397472143" y="-416.0" type="line"/>
    </contour>
    <contour>
      <point x="26.393526549975064" y="127.0" type="line"/>
      <point x="27.51433297438882" y="105.0"/>
      <point x="45.811466379511046" y="84.0"/>
      <point x="66.81146637951105" y="84.0" type="qcurve" smooth="yes"/>
      <point x="87.81146637951105" y="84.0"/>
      <point x="125.33556466572426" y="121.0"/>
      <point x="134.32824068185596" y="172.0" type="qcurve" smooth="yes"/>
      <point x="233.07134987859638" y="732.0" type="line" smooth="yes"/>
      <point x="244.17994966322965" y="795.0"/>
      <point x="225.17506700731747" y="829.0"/>
      <point x="201.17506700731747" y="829.0" type="qcurve" smooth="yes"/>
      <point x="184.17506700731747" y="829.0"/>
      <point x="150.94321947031432" y="805.0"/>
      <point x="140.65341004906037" y="775.0" type="qcurve"/>
    </contour>
  </outline>
</glyph>
<glyph name="r" format="2">
  <advance width="264"/>
  <unicode hex="0072"/>
  <anchor x="132.0" y="0" name="bottom"/>
  <anchor x="151.0" y="914" name="top"/>
  <outline>
    <contour>
      <point x="-88.0" y="0.0" type="line"/>
      <point x="73.16286036753698" y="914.0" type="line"/>
      <point x="159.16286036753695" y="914.0" type="line"/>
      <point x="148.58324152502905" y="854.0" type="line"/>
      <point x="149.58324152502905" y="854.0" type="line"/>
      <point x="167.28366679195074" y="892.0"/>
      <point x="214.92613017462168" y="924.0"/>
      <point x="244.92613017462168" y="924.0" type="qcurve" smooth="yes"/>
      <point x="259.9261301746217" y="924.0"/>
      <point x="290.0444952710793" y="919.0"/>
      <point x="297.33918734824545" y="915.0" type="qcurve"/>
      <point x="278.5881241809413" y="820.0" type="line"/>
      <point x="269.11710512306666" y="823.0"/>
      <point x="247.82241304590053" y="827.0"/>
      <point x="229.82241304590053" y="827.0" type="qcurve" smooth="yes"/>
      <point x="203.82241304590053" y="827.0"/>
      <point x="153.8876989140196" y="782.0"/>
      <point x="132.24767685930482" y="733.0" type="qcurve"/>
      <point x="3.0" y="0.0" type="line"/>
    </contour>
  </outline>
</glyph>
<glyph name="s" format="2">
  <advance width="294"/>
  <unicode hex="0073"/>
  <anchor x="147.0" y="0" name="bottom"/>
  <anchor x="147.0" y="914" name="top"/>
  <outline>
    <contour>
      <point x="-59.39415653667055" y="287.0" type="line"/>
      <point x="30.60584346332945" y="287.0" type="line"/>
      <point x="11.915183508232161" y="181.0" type="line" smooth="yes"/>
      <point x="0.10127580076499498" y="114.0"/>
      <point x="17.106158456677207" y="80.0"/>
      <point x="32.10615845667721" y="80.0" type="qcurve" smooth="yes"/>
      <point x="52.10615845667721" y="80.0"/>
      <point x="76.27760278147346" y="115.0"/>
      <point x="96.02622462082155" y="227.0" type="qcurve" smooth="yes"/>
      <point x="110.30871005820723" y="308.0"/>
      <point x="85.4148685148844" y="388.0"/>
      <point x="59.583871511724595" y="440.0" type="qcurve" smooth="yes"/>
      <point x="29.987163373524027" y="499.0"/>
      <point x="-0.027484594212552338" y="601.0"/>
      <point x="18.48684838017627" y="706.0" type="qcurve" smooth="yes"/>
      <point x="40.5277209687344" y="831.0"/>
      <point x="127.74980319391318" y="923.0"/>
      <point x="180.74980319391318" y="923.0" type="qcurve" smooth="yes"/>
      <point x="240.74980319391318" y="923.0"/>
      <point x="292.99629869865294" y="845.0"/>
      <point x="278.7138132612672" y="764.0" type="qcurve" smooth="yes"/>
      <point x="257.20192161483453" y="642.0" type="line"/>
      <point x="167.20192161483453" y="642.0" type="line"/>
      <point x="185.8925815699318" y="748.0" type="line" smooth="yes"/>
      <point x="196.59056550889738" y="803.0"/>
      <point x="181.70404794944284" y="832.0"/>
      <point x="165.70404794944284" y="832.0" type="qcurve" smooth="yes"/>
      <point x="149.70404794944284" y="832.0"/>
      <point x="129.4142385281889" y="802.0"/>
      <point x="112.48684838017627" y="706.0" type="qcurve" smooth="yes"/>
      <point x="100.14395973058373" y="636.0"/>
      <point x="107.80107108099116" y="566.0"/>
      <point x="135.8083950648595" y="515.0" type="qcurve" smooth="yes"/>
      <point x="165.46306508731084" y="462.0"/>
      <point x="209.89077022867122" y="351.0"/>
      <point x="189.78949442790622" y="237.0" type="qcurve" smooth="yes"/>
      <point x="163.5167743023449" y="88.0"/>
      <point x="78.23673019291536" y="-10.0"/>
      <point x="16.23673019291536" y="-10.0" type="qcurve" smooth="yes"/>
      <point x="-45.763269807084654" y="-10.0"/>
      <point x="-96.59914946615666" y="76.0"/>
      <point x="-81.08237516381175" y="164.0" type="qcurve" smooth="yes"/>
    </contour>
  </outline>
</glyph>
<glyph name="t" format="2">
  <advance width="230"/>
  <unicode hex="0074"/>
  <outline>
    <contour>
      <point x="11.293432103775132" y="824.0" type="line"/>
      <point x="27.16286036753698" y="914.0" type="line"/>
      <point x="258.16286036753695" y="914.0" type="line"/>
      <point x="242.2934321037751" y="824.0" type="line"/>
    </contour>
    <contour>
      <point x="-55.60891477798104" y="144.0" type="qcurve" smooth="yes"/>
      <point x="72.75712717778146" y="872.0" type="line"/>
      <point x="74.69672396557456" y="883.0" type="line"/>
      <point x="120.365411969067" y="1142.0" type="line"/>
      <point x="212.365411969067" y="1142.0" type="line"/>
      <point x="40.27027879760519" y="166.0" type="line" smooth="yes"/>
      <point x="31.277602781473462" y="115.0"/>
      <point x="56.282485437385674" y="81.0"/>
      <point x="79.28248543738567" y="81.0" type="qcurve" smooth="yes"/>
      <point x="93.28248543738567" y="81.0"/>
      <point x="112.16412034092798" y="86.0"/>
      <point x="119.86942826376185" y="90.0" type="qcurve"/>
      <point x="106.17632698070847" y="1.0" type="line"/>
      <point x="94.11836509645767" y="-5.0"/>
      <point x="61.41305717362383" y="-9.0"/>
      <point x="37.41305717362383" y="-9.0" type="qcurve" smooth="yes"/>
      <point x="-18.586942826376188" y="-9.0"/>
      <point x="-68.83343833111591" y="69.0"/>
    </contour>
  </outline>
</glyph>
<glyph name="v" format="2">
  <advance width="315"/>
  <unicode hex="0076"/>
  <outline>
    <contour>
      <point x="38.16286036753698" y="914.0" type="line"/>
      <point x="130.16286036753695" y="914.0" type="line"/>
      <point x="85.24586551804424" y="336.0" type="line" smooth="yes"/>
      <point x="84.30626873025113" y="325.0"/>
      <point x="81.19278628970562" y="296.0"/>
      <point x="80.25318950191252" y="285.0" type="qcurve"/>
      <point x="84.25318950191252" y="285.0" type="line"/>
      <point x="87.19278628970562" y="296.0"/>
      <point x="95.30626873025113" y="325.0"/>
      <point x="98.24586551804424" y="336.0" type="qcurve" smooth="yes"/>
      <point x="252.16286036753695" y="914.0" type="line"/>
      <point x="343.16286036753695" y="914.0" type="line"/>
      <point x="72.0" y="0.0" type="line"/>
      <point x="-13.0" y="0.0" type="line"/>
    </contour>
  </outline>
</glyph>
<glyph name="w" format="2">
  <advance width="516"/>
  <unicode hex="0077"/>
  <outline>
    <contour>
      <point x="38.16286036753698" y="914.0" type="line"/>
      <point x="129.16286036753695" y="914.0" type="line"/>
      <point x="75.07197986529187" y="318.0" type="line" smooth="yes"/>
      <point x="73.95605609679029" y="306.0"/>
      <point x="72.72176723183102" y="299.0"/>
      <point x="72.01645930899718" y="295.0" type="qcurve"/>
      <point x="76.01645930899718" y="295.0" type="line"/>
      <point x="76.72176723183102" y="299.0"/>
      <point x="77.95605609679029" y="306.0"/>
      <point x="81.07197986529187" y="318.0" type="qcurve" smooth="yes"/>
      <point x="246.16286036753695" y="914.0" type="line"/>
      <point x="331.16286036753695" y="914.0" type="line"/>
      <point x="288.24830684600033" y="319.0" type="line" smooth="yes"/>
      <point x="286.9560560967903" y="306.0"/>
      <point x="285.72176723183105" y="299.0"/>
      <point x="285.0164593089972" y="295.0" type="qcurve"/>
      <point x="289.0164593089972" y="295.0" type="line"/>
      <point x="289.72176723183105" y="299.0"/>
      <point x="290.9560560967903" y="306.0"/>
      <point x="294.24830684600033" y="319.0" type="qcurve" smooth="yes"/>
      <point x="458.16286036753695" y="914.0" type="line"/>
      <point x="544.162860367537" y="914.0" type="line"/>
      <point x="270.0" y="0.0" type="line"/>
      <point x="192.0" y="0.0" type="line"/>
      <point x="241.08599784633293" y="630.0" type="line" smooth="yes"/>
      <point x="241.43865180774986" y="632.0"/>
      <point x="246.07867386246465" y="681.0"/>
      <point x="246.4313278238816" y="683.0" type="qcurve"/>
      <point x="242.4313278238816" y="683.0" type="line"/>
      <point x="242.07867386246465" y="681.0"/>
      <point x="228.43865180774986" y="632.0"/>
      <point x="228.08599784633293" y="630.0" type="qcurve" smooth="yes"/>
      <point x="61.0" y="0.0" type="line"/>
      <point x="-17.0" y="0.0" type="line"/>
    </contour>
  </outline>
</glyph>
<glyph name="x" format="2">
  <advance width="329"/>
  <unicode hex="0078"/>
  <outline>
    <contour>
      <point x="-128.0" y="0.0" type="line"/>
      <point x="98.80595373690335" y="532.0" type="line"/>
      <point x="127.85903296524197" y="572.0" type="line"/>
      <point x="264.16286036753695" y="914.0" type="line"/>
      <point x="360.16286036753695" y="914.0" type="line"/>
      <point x="136.06221455346747" y="386.0" type="line"/>
      <point x="107.00913532512888" y="346.0" type="line"/>
      <point x="-29.0" y="0.0" type="line"/>
    </contour>
    <contour>
      <point x="33.16286036753698" y="914.0" type="line"/>
      <point x="127.16286036753698" y="914.0" type="line"/>
      <point x="153.86147429319806" y="555.0" type="line"/>
      <point x="157.7479918526526" y="526.0" type="line"/>
      <point x="201.0" y="0.0" type="line"/>
      <point x="106.0" y="0.0" type="line"/>
      <point x="78.94873211292199" y="357.0" type="line"/>
      <point x="75.5332336113421" y="383.0" type="line"/>
    </contour>
  </outline>
</glyph>
<glyph name="y" format="2">
  <advance width="315"/>
  <unicode hex="0079"/>
  <outline>
    <contour>
      <point x="-264.76508114834525" y="-407.0" type="qcurve"/>
      <point x="-248.366671942458" y="-314.0" type="line"/>
      <point x="-237.4246338267088" y="-320.0"/>
      <point x="-217.30626873025113" y="-325.0"/>
      <point x="-201.30626873025113" y="-325.0" type="qcurve" smooth="yes"/>
      <point x="-149.30626873025113" y="-325.0"/>
      <point x="-77.7919357558623" y="-220.0"/>
      <point x="-10.002441327956092" y="17.0" type="qcurve" smooth="yes"/>
      <point x="-7.415498501579904" y="26.0" type="line"/>
      <point x="38.16286036753698" y="914.0" type="line"/>
      <point x="130.16286036753695" y="914.0" type="line"/>
      <point x="83.41975117079659" y="354.0" type="line" smooth="yes"/>
      <point x="82.65648136371195" y="344.0"/>
      <point x="79.30871005820723" y="308.0"/>
      <point x="78.01645930899718" y="295.0" type="qcurve"/>
      <point x="82.01645930899718" y="295.0" type="line"/>
      <point x="85.30871005820723" y="308.0"/>
      <point x="95.48015438300348" y="343.0"/>
      <point x="98.24342419008815" y="353.0" type="qcurve" smooth="yes"/>
      <point x="253.16286036753695" y="914.0" type="line"/>
      <point x="342.16286036753695" y="914.0" type="line"/>
      <point x="27.43258779727259" y="-145.0" type="line" smooth="yes"/>
      <point x="-17.192786289705623" y="-296.0"/>
      <point x="-139.52835095542991" y="-417.0"/>
      <point x="-202.52835095542991" y="-417.0" type="qcurve" smooth="yes"/>
      <point x="-221.52835095542991" y="-417.0"/>
      <point x="-247.82304303259605" y="-413.0"/>
    </contour>
  </outline>
</glyph>
<glyph name="z" format="2">
  <advance width="253"/>
  <unicode hex="007A"/>
  <outline>
    <contour>
      <point x="-118.0" y="0.0" type="line"/>
      <point x="-103.01220663978047" y="85.0" type="line"/>
      <point x="164.5881241809413" y="820.0" type="line"/>
      <point x="35.58812418094129" y="820.0" type="line"/>
      <point x="52.16286036753698" y="914.0" type="line"/>
      <point x="276.16286036753695" y="914.0" type="line"/>
      <point x="261.17506700731747" y="829.0" type="line"/>
      <point x="-6.425263813404285" y="94.0" type="line"/>
      <point x="129.57473618659571" y="94.0" type="line"/>
      <point x="113.0" y="0.0" type="line"/>
    </contour>
  </outline>
</glyph>
<glyph name="braceleft" format="2">
  <advance width="277"/>
  <unicode hex="007B"/>
  <outline>
    <contour>
      <point x="85.98598201895894" y="-312.0" type="line"/>
      <point x="-60.014017981041064" y="-312.0"/>
      <point x="-120.0481965724264" y="-74.0"/>
      <point x="-44.369743257109604" y="117.0" type="qcurve" smooth="yes"/>
      <point x="35.01157665308497" y="329.0" type="line" smooth="yes"/>
      <point x="82.0524492416431" y="454.0"/>
      <point x="16.15860769832028" y="534.0"/>
      <point x="-35.841392301679704" y="534.0" type="qcurve"/>
      <point x="-21.73523384500251" y="614.0" type="line"/>
      <point x="30.26476615499749" y="614.0"/>
      <point x="124.3709246116747" y="694.0"/>
      <point x="121.41179720023283" y="819.0" type="qcurve" smooth="yes"/>
      <point x="116.7931171104274" y="1031.0" type="line" smooth="yes"/>
      <point x="108.4715704257442" y="1222.0"/>
      <point x="252.4373918343589" y="1460.0"/>
      <point x="398.4373918343589" y="1460.0" type="qcurve"/>
      <point x="384.33123337768166" y="1380.0" type="line"/>
      <point x="295.33123337768166" y="1380.0"/>
      <point x="211.18176100449023" y="1192.0"/>
      <point x="214.91148220688507" y="1026.0" type="qcurve" smooth="yes"/>
      <point x="219.5301622966905" y="814.0" type="line" smooth="yes"/>
      <point x="221.71869591717945" y="730.0"/>
      <point x="154.14884238649591" y="602.0"/>
      <point x="80.2116869266589" y="574.0" type="qcurve"/>
      <point x="144.27453146682188" y="546.0"/>
      <point x="166.70467793613835" y="418.0"/>
      <point x="134.8932115566273" y="334.0" type="qcurve" smooth="yes"/>
      <point x="55.51189164643273" y="122.0" type="line" smooth="yes"/>
      <point x="-6.758387151172457" y="-44.0"/>
      <point x="11.092140475636143" y="-232.0"/>
      <point x="100.09214047563614" y="-232.0" type="qcurve"/>
    </contour>
  </outline>
</glyph>
<glyph name="braceright" format="2">
  <advance width="221"/>
  <unicode hex="007D"/>
  <outline>
    <contour>
      <point x="-144.525" y="-312.175" type="qcurve"/>
      <point x="-139.975" y="-262.15" type="line"/>
      <point x="-87.35" y="-262.15"/>
      <point x="-14.474999999999994" y="-54.89999999999999"/>
      <point x="-9.349999999999994" y="125.425" type="qcurve" smooth="yes"/>
      <point x="-5.2749999999999915" y="335.475" type="line" smooth="yes"/>
      <point x="-1.375" y="439.275"/>
      <point x="64.125" y="554.55"/>
      <point x="116.225" y="573.0" type="qcurve"/>
      <point x="71.47500000000001" y="588.15"/>
      <point x="42.900000000000006" y="710.85"/>
      <point x="69.65" y="815.475" type="qcurve" smooth="yes"/>
      <point x="124.075" y="1020.4" type="line" smooth="yes"/>
      <point x="169.375" y="1201.725"/>
      <point x="164.575" y="1402.375"/>
      <point x="112.775" y="1407.325" type="qcurve"/>
      <point x="118.15" y="1458.175" type="line"/>
      <point x="220.52500000000003" y="1455.325"/>
      <point x="239.90000000000003" y="1225.575"/>
      <point x="190.0" y="1033.05" type="qcurve" smooth="yes"/>
      <point x="133.925" y="821.075" type="line" smooth="yes"/>
      <point x="104.70000000000005" y="707.9"/>
      <point x="148.25" y="600.675"/>
      <point x="193.875" y="600.675" type="qcurve"/>
      <point x="184.72500000000002" y="545.15" type="line"/>
      <point x="144.22500000000002" y="545.15"/>
      <point x="64.30000000000001" y="437.925"/>
      <point x="58.825000000000045" y="324.925" type="qcurve" smooth="yes"/>
      <point x="54.75" y="112.775" type="line" smooth="yes"/>
      <point x="52.775000000000034" y="-78.7"/>
      <point x="-42.974999999999994" y="-313.225"/>
    </contour>
  </outline>
</glyph>
<glyph name="asciitilde" format="2">
  <advance width="366"/>
  <unicode hex="007E"/>
  <outline>
    <contour>
      <point x="34.39999999999999" y="630.675" type="qcurve"/>
      <point x="49.15" y="708.8" type="line"/>
      <point x="61.975" y="727.2"/>
      <point x="100.45" y="751.325"/>
      <point x="120.15" y="750.975" type="qcurve" smooth="yes"/>
      <point x="137.4" y="750.8"/>
      <point x="168.175" y="740.775"/>
      <point x="187.0" y="730.75" type="qcurve" smooth="yes"/>
      <point x="206.35000000000002" y="720.725"/>
      <point x="230.77500000000003" y="709.825"/>
      <point x="242.20000000000005" y="709.65" type="qcurve" smooth="yes"/>
      <point x="259.27500000000003" y="709.475"/>
      <point x="289.875" y="728.25"/>
      <point x="304.1" y="746.775" type="qcurve"/>
      <point x="289.3" y="660.825" type="line"/>
      <point x="277.1" y="644.675"/>
      <point x="244.72500000000002" y="625.95"/>
      <point x="227.325" y="626.3" type="qcurve" smooth="yes"/>
      <point x="215.025" y="626.4749999999999"/>
      <point x="180.97500000000002" y="636.8499999999999"/>
      <point x="160.525" y="647.575" type="qcurve" smooth="yes"/>
      <point x="144.175" y="655.9"/>
      <point x="117.975" y="666.225"/>
      <point x="102.475" y="666.4" type="qcurve" smooth="yes"/>
      <point x="81.2" y="666.575"/>
      <point x="51.125" y="647.05"/>
    </contour>
  </outline>
</glyph>
<glyph name="exclamdown" format="2">
  <advance width="258"/>
  <unicode hex="00A1"/>
  <outline>
    <contour>
      <point x="267.1988503001829" y="1073.0" type="qcurve" smooth="yes"/>
      <point x="261.0274059753866" y="1038.0"/>
      <point x="212.7400378820888" y="991.0"/>
      <point x="175.7400378820888" y="991.0" type="qcurve" smooth="yes"/>
      <point x="138.7400378820888" y="991.0"/>
      <point x="107.02740597538664" y="1038.0"/>
      <point x="113.19885030018293" y="1073.0" type="qcurve" smooth="yes"/>
      <point x="119.54662160568765" y="1109.0"/>
      <point x="167.83398969898553" y="1156.0"/>
      <point x="204.83398969898553" y="1156.0" type="qcurve" smooth="yes"/>
      <point x="241.83398969898553" y="1156.0"/>
      <point x="273.3702946249792" y="1108.0"/>
    </contour>
    <contour>
      <point x="183.8297370297688" y="776.0" type="line"/>
      <point x="-2.9560560967902916" y="-306.0" type="line"/>
      <point x="-103.95605609679029" y="-306.0" type="line"/>
      <point x="91.82973702976881" y="776.0" type="line"/>
    </contour>
  </outline>
</glyph>
<glyph name="cent" format="2">
  <advance width="326"/>
  <unicode hex="00A2"/>
  <outline>
    <contour>
      <point x="98.14458971727922" y="222.0" type="qcurve" smooth="yes"/>
      <point x="119.14458971727922" y="222.0"/>
      <point x="156.89077022867122" y="351.0"/>
      <point x="187.5716648719441" y="525.0" type="qcurve"/>
      <point x="278.5716648719441" y="525.0" type="line"/>
      <point x="238.72176723183105" y="299.0"/>
      <point x="155.92250749210046" y="130.0"/>
      <point x="83.92250749210044" y="130.0" type="qcurve" smooth="yes"/>
      <point x="24.922507492100436" y="130.0"/>
      <point x="-29.857851610676875" y="239.0"/>
      <point x="-10.99086467487112" y="346.0" type="qcurve" smooth="yes"/>
      <point x="111.38005993680358" y="1040.0" type="line" smooth="yes"/>
      <point x="129.54173894977544" y="1143.0"/>
      <point x="218.76137984699812" y="1252.0"/>
      <point x="281.7613798469981" y="1252.0" type="qcurve" smooth="yes"/>
      <point x="358.7613798469981" y="1252.0"/>
      <point x="380.8413136828538" y="1105.0"/>
      <point x="338.87549227423915" y="867.0" type="qcurve"/>
      <point x="247.87549227423915" y="867.0" type="line"/>
      <point x="279.9670027631797" y="1049.0"/>
      <point x="285.71562460252784" y="1161.0"/>
      <point x="263.71562460252784" y="1161.0" type="qcurve" smooth="yes"/>
      <point x="247.71562460252784" y="1161.0"/>
      <point x="216.37029462497918" y="1108.0"/>
      <point x="204.3800599368036" y="1040.0" type="qcurve" smooth="yes"/>
      <point x="82.00913532512888" y="346.0" type="line" smooth="yes"/>
      <point x="69.48991969482788" y="275.0"/>
      <point x="81.14458971727922" y="222.0"/>
    </contour>
    <contour>
      <point x="27.0" y="0.0" type="line"/>
      <point x="56.44660577831365" y="167.0" type="line"/>
      <point x="68.91518350823216" y="181.0" type="line"/>
      <point x="161.83950234159317" y="708.0" type="line"/>
      <point x="198.83950234159317" y="708.0" type="line"/>
      <point x="105.7388565275237" y="180.0" type="line"/>
      <point x="113.97558672043905" y="170.0" type="line"/>
      <point x="84.0" y="0.0" type="line"/>
    </contour>
    <contour>
      <point x="161.83950234159317" y="708.0" type="line"/>
      <point x="248.9450308115749" y="1202.0" type="line"/>
      <point x="240.70830061865956" y="1212.0" type="line"/>
      <point x="274.21042695326787" y="1402.0" type="line"/>
      <point x="331.21042695326787" y="1402.0" type="line"/>
      <point x="297.70830061865956" y="1212.0" type="line"/>
      <point x="285.41604986944947" y="1199.0" type="line"/>
      <point x="198.83950234159317" y="708.0" type="line"/>
    </contour>
  </outline>
</glyph>
<glyph name="sterling" format="2">
  <advance width="327"/>
  <unicode hex="00A3"/>
  <outline>
    <contour>
      <point x="193.0" y="0.0" type="line"/>
      <point x="-122.0" y="0.0" type="line"/>
      <point x="-104.71995589057043" y="98.0" type="line"/>
      <point x="-87.71995589057043" y="98.0" type="line" smooth="yes"/>
      <point x="-37.71995589057043" y="98.0"/>
      <point x="37.95849742474638" y="289.0"/>
      <point x="50.344699990853144" y="467.0" type="qcurve" smooth="yes"/>
      <point x="97.30989141277232" y="1119.0" type="line" smooth="yes"/>
      <point x="109.5801702103775" y="1285.0"/>
      <point x="211.2586235256943" y="1476.0"/>
      <point x="290.2586235256943" y="1476.0" type="qcurve" smooth="yes"/>
      <point x="368.2586235256943" y="1476.0"/>
      <point x="417.62836678280394" y="1359.0"/>
      <point x="383.0682785639448" y="1163.0" type="qcurve" smooth="yes"/>
      <point x="369.6674280301014" y="1087.0" type="line"/>
      <point x="270.6674280301014" y="1087.0" type="line"/>
      <point x="284.0682785639448" y="1163.0" type="line" smooth="yes"/>
      <point x="309.63569076667216" y="1308.0"/>
      <point x="299.9785794162647" y="1378.0"/>
      <point x="275.9785794162647" y="1378.0" type="qcurve" smooth="yes"/>
      <point x="250.97857941626472" y="1378.0"/>
      <point x="206.29036078912355" y="1255.0"/>
      <point x="198.83643102694157" y="1139.0" type="qcurve" smooth="yes"/>
      <point x="161.39045523532343" y="558.0" type="line" smooth="yes"/>
      <point x="148.5356749392982" y="366.0"/>
      <point x="80.0988344728089" y="131.0"/>
      <point x="37.338005993680355" y="104.0" type="qcurve"/>
      <point x="211.33800599368038" y="104.0" type="line"/>
    </contour>
    <contour>
      <point x="251.02071197821385" y="675.0" type="line"/>
      <point x="10.020711978213853" y="675.0" type="line"/>
      <point x="27.300756087643435" y="773.0" type="line"/>
      <point x="268.30075608764344" y="773.0" type="line"/>
    </contour>
  </outline>
</glyph>
<glyph name="currency" format="2">
  <advance width="480"/>
  <unicode hex="00A4"/>
  <guideline x="24.62729206685468" y="901.0" angle="0.0" identifier="bRYxxRaQQf"/>
  <guideline x="-23.999836740172753" y="555.0" angle="0.0" identifier="917FhrihjR"/>
  <outline>
    <contour>
      <point x="163.62723764691225" y="716.0" type="qcurve"/>
      <point x="142.26503077214875" y="564.0"/>
      <point x="158.01093641792113" y="427.0"/>
      <point x="196.01093641792113" y="427.0" type="qcurve" smooth="yes"/>
      <point x="233.01093641792113" y="427.0"/>
      <point x="285.26503077214875" y="564.0"/>
      <point x="306.62723764691225" y="716.0" type="qcurve" smooth="yes"/>
      <point x="327.98944452167575" y="868.0"/>
      <point x="314.102998041201" y="1004.0"/>
      <point x="277.102998041201" y="1004.0" type="qcurve" smooth="yes"/>
      <point x="239.10299804120098" y="1004.0"/>
      <point x="184.98944452167575" y="868.0"/>
    </contour>
    <contour>
      <point x="68.32994182042421" y="721.0" type="qcurve"/>
      <point x="96.7191904303073" y="923.0"/>
      <point x="196.15708151144014" y="1104.0"/>
      <point x="290.15708151144014" y="1104.0" type="qcurve" smooth="yes"/>
      <point x="383.15708151144014" y="1104.0"/>
      <point x="431.7191904303073" y="923.0"/>
      <point x="403.3299418204242" y="721.0" type="qcurve" smooth="yes"/>
      <point x="374.0974482023268" y="513.0"/>
      <point x="273.956852947682" y="327.0"/>
      <point x="180.95685294768202" y="327.0" type="qcurve" smooth="yes"/>
      <point x="86.956852947682" y="327.0"/>
      <point x="39.0974482023268" y="513.0"/>
    </contour>
    <contour>
      <point x="476.4705914950114" y="1092.0" type="line"/>
      <point x="369.1840688266173" y="969.0" type="line"/>
      <point x="307.72463142929666" y="1044.0" type="line"/>
      <point x="416.0111540976908" y="1167.0" type="line"/>
    </contour>
    <contour>
      <point x="146.90282389738528" y="412.0" type="line"/>
      <point x="44.05413789018155" y="285.0" type="line"/>
      <point x="-16.545840341841483" y="359.0" type="line"/>
      <point x="86.16230483065982" y="485.0" type="line"/>
    </contour>
    <contour>
      <point x="310.8973828983959" y="291.0" type="line"/>
      <point x="238.90282389738525" y="412.0" type="line"/>
      <point x="321.3028456653622" y="486.0" type="line"/>
      <point x="394.43794550107526" y="366.0" type="line"/>
    </contour>
    <contour>
      <point x="171.32460966131964" y="970.0" type="line"/>
      <point x="100.01654067673775" y="1103.0" type="line"/>
      <point x="181.27602161001232" y="1176.0" type="line"/>
      <point x="252.58409059459427" y="1043.0" type="line"/>
    </contour>
  </outline>
</glyph>
<glyph name="yen" format="2">
  <advance width="328"/>
  <unicode hex="00A5"/>
  <outline>
    <contour>
      <point x="-28.794493697079744" y="343.0" type="line"/>
      <point x="-15.162032730947772" y="440.0" type="line"/>
      <point x="272.8379672690522" y="440.0" type="line"/>
      <point x="259.20550630292024" y="343.0" type="line"/>
    </contour>
    <contour>
      <point x="7.465041656137245" y="601.0" type="line"/>
      <point x="21.097502622269218" y="698.0" type="line"/>
      <point x="107.09750262226922" y="698.0" type="line"/>
      <point x="107.448827499054" y="608.0" type="line"/>
      <point x="198.448827499054" y="608.0" type="line"/>
      <point x="220.0975026222692" y="698.0" type="line"/>
      <point x="309.0975026222692" y="698.0" type="line"/>
      <point x="295.46504165613726" y="601.0" type="line"/>
    </contour>
    <contour>
      <point x="17.0" y="0.0" type="line"/>
      <point x="94.0163774169105" y="548.0" type="line"/>
      <point x="106.62745532668191" y="1456.0" type="line"/>
      <point x="203.6274553266819" y="1456.0" type="line"/>
      <point x="167.74617774548443" y="788.0" type="line" smooth="yes"/>
      <point x="165.96778936560315" y="754.0"/>
      <point x="161.08128846518593" y="705.0"/>
      <point x="155.88127758119748" y="668.0" type="qcurve"/>
      <point x="163.88127758119748" y="668.0" type="line"/>
      <point x="173.7515643245314" y="724.0"/>
      <point x="180.10833020030555" y="755.0"/>
      <point x="187.74617774548443" y="788.0" type="qcurve" smooth="yes"/>
      <point x="335.6274553266819" y="1456.0" type="line"/>
      <point x="426.6274553266819" y="1456.0" type="line"/>
      <point x="194.01637741691047" y="548.0" type="line"/>
      <point x="117.0" y="0.0" type="line"/>
    </contour>
  </outline>
</glyph>
<glyph name="brokenbar" format="2">
  <advance width="222"/>
  <unicode hex="00A6"/>
  <guideline x="30.870609618326938" y="901" angle="0" identifier="jmguX8NWKI"/>
  <guideline x="-30.138525706801943" y="555" angle="0" identifier="Z0RZpP7MTi"/>
  <outline>
    <contour>
      <point x="-43.35202397472143" y="-416.0" type="line"/>
      <point x="-137.35202397472142" y="-416.0" type="line"/>
      <point x="-0.6986139256610784" y="359.0" type="line"/>
      <point x="93.30138607433892" y="359.0" type="line"/>
    </contour>
    <contour>
      <point x="300.8382423682022" y="1536.0" type="line"/>
      <point x="164.18483231914183" y="761.0" type="line"/>
      <point x="70.18483231914183" y="761.0" type="line"/>
      <point x="206.8382423682022" y="1536.0" type="line"/>
    </contour>
  </outline>
</glyph>
<glyph name="section" format="2">
  <advance width="442"/>
  <unicode hex="00A7"/>
  <guideline x="164.35013401463493" y="1658" angle="0" identifier="QzZ5gIiCyn"/>
  <guideline x="-26.083005150507248" y="578" angle="0" identifier="9Hxjf2sdFw"/>
  <outline>
    <contour>
      <point x="145.92006616414437" y="147.0" type="qcurve"/>
      <point x="163.72909121569933" y="248.0" type="line"/>
      <point x="205.19522761766171" y="279.0"/>
      <point x="246.00425266921673" y="380.0"/>
      <point x="262.40266187510395" y="473.0" type="qcurve" smooth="yes"/>
      <point x="281.62230277232663" y="582.0"/>
      <point x="255.66073403292864" y="724.0"/>
      <point x="207.47708306835193" y="774.0" type="qcurve" smooth="yes"/>
      <point x="141.93833681440208" y="839.0"/>
      <point x="112.85596165059036" y="1003.0"/>
      <point x="140.1866436604024" y="1158.0" type="qcurve" smooth="yes"/>
      <point x="173.8650969757192" y="1349.0"/>
      <point x="264.9035282363213" y="1491.0"/>
      <point x="353.9035282363213" y="1491.0" type="qcurve" smooth="yes"/>
      <point x="446.90352823632134" y="1491.0"/>
      <point x="488.7491732072176" y="1337.0"/>
      <point x="452.24948820056545" y="1130.0" type="qcurve"/>
      <point x="352.24948820056545" y="1130.0" type="line"/>
      <point x="379.5801702103775" y="1285.0"/>
      <point x="374.03409997255943" y="1401.0"/>
      <point x="338.03409997255943" y="1401.0" type="qcurve" smooth="yes"/>
      <point x="305.03409997255943" y="1401.0"/>
      <point x="261.87242095958754" y="1298.0"/>
      <point x="237.71562460252784" y="1161.0" type="qcurve" smooth="yes"/>
      <point x="215.85107899467818" y="1037.0"/>
      <point x="234.81020640612007" y="912.0"/>
      <point x="282.0518192549476" y="868.0" type="qcurve" smooth="yes"/>
      <point x="349.7668924896059" y="804.0"/>
      <point x="387.9700740778313" y="618.0"/>
      <point x="362.9316428172293" y="476.0" type="qcurve" smooth="yes"/>
      <point x="338.06953853733575" y="335.0"/>
      <point x="240.56252954681526" y="179.0"/>
    </contour>
    <contour>
      <point x="205.2257049077" y="886.0" type="qcurve"/>
      <point x="189.35627664393814" y="796.0" type="line"/>
      <point x="162.53748628055877" y="763.0"/>
      <point x="132.54969292033923" y="678.0"/>
      <point x="115.79862975303507" y="583.0" type="qcurve" smooth="yes"/>
      <point x="95.69735395227008" y="469.0"/>
      <point x="112.65892269166804" y="327.0"/>
      <point x="151.72420855978714" y="282.0" type="qcurve" smooth="yes"/>
      <point x="199.20255160153" y="228.0"/>
      <point x="210.6400220547148" y="49.0"/>
      <point x="177.66687666223186" y="-138.0" type="qcurve" smooth="yes"/>
      <point x="140.28555675203728" y="-350.0"/>
      <point x="53.24956681939133" y="-509.0"/>
      <point x="-26.750433180608667" y="-509.0" type="qcurve" smooth="yes"/>
      <point x="-115.75043318060867" y="-509.0"/>
      <point x="-152.24586551804424" y="-336.0"/>
      <point x="-111.51433297438882" y="-105.0" type="qcurve"/>
      <point x="-11.161679012971888" y="-103.0" type="line"/>
      <point x="-42.54788157907865" y="-281.0"/>
      <point x="-41.82304303259603" y="-413.0"/>
      <point x="-9.823043032596033" y="-413.0" type="qcurve" smooth="yes"/>
      <point x="12.176956967403953" y="-413.0"/>
      <point x="49.63088672958591" y="-297.0"/>
      <point x="77.13789572010643" y="-141.0" type="qcurve" smooth="yes"/>
      <point x="104.46857772991851" y="14.0"/>
      <point x="103.80170106768668" y="152.0"/>
      <point x="76.09151048894063" y="182.0" type="qcurve" smooth="yes"/>
      <point x="18.376437254282393" y="246.0"/>
      <point x="-9.474090372526206" y="434.0"/>
      <point x="16.2696488109097" y="580.0" type="qcurve" smooth="yes"/>
      <point x="41.48440705222018" y="723.0"/>
      <point x="122.40691454432061" y="853.0"/>
    </contour>
  </outline>
</glyph>
<glyph name="dieresis" format="2">
  <advance width="500"/>
  <unicode hex="00A8"/>
  <outline>
    <contour>
      <point x="167.4404631490105" y="1029.0" type="qcurve" smooth="yes"/>
      <point x="171.84863766672208" y="1054.0"/>
      <point x="207.8437550108099" y="1088.0"/>
      <point x="236.8437550108099" y="1088.0" type="qcurve" smooth="yes"/>
      <point x="265.8437550108099" y="1088.0"/>
      <point x="288.8486376667221" y="1054.0"/>
      <point x="284.4404631490105" y="1029.0" type="qcurve" smooth="yes"/>
      <point x="280.2086156120073" y="1005.0"/>
      <point x="245.38982524862797" y="972.0"/>
      <point x="216.38982524862797" y="972.0" type="qcurve" smooth="yes"/>
      <point x="187.38982524862797" y="972.0"/>
      <point x="163.2086156120073" y="1005.0"/>
    </contour>
    <contour>
      <point x="322.0878091875935" y="1027.0" type="qcurve" smooth="yes"/>
      <point x="326.49598370530515" y="1052.0"/>
      <point x="361.6674280301014" y="1087.0"/>
      <point x="391.6674280301014" y="1087.0" type="qcurve" smooth="yes"/>
      <point x="420.6674280301014" y="1087.0"/>
      <point x="443.4959837053052" y="1052.0"/>
      <point x="439.0878091875935" y="1027.0" type="qcurve" smooth="yes"/>
      <point x="434.8559616505904" y="1003.0"/>
      <point x="400.0371712872111" y="970.0"/>
      <point x="371.03717128721104" y="970.0" type="qcurve" smooth="yes"/>
      <point x="341.03717128721104" y="970.0"/>
      <point x="317.85596165059036" y="1003.0"/>
    </contour>
  </outline>
</glyph>
<glyph name="copyright" format="2">
  <advance width="799"/>
  <unicode hex="00A9"/>
  <guideline x="24.62729206685468" y="901.0" angle="0.0" identifier="0Pjz0qKr8z"/>
  <guideline x="-23.999836740172753" y="555.0" angle="0.0" identifier="sJo8BlDiJ7"/>
  <outline>
    <contour>
      <point x="426.3136732433985" y="543.0" type="qcurve"/>
      <point x="526.3136732433985" y="543.0" type="line"/>
      <point x="501.2974046663728" y="365.0"/>
      <point x="405.81087111399023" y="205.0"/>
      <point x="324.81087111399023" y="205.0" type="qcurve" smooth="yes"/>
      <point x="244.81087111399023" y="205.0"/>
      <point x="204.87039558321874" y="426.0"/>
      <point x="239.58398175470944" y="673.0" type="qcurve" smooth="yes"/>
      <point x="244.08128846518593" y="705.0" type="line" smooth="yes"/>
      <point x="278.51379296727185" y="950.0"/>
      <point x="380.43277660179797" y="1170.0"/>
      <point x="460.43277660179797" y="1170.0" type="qcurve" smooth="yes"/>
      <point x="540.432776601798" y="1170.0"/>
      <point x="590.0867838841177" y="1011.0"/>
      <point x="565.070515307092" y="833.0" type="qcurve"/>
      <point x="463.070515307092" y="833.0" type="line"/>
      <point x="480.91920131429583" y="960.0"/>
      <point x="473.80031563566604" y="1073.0"/>
      <point x="448.80031563566604" y="1073.0" type="qcurve" smooth="yes"/>
      <point x="420.80031563566604" y="1073.0"/>
      <point x="371.3462103974499" y="899.0"/>
      <point x="344.08128846518593" y="705.0" type="qcurve" smooth="yes"/>
      <point x="339.58398175470944" y="673.0" type="line" smooth="yes"/>
      <point x="312.03797815304074" y="477.0"/>
      <point x="311.4433320801222" y="302.0"/>
      <point x="338.4433320801222" y="302.0" type="qcurve" smooth="yes"/>
      <point x="366.4433320801222" y="302.0"/>
      <point x="408.4649872361948" y="416.0"/>
    </contour>
    <contour>
      <point x="136.5515534405429" y="687.0" type="qcurve" smooth="yes"/>
      <point x="83.70819959244375" y="311.0"/>
      <point x="156.2053974630354" y="-27.0"/>
      <point x="290.2053974630354" y="-27.0" type="qcurve" smooth="yes"/>
      <point x="428.2053974630354" y="-27.0"/>
      <point x="598.7081995924437" y="311.0"/>
      <point x="651.5515534405429" y="687.0" type="qcurve" smooth="yes"/>
      <point x="704.2543664539397" y="1062.0"/>
      <point x="628.6166277486457" y="1399.0"/>
      <point x="490.61662774864567" y="1399.0" type="qcurve" smooth="yes"/>
      <point x="356.6166277486456" y="1399.0"/>
      <point x="189.25436645393972" y="1062.0"/>
    </contour>
    <contour>
      <point x="36.551553440542904" y="687.0" type="qcurve" smooth="yes"/>
      <point x="96.70303069316645" y="1115.0"/>
      <point x="317.6707112188848" y="1499.0"/>
      <point x="503.6707112188848" y="1499.0" type="qcurve" smooth="yes"/>
      <point x="694.6707112188848" y="1499.0"/>
      <point x="811.7030306931665" y="1115.0"/>
      <point x="751.5515534405429" y="687.0" type="qcurve" smooth="yes"/>
      <point x="691.259535353217" y="258.0"/>
      <point x="466.1513139927963" y="-127.0"/>
      <point x="275.1513139927963" y="-127.0" type="qcurve" smooth="yes"/>
      <point x="89.1513139927963" y="-127.0"/>
      <point x="-23.74046464678301" y="258.0"/>
    </contour>
  </outline>
</glyph>
<glyph name="ordfeminine" format="2">
  <advance width="383"/>
  <unicode hex="00AA"/>
  <guideline x="134.24914313472" y="1681.0" angle="0.0" identifier="3CJlALCfkl"/>
  <guideline x="25.751618744473802" y="909.0" angle="0.0" identifier="Zdl6NZVQAy"/>
  <outline>
    <contour>
      <point x="240.1461995134614" y="862.0" type="line"/>
      <point x="234.38402529066337" y="821.0"/>
      <point x="242.4380543409601" y="736.0"/>
      <point x="261.2218292998883" y="706.0" type="qcurve"/>
      <point x="335.2218292998883" y="706.0" type="line"/>
      <point x="327.2650851920912" y="749.0"/>
      <point x="327.773219480604" y="838.0"/>
      <point x="334.6597203810212" y="887.0" type="qcurve" smooth="yes"/>
      <point x="378.7895424775721" y="1201.0" type="line" smooth="yes"/>
      <point x="402.822025211681" y="1372.0"/>
      <point x="370.57881285543215" y="1477.0"/>
      <point x="294.57881285543215" y="1477.0" type="qcurve" smooth="yes"/>
      <point x="224.57881285543215" y="1477.0"/>
      <point x="158.64905606281212" y="1385.0"/>
      <point x="141.2219925597156" y="1261.0" type="qcurve" smooth="yes"/>
      <point x="137.427390022751" y="1234.0" type="line"/>
      <point x="228.427390022751" y="1234.0" type="line"/>
      <point x="230.2544208738821" y="1247.0" type="line" smooth="yes"/>
      <point x="240.93552431126386" y="1323.0"/>
      <point x="262.6490560628121" y="1385.0"/>
      <point x="280.6490560628121" y="1385.0" type="qcurve" smooth="yes"/>
      <point x="300.6490560628121" y="1385.0"/>
      <point x="303.38957512953755" y="1312.0"/>
      <point x="287.9300833122745" y="1202.0" type="qcurve" smooth="yes"/>
    </contour>
    <contour>
      <point x="287.48141907304773" y="1149.0" type="line"/>
      <point x="244.48141907304773" y="1149.0" type="line" smooth="yes"/>
      <point x="169.48141907304773" y="1149.0"/>
      <point x="86.1624680904871" y="1040.0"/>
      <point x="69.01648625679533" y="918.0" type="qcurve" smooth="yes"/>
      <point x="52.292126927210745" y="799.0"/>
      <point x="87.25425761405486" y="692.0"/>
      <point x="142.25425761405486" y="692.0" type="qcurve" smooth="yes"/>
      <point x="175.25425761405484" y="692.0"/>
      <point x="234.70292185328162" y="745.0"/>
      <point x="258.7299635884012" y="795.0" type="qcurve"/>
      <point x="247.73540458739058" y="916.0" type="line"/>
      <point x="239.16241367054465" y="855.0"/>
      <point x="204.18401440667486" y="784.0"/>
      <point x="181.18401440667486" y="784.0" type="qcurve" smooth="yes"/>
      <point x="161.18401440667486" y="784.0"/>
      <point x="152.74079116643748" y="852.0"/>
      <point x="162.57864959560493" y="922.0" type="qcurve" smooth="yes"/>
      <point x="172.41650802477227" y="992.0"/>
      <point x="206.11382561923733" y="1061.0"/>
      <point x="232.97328478453494" y="1060.0" type="qcurve" smooth="yes"/>
      <point x="274.97328478453494" y="1060.0" type="line"/>
    </contour>
  </outline>
</glyph>
<glyph name="guillemotleft" format="2">
  <advance width="453"/>
  <unicode hex="00AB"/>
  <guideline x="24.62729206685468" y="901.0" angle="0.0" identifier="ZftBQarVKw"/>
  <guideline x="-23.999836740172753" y="555.0" angle="0.0" identifier="MVJpdoVRVd"/>
  <outline>
    <contour>
      <point x="0.519070706433979" y="516.0" type="line"/>
      <point x="5.719081590422462" y="553.0" type="line"/>
      <point x="186.59486375268818" y="915.0" type="line"/>
      <point x="274.5948637526882" y="915.0" type="line"/>
      <point x="104.04880573107704" y="534.0" type="line"/>
      <point x="167.5027477094659" y="153.0" type="line"/>
      <point x="79.5027477094659" y="153.0" type="line"/>
    </contour>
    <contour>
      <point x="180.51907070643398" y="516.0" type="line"/>
      <point x="185.71908159042243" y="553.0" type="line"/>
      <point x="366.5948637526882" y="915.0" type="line"/>
      <point x="454.5948637526882" y="915.0" type="line"/>
      <point x="284.04880573107704" y="534.0" type="line"/>
      <point x="347.5027477094659" y="153.0" type="line"/>
      <point x="259.5027477094659" y="153.0" type="line"/>
    </contour>
  </outline>
</glyph>
<glyph name="logicalnot" format="2">
  <advance width="360"/>
  <unicode hex="00AC"/>
  <outline>
    <contour>
      <point x="333.65829270497255" y="741.0" type="line"/>
      <point x="292.22145223848327" y="506.0" type="line"/>
      <point x="193.22145223848327" y="506.0" type="line"/>
      <point x="217.5545755762514" y="644.0" type="line"/>
      <point x="14.554575576251437" y="644.0" type="line"/>
      <point x="31.658292704972553" y="741.0" type="line"/>
    </contour>
  </outline>
</glyph>
<glyph name="registered" format="2">
  <advance width="799"/>
  <unicode hex="00AE"/>
  <outline>
    <contour>
      <point x="35.136635746715456" y="687.0" type="qcurve" smooth="yes"/>
      <point x="110.60458348993845" y="1115.0"/>
      <point x="345.314144081989" y="1499.0"/>
      <point x="531.3141440819891" y="1499.0" type="qcurve" smooth="yes"/>
      <point x="722.3141440819891" y="1499.0"/>
      <point x="825.6045834899385" y="1115.0"/>
      <point x="750.1366357467155" y="687.0" type="qcurve" smooth="yes"/>
      <point x="674.4923610227839" y="258.0"/>
      <point x="435.60647345002496" y="-127.0"/>
      <point x="244.60647345002496" y="-127.0" type="qcurve" smooth="yes"/>
      <point x="58.606473450024936" y="-127.0"/>
      <point x="-40.50763897721603" y="258.0"/>
    </contour>
    <contour>
      <point x="135.13663574671546" y="687.0" type="qcurve" smooth="yes"/>
      <point x="68.8376910003326" y="311.0"/>
      <point x="129.23917152087142" y="-27.0"/>
      <point x="263.2391715208714" y="-27.0" type="qcurve" smooth="yes"/>
      <point x="401.2391715208714" y="-27.0"/>
      <point x="583.8376910003326" y="311.0"/>
      <point x="650.1366357467155" y="687.0" type="qcurve" smooth="yes"/>
      <point x="716.2592535123898" y="1062.0"/>
      <point x="652.6814460111425" y="1399.0"/>
      <point x="514.6814460111425" y="1399.0" type="qcurve" smooth="yes"/>
      <point x="380.6814460111425" y="1399.0"/>
      <point x="201.25925351238982" y="1062.0"/>
    </contour>
    <contour>
      <point x="385.1464010585398" y="619.0" type="line"/>
      <point x="328.1464010585398" y="619.0" type="line"/>
      <point x="258.6735706594046" y="225.0" type="line"/>
      <point x="158.67357065940462" y="225.0" type="line"/>
      <point x="323.1866436604024" y="1158.0" type="line"/>
      <point x="474.1866436604024" y="1158.0" type="line" smooth="yes"/>
      <point x="558.1866436604024" y="1158.0"/>
      <point x="610.616790129719" y="1030.0"/>
      <point x="585.4020318884084" y="887.0" type="qcurve"/>
      <point x="563.5374862805588" y="763.0"/>
      <point x="496.378248595543" y="643.0"/>
      <point x="457.4386518077499" y="632.0" type="qcurve"/>
      <point x="470.2068042707467" y="608.0"/>
      <point x="480.5667822160319" y="559.0"/>
      <point x="481.45329977548647" y="530.0" type="qcurve" smooth="yes"/>
      <point x="479.84745631215696" y="243.0" type="line"/>
      <point x="476.6735706594046" y="225.0" type="line"/>
      <point x="373.6735706594046" y="225.0" type="line"/>
    </contour>
    <contour>
      <point x="457.73027257026445" y="1059.0" type="qcurve" smooth="yes"/>
      <point x="405.73027257026445" y="1059.0" type="line"/>
      <point x="345.2501181872609" y="716.0" type="line"/>
      <point x="395.2501181872609" y="716.0" type="line" smooth="yes"/>
      <point x="427.2501181872609" y="716.0"/>
      <point x="469.00362268252115" y="794.0"/>
      <point x="484.16774302344925" y="880.0" type="qcurve"/>
      <point x="500.74247921004485" y="974.0"/>
      <point x="488.73027257026445" y="1059.0"/>
    </contour>
  </outline>
</glyph>
<glyph name="macron" format="2">
  <advance width="500"/>
  <unicode hex="00AF"/>
  <outline>
    <contour>
      <point x="438.90659955097294" y="1060.0" type="line"/>
      <point x="423.0371712872111" y="970.0" type="line"/>
      <point x="163.03717128721104" y="970.0" type="line"/>
      <point x="178.90659955097289" y="1060.0" type="line"/>
    </contour>
  </outline>
</glyph>
<glyph name="degree" format="2">
  <advance width="389"/>
  <unicode hex="00B0"/>
  <outline>
    <contour>
      <point x="124" y="1297" type="qcurve" smooth="yes"/>
      <point x="124" y="1369"/>
      <point x="216.0" y="1457.0"/>
      <point x="289" y="1457" type="qcurve" smooth="yes"/>
      <point x="362" y="1457"/>
      <point x="450" y="1369"/>
      <point x="450" y="1297" type="qcurve" smooth="yes"/>
      <point x="450.0" y="1225.0"/>
      <point x="362" y="1140"/>
      <point x="289" y="1140" type="qcurve" smooth="yes"/>
      <point x="216.0" y="1140.0"/>
      <point x="124.0" y="1225.0"/>
    </contour>
    <contour>
      <point x="219" y="1297" type="qcurve" smooth="yes"/>
      <point x="219" y="1266"/>
      <point x="257" y="1230"/>
      <point x="289" y="1230" type="qcurve" smooth="yes"/>
      <point x="319" y="1230"/>
      <point x="355" y="1266"/>
      <point x="355" y="1297" type="qcurve" smooth="yes"/>
      <point x="355.0" y="1328.0"/>
      <point x="319" y="1366"/>
      <point x="289" y="1366" type="qcurve" smooth="yes"/>
      <point x="257" y="1366"/>
      <point x="219.0" y="1328.0"/>
    </contour>
  </outline>
</glyph>
<glyph name="plusminus" format="2">
  <advance width="360"/>
  <unicode hex="00B1"/>
  <outline>
    <contour>
      <point x="-3.6193100765009234" y="626.0" type="line"/>
      <point x="13.30808007151171" y="722.0" type="line"/>
      <point x="345.3080800715117" y="722.0" type="line"/>
      <point x="328.38068992349906" y="626.0" type="line"/>
    </contour>
    <contour>
      <point x="85.75775716447697" y="458.0" type="line"/>
      <point x="161.93101283053386" y="890.0" type="line"/>
      <point x="255.93101283053386" y="890.0" type="line"/>
      <point x="179.75775716447697" y="458.0" type="line"/>
    </contour>
    <contour>
      <point x="-113.82367301929153" y="1.0" type="line"/>
      <point x="-96.8962828712789" y="97.0" type="line"/>
      <point x="235.1037171287211" y="97.0" type="line"/>
      <point x="218.17632698070844" y="1.0" type="line"/>
    </contour>
  </outline>
</glyph>
<glyph name="twosuperior" format="2">
  <advance width="372"/>
  <unicode hex="00B2"/>
  <outline>
    <contour>
      <point x="40.60765480459003" y="684.0" type="line"/>
      <point x="56.12442910693497" y="772.0" type="line"/>
      <point x="231.6723106860136" y="1053.0" type="line" smooth="yes"/>
      <point x="269.2519295285215" y="1113.0"/>
      <point x="309.29768477299183" y="1204.0"/>
      <point x="316.7034179627474" y="1246.0" type="qcurve" smooth="yes"/>
      <point x="329.3989605737568" y="1318.0"/>
      <point x="315.6838873390986" y="1382.0"/>
      <point x="288.6838873390986" y="1382.0" type="qcurve" smooth="yes"/>
      <point x="262.6838873390986" y="1382.0"/>
      <point x="225.22507492100448" y="1300.0"/>
      <point x="210.0029926958257" y="1208.0" type="qcurve"/>
      <point x="119.0029926958257" y="1208.0" type="line"/>
      <point x="143.68876999501077" y="1348.0"/>
      <point x="233.90596956427737" y="1474.0"/>
      <point x="309.90596956427737" y="1474.0" type="qcurve" smooth="yes"/>
      <point x="384.90596956427737" y="1474.0"/>
      <point x="434.74429055130554" y="1371.0"/>
      <point x="414.6430147505405" y="1257.0" type="qcurve" smooth="yes"/>
      <point x="404.94503081157495" y="1202.0"/>
      <point x="346.3751772808914" y="1074.0"/>
      <point x="291.2110569399634" y="988.0" type="qcurve" smooth="yes"/>
      <point x="158.35871797189418" y="779.0" type="line"/>
      <point x="348.3587179718942" y="779.0" type="line"/>
      <point x="331.60765480459" y="684.0" type="line"/>
    </contour>
  </outline>
</glyph>
<glyph name="threesuperior" format="2">
  <advance width="385"/>
  <unicode hex="00B3"/>
  <outline>
    <contour>
      <point x="49.69428263761847" y="900.0" type="qcurve"/>
      <point x="150.69428263761847" y="900.0" type="line"/>
      <point x="137.11710512306666" y="823.0"/>
      <point x="152.06890855064023" y="749.0"/>
      <point x="183.06890855064023" y="749.0" type="qcurve" smooth="yes"/>
      <point x="216.06890855064023" y="749.0"/>
      <point x="259.4697590844836" y="825.0"/>
      <point x="273.57591754116083" y="905.0" type="qcurve" smooth="yes"/>
      <point x="286.6241141135872" y="979.0"/>
      <point x="255.2616948403459" y="1045.0"/>
      <point x="208.43802182105435" y="1046.0" type="qcurve" smooth="yes"/>
      <point x="170.43802182105435" y="1046.0" type="line"/>
      <point x="185.95479612339932" y="1134.0" type="line"/>
      <point x="223.95479612339932" y="1134.0" type="line" smooth="yes"/>
      <point x="261.9547961233993" y="1134.0"/>
      <point x="307.0054340237818" y="1191.0"/>
      <point x="318.29036078912355" y="1255.0" type="qcurve" smooth="yes"/>
      <point x="330.4569224580076" y="1324.0"/>
      <point x="319.38919526193246" y="1386.0"/>
      <point x="295.38919526193246" y="1386.0" type="qcurve" smooth="yes"/>
      <point x="267.38919526193246" y="1386.0"/>
      <point x="229.75161453517376" y="1320.0"/>
      <point x="216.70341796274738" y="1246.0" type="qcurve"/>
      <point x="125.70341796274735" y="1246.0" type="line"/>
      <point x="147.21530960918005" y="1368.0"/>
      <point x="235.43495050640274" y="1477.0"/>
      <point x="311.43495050640274" y="1477.0" type="qcurve" smooth="yes"/>
      <point x="386.43495050640274" y="1477.0"/>
      <point x="435.8022524355563" y="1377.0"/>
      <point x="416.0536305962082" y="1265.0" type="qcurve" smooth="yes"/>
      <point x="402.82910704307335" y="1190.0"/>
      <point x="352.01764066356225" y="1106.0"/>
      <point x="308.8437550108099" y="1088.0" type="qcurve"/>
      <point x="354.9645614352237" y="1066.0"/>
      <point x="384.09513317146184" y="976.0"/>
      <point x="370.1653016954931" y="897.0" type="qcurve" smooth="yes"/>
      <point x="347.9481021262265" y="771.0"/>
      <point x="252.02315330616995" y="658.0"/>
      <point x="167.02315330616995" y="658.0" type="qcurve" smooth="yes"/>
      <point x="83.02315330616995" y="658.0"/>
      <point x="27.12442910693497" y="772.0"/>
    </contour>
  </outline>
</glyph>
<glyph name="acute" format="2">
  <advance width="500"/>
  <unicode hex="00B4"/>
  <outline>
    <contour>
      <point x="187" y="1014.0" type="line"/>
      <point x="351" y="1192.0" type="line"/>
      <point x="421" y="1129.0" type="line"/>
      <point x="241" y="970.0" type="line"/>
    </contour>
  </outline>
</glyph>
<glyph name="micro" format="2">
  <advance width="350"/>
  <unicode hex="00B5"/>
  <outline>
    <contour>
      <point x="71" y="914.0" type="line"/>
      <point x="162" y="914.0" type="line"/>
      <point x="27" y="190.0" type="line" smooth="yes"/>
      <point x="16" y="132.0"/>
      <point x="31" y="81.0"/>
      <point x="49" y="81.0" type="qcurve" smooth="yes"/>
      <point x="63" y="81.0"/>
      <point x="98" y="107.0"/>
      <point x="116" y="130.0" type="qcurve"/>
      <point x="262" y="914.0" type="line"/>
      <point x="351" y="914.0" type="line"/>
      <point x="181.0" y="0.0" type="line"/>
      <point x="94.0" y="0.0" type="line"/>
      <point x="103" y="50.0" type="line"/>
      <point x="102" y="50.0" type="line"/>
      <point x="79" y="18.0"/>
      <point x="33" y="-9.0"/>
      <point x="16" y="-9.0" type="qcurve" smooth="yes"/>
      <point x="7" y="-9.0"/>
      <point x="-7" y="-2.0"/>
      <point x="-10" y="6.0" type="qcurve"/>
      <point x="-88" y="-416.0" type="line"/>
      <point x="-178" y="-416.0" type="line"/>
    </contour>
  </outline>
</glyph>
<glyph name="paragraph" format="2">
  <advance width="583"/>
  <unicode hex="00B6"/>
  <guideline x="24.62729206685468" y="901.0" angle="0.0" identifier="27539Lsr1A"/>
  <guideline x="-23.999836740172753" y="555.0" angle="0.0" identifier="e34wUdCmXR"/>
  <outline>
    <contour>
      <point x="212.48103813345085" y="-146.0" type="line"/>
      <point x="114.48103813345085" y="-146.0" type="line"/>
      <point x="253.75700532352073" y="845.0" type="line"/>
      <point x="233.75700532352073" y="845.0" type="line" smooth="yes"/>
      <point x="157.75700532352073" y="845.0"/>
      <point x="82.93002889233207" y="1017.0"/>
      <point x="101.62195990775015" y="1150.0" type="qcurve" smooth="yes"/>
      <point x="120.4544317578706" y="1284.0"/>
      <point x="243.6274553266819" y="1456.0"/>
      <point x="319.6274553266819" y="1456.0" type="qcurve" smooth="yes"/>
      <point x="437.6274553266819" y="1456.0" type="line"/>
    </contour>
    <contour>
      <point x="542.0490778307891" y="1459.0" type="line"/>
      <point x="640.0490778307891" y="1459.0" type="line"/>
      <point x="414.48103813345085" y="-146.0" type="line"/>
      <point x="316.48103813345085" y="-146.0" type="line"/>
    </contour>
  </outline>
</glyph>
<glyph name="periodcentered" format="2">
  <advance width="242"/>
  <unicode hex="00B7"/>
  <outline>
    <contour>
      <point x="48.06890855064026" y="749.0" type="qcurve" smooth="yes"/>
      <point x="54.24035287543654" y="784.0"/>
      <point x="102.5277209687344" y="831.0"/>
      <point x="139.5277209687344" y="831.0" type="qcurve" smooth="yes"/>
      <point x="176.5277209687344" y="831.0"/>
      <point x="208.24035287543654" y="784.0"/>
      <point x="202.06890855064023" y="749.0" type="qcurve" smooth="yes"/>
      <point x="195.72113724513554" y="713.0"/>
      <point x="147.43376915183768" y="666.0"/>
      <point x="110.43376915183768" y="666.0" type="qcurve" smooth="yes"/>
      <point x="73.43376915183768" y="666.0"/>
      <point x="41.897464225843976" y="714.0"/>
    </contour>
  </outline>
</glyph>
<glyph name="cedilla" format="2">
  <advance width="500"/>
  <unicode hex="00B8"/>
  <outline>
    <contour>
      <point x="95.9395967877931" y="11.0" type="line"/>
      <point x="165.9395967877931" y="11.0" type="line"/>
      <point x="132.5387462539498" y="-65.0" type="line"/>
      <point x="171.12813040828206" y="-73.0"/>
      <point x="220.60647345002496" y="-127.0"/>
      <point x="211.96645139531017" y="-176.0" type="qcurve" smooth="yes"/>
      <point x="198.7419278421753" y="-251.0"/>
      <point x="72.93046146266423" y="-335.0"/>
      <point x="-33.069538537335774" y="-335.0" type="qcurve"/>
      <point x="-26.431957810577074" y="-269.0" type="line"/>
      <point x="39.568042189422926" y="-269.0"/>
      <point x="115.15010235988692" y="-226.0"/>
      <point x="122.2031815882255" y="-186.0" type="qcurve" smooth="yes"/>
      <point x="128.02197195160488" y="-153.0"/>
      <point x="88.95912741144187" y="-125.0"/>
      <point x="34.3117813728588" y="-123.0" type="qcurve"/>
    </contour>
  </outline>
</glyph>
<glyph name="onesuperior" format="2">
  <advance width="270"/>
  <unicode hex="00B9"/>
  <outline>
    <contour>
      <point x="123.87605426197777" y="1287.0" type="line"/>
      <point x="137.50851522810973" y="1384.0" type="line"/>
      <point x="285.15719035132497" y="1474.0" type="line"/>
      <point x="329.15719035132497" y="1474.0" type="line"/>
      <point x="218.12993093643576" y="684.0" type="line"/>
      <point x="121.12993093643576" y="684.0" type="line"/>
      <point x="214.16796350941888" y="1346.0" type="line"/>
    </contour>
  </outline>
</glyph>
<glyph name="ordmasculine" format="2">
  <advance width="354"/>
  <unicode hex="00BA"/>
  <guideline x="220.24578689921833" y="1975" angle="0" identifier="Jnt0R9CyOf"/>
  <outline>
    <contour>
      <point x="97.90904087892898" y="1043.0" type="qcurve"/>
      <point x="112.19152631631462" y="1124.0" type="line"/>
      <point x="150.63080811075997" y="1342.0"/>
      <point x="226.43495050640274" y="1477.0"/>
      <point x="309.43495050640274" y="1477.0" type="qcurve" smooth="yes"/>
      <point x="392.43495050640274" y="1477.0"/>
      <point x="420.63080811076" y="1342.0"/>
      <point x="382.1915263163146" y="1124.0" type="qcurve"/>
      <point x="367.909040878929" y="1043.0" type="line"/>
      <point x="329.4697590844836" y="825.0"/>
      <point x="253.84194366954932" y="691.0"/>
      <point x="170.84194366954932" y="691.0" type="qcurve" smooth="yes"/>
      <point x="87.8419436695493" y="691.0"/>
      <point x="59.4697590844836" y="825.0"/>
    </contour>
    <contour>
      <point x="205.1915263163146" y="1124.0" type="qcurve"/>
      <point x="190.90904087892898" y="1043.0" type="line"/>
      <point x="163.40203188840843" y="887.0"/>
      <point x="160.53504495260268" y="780.0"/>
      <point x="186.53504495260268" y="780.0" type="qcurve" smooth="yes"/>
      <point x="213.53504495260268" y="780.0"/>
      <point x="249.40203188840843" y="887.0"/>
      <point x="276.909040878929" y="1043.0" type="qcurve"/>
      <point x="291.1915263163146" y="1124.0" type="line"/>
      <point x="318.6985353068352" y="1280.0"/>
      <point x="320.212868281224" y="1385.0"/>
      <point x="293.212868281224" y="1385.0" type="qcurve" smooth="yes"/>
      <point x="267.212868281224" y="1385.0"/>
      <point x="232.6985353068352" y="1280.0"/>
    </contour>
  </outline>
</glyph>
<glyph name="guillemotright" format="2">
  <advance width="453"/>
  <unicode hex="00BB"/>
  <guideline x="-110.71995589057043" y="98" angle="0" identifier="MTEldNnfdj"/>
  <guideline x="-49.88714754615002" y="443" angle="0" identifier="G9bQni2n1K"/>
  <outline>
    <contour>
      <point x="-76.02197195160485" y="153.0" type="line"/>
      <point x="108.15860769832028" y="534.0" type="line"/>
      <point x="58.339187348245446" y="915.0" type="line"/>
      <point x="146.33918734824545" y="915.0" type="line"/>
      <point x="212.33249335107269" y="552.0" type="line"/>
      <point x="205.8083950648595" y="515.0" type="line"/>
      <point x="11.978028048395146" y="153.0" type="line"/>
    </contour>
    <contour>
      <point x="103.97802804839515" y="153.0" type="line"/>
      <point x="288.1586076983203" y="534.0" type="line"/>
      <point x="238.33918734824545" y="915.0" type="line"/>
      <point x="326.33918734824545" y="915.0" type="line"/>
      <point x="392.3324933510727" y="552.0" type="line"/>
      <point x="385.8083950648595" y="515.0" type="line"/>
      <point x="191.97802804839512" y="153.0" type="line"/>
    </contour>
  </outline>
</glyph>
<glyph name="questiondown" format="2">
  <advance width="340"/>
  <unicode hex="00BF"/>
  <guideline x="-127.43789108113285" y="-181.0" angle="0.0" identifier="apukwP5ffL"/>
  <guideline x="27.43810876090251" y="921.0" angle="0.0" identifier="5ZPZZL8Rim"/>
  <outline>
    <contour>
      <point x="316.65977480096365" y="1072.0" type="qcurve" smooth="yes"/>
      <point x="311.7408455863799" y="1037.0"/>
      <point x="265.1354263553675" y="990.0"/>
      <point x="228.13542635536749" y="990.0" type="qcurve" smooth="yes"/>
      <point x="191.13542635536749" y="990.0"/>
      <point x="157.74084558637992" y="1037.0"/>
      <point x="162.65977480096365" y="1072.0" type="qcurve" smooth="yes"/>
      <point x="167.7192448502497" y="1108.0"/>
      <point x="214.32466408126209" y="1155.0"/>
      <point x="251.32466408126209" y="1155.0" type="qcurve" smooth="yes"/>
      <point x="288.3246640812621" y="1155.0"/>
      <point x="321.5787040155473" y="1107.0"/>
    </contour>
    <contour>
      <point x="225.07029762732242" y="93.0" type="line"/>
      <point x="197.24321235624888" y="-105.0" type="line" smooth="yes"/>
      <point x="179.95668968785475" y="-228.0"/>
      <point x="97.90260621761561" y="-328.0"/>
      <point x="26.902606217615613" y="-328.0" type="qcurve"/>
      <point x="-47.09739378238439" y="-328.0"/>
      <point x="-113.04331031214525" y="-228.0"/>
      <point x="-94.0702976273224" y="-93.0" type="qcurve" smooth="yes"/>
      <point x="-82.40540834702392" y="-10.0"/>
      <point x="-21.437782241248016" y="189.0"/>
      <point x="20.05413789018155" y="285.0" type="qcurve" smooth="yes"/>
      <point x="72.20011972387331" y="407.0"/>
      <point x="132.20017414381573" y="592.0"/>
      <point x="140.913705895364" y="654.0" type="qcurve" smooth="yes"/>
      <point x="161.9948311007227" y="804.0" type="line"/>
      <point x="253.9948311007227" y="804.0" type="line"/>
      <point x="233.19478756476877" y="656.0" type="line" smooth="yes"/>
      <point x="221.1082757803631" y="570.0"/>
      <point x="154.421731343992" y="373.0"/>
      <point x="103.55683117970503" y="253.0" type="qcurve" smooth="yes"/>
      <point x="65.90815605648982" y="163.0"/>
      <point x="13.329724140654562" y="-19.0"/>
      <point x="1.945916529760865" y="-100.0" type="qcurve" smooth="yes"/>
      <point x="-9.437891081132847" y="-181.0"/>
      <point x="7.535067183747572" y="-231.0"/>
      <point x="34.53506718374757" y="-231.0" type="qcurve" smooth="yes"/>
      <point x="55.53506718374757" y="-231.0"/>
      <point x="89.87561890243845" y="-193.0"/>
      <point x="102.52429402565369" y="-103.0" type="qcurve" smooth="yes"/>
      <point x="130.0702976273224" y="93.0" type="line"/>
    </contour>
  </outline>
</glyph>
<glyph name="AE" format="2">
  <advance width="483"/>
  <unicode hex="00C6"/>
  <outline>
    <contour>
      <point x="12.767522476301338" y="390.0" type="line"/>
      <point x="53.51858564360552" y="485.0" type="line"/>
      <point x="232.51858564360555" y="485.0" type="line"/>
      <point x="215.76752247630134" y="390.0" type="line"/>
    </contour>
    <contour>
      <point x="-143.0" y="0.0" type="line"/>
      <point x="294.732083911525" y="1456.0" type="line"/>
      <point x="594.732083911525" y="1456.0" type="line"/>
      <point x="577.8046937635124" y="1360.0" type="line"/>
      <point x="439.80469376351243" y="1360.0" type="line"/>
      <point x="341.9432194703143" y="805.0" type="line"/>
      <point x="452.94321947031426" y="805.0" type="line"/>
      <point x="436.01582932230167" y="709.0" type="line"/>
      <point x="325.01582932230167" y="709.0" type="line"/>
      <point x="216.57473618659571" y="94.0" type="line"/>
      <point x="365.5747361865957" y="94.0" type="line"/>
      <point x="349.0" y="0.0" type="line"/>
      <point x="102.0" y="0.0" type="line"/>
      <point x="339.6887699950108" y="1348.0" type="line"/>
      <point x="-49.0" y="0.0" type="line"/>
    </contour>
  </outline>
</glyph>
<glyph name="multiply" format="2">
  <advance width="360"/>
  <unicode hex="00D7"/>
  <outline>
    <contour>
      <point x="58.042683929818736" y="522.0" type="line"/>
      <point x="6.151283714452006" y="585.0" type="line"/>
      <point x="282.5881241809413" y="820.0" type="line"/>
      <point x="334.47952439630797" y="757.0" type="line"/>
    </contour>
    <contour>
      <point x="230.04268392981874" y="522.0" type="line"/>
      <point x="36.479524396307994" y="757.0" type="line"/>
      <point x="110.58812418094129" y="820.0" type="line"/>
      <point x="304.151283714452" y="585.0" type="line"/>
    </contour>
  </outline>
</glyph>
<glyph name="Thorn" format="2">
  <advance width="351"/>
  <unicode hex="00DE"/>
  <guideline x="30.870609618326938" y="901" angle="0" identifier="i9jYwjBDP4"/>
  <guideline x="-30.138525706801943" y="555" angle="0" identifier="T8KKW8oxop"/>
  <outline>
    <contour>
      <point x="174.73208391152502" y="1456.0" type="line"/>
      <point x="274.732083911525" y="1456.0" type="line"/>
      <point x="223.94991346748708" y="1168.0" type="line"/>
      <point x="234.94991346748708" y="1168.0" type="line" smooth="yes"/>
      <point x="340.9499134674871" y="1168.0"/>
      <point x="388.2086156120073" y="1005.0"/>
      <point x="341.834619685681" y="742.0" type="qcurve" smooth="yes"/>
      <point x="295.4606237593547" y="479.0"/>
      <point x="180.71932590387496" y="316.0"/>
      <point x="103.71932590387493" y="316.0" type="qcurve" smooth="yes"/>
      <point x="73.71932590387493" y="316.0" type="line"/>
      <point x="18.0" y="0.0" type="line"/>
      <point x="-82.0" y="0.0" type="line"/>
    </contour>
    <contour>
      <point x="231.02252331947443" y="1072.0" type="qcurve" smooth="yes"/>
      <point x="207.02252331947443" y="1072.0" type="line"/>
      <point x="90.29406209047065" y="410.0" type="line"/>
      <point x="114.29406209047065" y="410.0" type="line" smooth="yes"/>
      <point x="147.29406209047067" y="410.0"/>
      <point x="198.28185545069016" y="495.0"/>
      <point x="241.65829270497255" y="741.0" type="qcurve" smooth="yes"/>
      <point x="280.27390148012637" y="960.0"/>
      <point x="273.3751772808914" y="1074.0"/>
    </contour>
  </outline>
</glyph>
<glyph name="germandbls" format="2">
  <advance width="497"/>
  <unicode hex="00DF"/>
  <outline>
    <contour>
      <point x="197.54906293364377" y="1092.0" type="qcurve" name="hr00"/>
      <point x="5.0" y="0.0" type="line"/>
      <point x="-86.0" y="0.0" type="line"/>
      <point x="106.54906293364374" y="1092.0" type="line" smooth="yes"/>
      <point x="151.1597890528854" y="1345.0"/>
      <point x="268.48558840678527" y="1534.0"/>
      <point x="381.48558840678527" y="1534.0" type="qcurve" smooth="yes"/>
      <point x="483.48558840678527" y="1534.0"/>
      <point x="535.505119030434" y="1398.0"/>
      <point x="503.23728156078494" y="1215.0" type="qcurve" smooth="yes"/>
      <point x="487.72050725843997" y="1127.0"/>
      <point x="425.15065372775655" y="999.0"/>
      <point x="396.86328563445863" y="952.0" type="qcurve" smooth="yes"/>
      <point x="371.6338794254116" y="911.0"/>
      <point x="337.35139398802596" y="830.0"/>
      <point x="324.3031974155995" y="756.0" type="qcurve"/>
      <point x="314.60521347663393" y="701.0"/>
      <point x="324.8541503093298" y="606.0"/>
      <point x="347.6247441002827" y="565.0" type="qcurve" smooth="yes"/>
      <point x="377.27941412273407" y="512.0"/>
      <point x="412.89077022867116" y="351.0"/>
      <point x="392.7894944279062" y="237.0" type="qcurve" smooth="yes"/>
      <point x="366.5167743023449" y="88.0"/>
      <point x="281.23673019291533" y="-10.0"/>
      <point x="219.23673019291533" y="-10.0" type="qcurve" smooth="yes"/>
      <point x="157.23673019291533" y="-10.0"/>
      <point x="106.40085053384334" y="76.0"/>
      <point x="121.91762483618825" y="164.0" type="qcurve" smooth="yes"/>
      <point x="143.60584346332945" y="287.0" type="line"/>
      <point x="233.60584346332945" y="287.0" type="line"/>
      <point x="214.9151835082322" y="181.0" type="line" smooth="yes"/>
      <point x="203.101275800765" y="114.0"/>
      <point x="220.92983147596874" y="79.0"/>
      <point x="235.92983147596874" y="79.0" type="qcurve" smooth="yes"/>
      <point x="255.92983147596874" y="79.0"/>
      <point x="279.2776027814735" y="115.0"/>
      <point x="299.02622462082155" y="227.0" type="qcurve" smooth="yes"/>
      <point x="313.3087100582072" y="308.0"/>
      <point x="299.5838715117246" y="440.0"/>
      <point x="271.40022054714785" y="490.0" type="qcurve" smooth="yes"/>
      <point x="236.86147429319806" y="555.0"/>
      <point x="217.78398178529852" y="685.0"/>
      <point x="230.30319741559953" y="756.0" type="qcurve"/>
      <point x="245.11466379511057" y="840.0"/>
      <point x="305.45022846083486" y="961.0"/>
      <point x="332.2086156120073" y="1005.0" type="qcurve" smooth="yes"/>
      <point x="357.61434880176284" y="1047.0"/>
      <point x="399.5997008340263" y="1149.0"/>
      <point x="409.29768477299183" y="1204.0" type="qcurve" smooth="yes"/>
      <point x="432.9255001879261" y="1338.0"/>
      <point x="414.4398331623149" y="1443.0"/>
      <point x="365.4398331623149" y="1443.0" type="qcurve" smooth="yes"/>
      <point x="304.4398331623149" y="1443.0"/>
      <point x="232.4618051139198" y="1290.0"/>
    </contour>
  </outline>
</glyph>
<glyph name="ae" format="2">
  <advance width="490"/>
  <unicode hex="00E6"/>
  <outline>
    <contour>
      <point x="23.492361022783967" y="258.0" type="qcurve" smooth="yes"/>
      <point x="1.9804693763512375" y="136.0"/>
      <point x="10.45881241809414" y="82.0"/>
      <point x="34.45881241809414" y="82.0" type="qcurve" smooth="yes"/>
      <point x="57.45881241809414" y="82.0"/>
      <point x="84.80658372359886" y="118.0"/>
      <point x="91.50700899052055" y="156.0" type="qcurve" smooth="yes"/>
      <point x="144.9340841451854" y="459.0" type="line"/>
      <point x="116.93408414518541" y="459.0" type="line" smooth="yes"/>
      <point x="83.93408414518541" y="459.0"/>
      <point x="45.0042526692167" y="380.0"/>
    </contour>
    <contour>
      <point x="-67.74436917013139" y="268.0" type="qcurve" smooth="yes"/>
      <point x="-39.355725276068526" y="429.0"/>
      <point x="61.97983938965575" y="550.0"/>
      <point x="124.97983938965575" y="550.0" type="qcurve" smooth="yes"/>
      <point x="160.97983938965575" y="550.0" type="line"/>
      <point x="199.41912118410107" y="768.0" type="line" smooth="yes"/>
      <point x="204.88525758606352" y="799.0"/>
      <point x="195.35139398802596" y="830.0"/>
      <point x="177.35139398802596" y="830.0" type="qcurve" smooth="yes"/>
      <point x="160.35139398802596" y="830.0"/>
      <point x="140.59056550889738" y="803.0"/>
      <point x="136.18239099118574" y="778.0" type="qcurve" smooth="yes"/>
      <point x="113.43621047979377" y="649.0" type="line"/>
      <point x="21.436210479793772" y="649.0" type="line"/>
      <point x="41.713813261267234" y="764.0" type="line" smooth="yes"/>
      <point x="55.46731775652751" y="842.0"/>
      <point x="137.10245715533011" y="925.0"/>
      <point x="196.10245715533011" y="925.0" type="qcurve" smooth="yes"/>
      <point x="224.10245715533011" y="925.0"/>
      <point x="266.1048984832862" y="908.0"/>
      <point x="277.93101283053386" y="890.0" type="qcurve"/>
      <point x="298.7522445218693" y="906.0"/>
      <point x="334.7498031939132" y="923.0"/>
      <point x="357.7498031939132" y="923.0" type="qcurve" smooth="yes"/>
      <point x="424.7498031939132" y="923.0"/>
      <point x="482.4093558722767" y="836.0"/>
      <point x="469.0109466663895" y="743.0" type="qcurve" smooth="yes"/>
      <point x="419.46306508731084" y="462.0" type="line"/>
      <point x="181.46306508731084" y="462.0" type="line"/>
      <point x="196.27453146682188" y="546.0" type="line"/>
      <point x="340.2745314668219" y="546.0" type="line"/>
      <point x="373.9529847821387" y="737.0" type="line" smooth="yes"/>
      <point x="383.8272957018127" y="793.0"/>
      <point x="361.5277209687344" y="831.0"/>
      <point x="343.5277209687344" y="831.0" type="qcurve" smooth="yes"/>
      <point x="326.5277209687344" y="831.0"/>
      <point x="296.35627664393814" y="796.0"/>
      <point x="286.1293117628471" y="738.0" type="qcurve" smooth="yes"/>
      <point x="186.15191370114752" y="171.0" type="line" smooth="yes"/>
      <point x="177.1592376850158" y="120.0"/>
      <point x="188.28248543738567" y="81.0"/>
      <point x="212.28248543738567" y="81.0" type="qcurve" smooth="yes"/>
      <point x="235.28248543738567" y="81.0"/>
      <point x="271.98046937635127" y="136.0"/>
      <point x="289.2580721578247" y="251.0" type="qcurve"/>
      <point x="378.14214838932315" y="239.0" type="line"/>
      <point x="363.1592376850158" y="120.0"/>
      <point x="269.4130571736238" y="-9.0"/>
      <point x="198.41305717362383" y="-9.0" type="qcurve" smooth="yes"/>
      <point x="167.41305717362383" y="-9.0"/>
      <point x="128.1159237685016" y="12.0"/>
      <point x="112.81879036337935" y="33.0" type="qcurve"/>
      <point x="96.64490471062697" y="15.0"/>
      <point x="47.9420381157492" y="-6.0"/>
      <point x="8.942038115749199" y="-6.0" type="qcurve"/>
      <point x="-67.05796188425079" y="-6.0"/>
      <point x="-93.48810835356727" y="122.0"/>
    </contour>
  </outline>
</glyph>
<glyph name="eth" format="2">
  <advance width="350"/>
  <unicode hex="00F0"/>
  <outline>
    <contour>
      <point x="224.97857941626472" y="1378.0" type="qcurve"/>
      <point x="269.1426997571927" y="1464.0" type="line"/>
      <point x="382.7924871237319" y="1445.0"/>
      <point x="370.2616948403459" y="1045.0"/>
      <point x="278.7479918526526" y="526.0" type="qcurve"/>
      <point x="264.28917943455843" y="444.0" type="line"/>
      <point x="213.68333597122898" y="157.0"/>
      <point x="129.41305717362383" y="-9.0"/>
      <point x="41.41305717362383" y="-9.0" type="qcurve" smooth="yes"/>
      <point x="-41.58694282637619" y="-9.0"/>
      <point x="-68.01953062364876" y="136.0"/>
      <point x="-23.585131485115596" y="388.0" type="qcurve" smooth="yes"/>
      <point x="22.965191421919144" y="652.0"/>
      <point x="104.70648927739896" y="815.0"/>
      <point x="191.706489277399" y="815.0" type="qcurve" smooth="yes"/>
      <point x="259.706489277399" y="815.0"/>
      <point x="281.252559515217" y="699.0"/>
      <point x="247.92676016131713" y="510.0" type="qcurve"/>
      <point x="199.10308714202563" y="511.0" type="line"/>
      <point x="221.6729406727091" y="639.0"/>
      <point x="214.60277214867784" y="718.0"/>
      <point x="180.60277214867784" y="718.0" type="qcurve" smooth="yes"/>
      <point x="147.60277214867784" y="718.0"/>
      <point x="105.38557257941125" y="592.0"/>
      <point x="69.4148685148844" y="388.0" type="qcurve" smooth="yes"/>
      <point x="35.560088218859136" y="196.0"/>
      <point x="33.282485437385674" y="81.0"/>
      <point x="61.282485437385674" y="81.0" type="qcurve" smooth="yes"/>
      <point x="89.28248543738567" y="81.0"/>
      <point x="131.26295481373688" y="217.0"/>
      <point x="171.28917943455843" y="444.0" type="qcurve" smooth="yes"/>
      <point x="186.10064581406948" y="528.0" type="line" smooth="yes"/>
      <point x="269.85596165059036" y="1003.0"/>
      <point x="304.0389826284716" y="1367.0"/>
    </contour>
    <contour>
      <point x="459.5704048985531" y="1353.0" type="line"/>
      <point x="192.8437550108099" y="1088.0" type="line"/>
      <point x="160.3629706411109" y="1159.0" type="line"/>
      <point x="426.9132935481457" y="1423.0" type="line"/>
    </contour>
  </outline>
</glyph>
<glyph name="divide" format="2">
  <advance width="360"/>
  <unicode hex="00F7"/>
  <outline>
    <contour>
      <point x="143.81997171794444" y="844.0" type="qcurve" smooth="yes"/>
      <point x="148.40447321636452" y="870.0"/>
      <point x="184.22326357974384" y="903.0"/>
      <point x="212.22326357974384" y="903.0" type="qcurve" smooth="yes"/>
      <point x="241.22326357974384" y="903.0"/>
      <point x="265.4044732163645" y="870.0"/>
      <point x="260.81997171794444" y="844.0" type="qcurve" smooth="yes"/>
      <point x="256.5881241809413" y="820.0"/>
      <point x="220.76933381756191" y="787.0"/>
      <point x="191.76933381756191" y="787.0" type="qcurve" smooth="yes"/>
      <point x="163.76933381756191" y="787.0"/>
      <point x="139.5881241809413" y="820.0"/>
    </contour>
    <contour>
      <point x="83.5161443156494" y="502.0" type="qcurve" smooth="yes"/>
      <point x="88.10064581406951" y="528.0"/>
      <point x="123.91943617744886" y="561.0"/>
      <point x="151.91943617744886" y="561.0" type="qcurve" smooth="yes"/>
      <point x="180.91943617744886" y="561.0"/>
      <point x="205.10064581406948" y="528.0"/>
      <point x="200.5161443156494" y="502.0" type="qcurve" smooth="yes"/>
      <point x="196.4606237593547" y="479.0"/>
      <point x="160.64183339597537" y="446.0"/>
      <point x="131.64183339597537" y="446.0" type="qcurve" smooth="yes"/>
      <point x="103.64183339597537" y="446.0"/>
      <point x="79.46062375935472" y="479.0"/>
    </contour>
    <contour>
      <point x="-3.6193100765009234" y="626.0" type="line"/>
      <point x="13.30808007151171" y="722.0" type="line"/>
      <point x="345.3080800715117" y="722.0" type="line"/>
      <point x="328.38068992349906" y="626.0" type="line"/>
    </contour>
  </outline>
</glyph>
<glyph name="thorn" format="2">
  <advance width="361"/>
  <unicode hex="00FE"/>
  <outline>
    <contour>
      <point x="-118.46498723619483" y="-416.0" type="line"/>
      <point x="144.6274553266819" y="1456.0" type="line"/>
      <point x="231.6274553266819" y="1456.0" type="line"/>
      <point x="147.02187283584226" y="854.0" type="line"/>
      <point x="157.53539370340206" y="879.0"/>
      <point x="208.71919043030732" y="923.0"/>
      <point x="246.71919043030732" y="923.0" type="qcurve" smooth="yes"/>
      <point x="298.7191904303073" y="923.0"/>
      <point x="341.61646448881834" y="844.0"/>
      <point x="329.24887103500794" y="756.0" type="qcurve" smooth="yes"/>
      <point x="245.90815605648982" y="163.0" type="line" smooth="yes"/>
      <point x="235.08651178440567" y="86.0"/>
      <point x="169.87567332238086" y="-8.0"/>
      <point x="118.87567332238086" y="-8.0" type="qcurve" smooth="yes"/>
      <point x="88.87567332238086" y="-8.0"/>
      <point x="46.38919418994067" y="17.0"/>
      <point x="37.76217422279805" y="41.0" type="qcurve"/>
      <point x="36.76217422279805" y="41.0" type="line"/>
      <point x="-27.46498723619483" y="-416.0" type="line"/>
    </contour>
    <contour>
      <point x="48.848686007203696" y="127.0" type="line"/>
      <point x="50.756787643751096" y="105.0"/>
      <point x="69.80543011500089" y="84.0"/>
      <point x="90.80543011500089" y="84.0" type="qcurve" smooth="yes"/>
      <point x="111.80543011500089" y="84.0"/>
      <point x="148.00544099898937" y="121.0"/>
      <point x="155.17302356881135" y="172.0" type="qcurve" smooth="yes"/>
      <point x="233.87589100215052" y="732.0" type="line" smooth="yes"/>
      <point x="242.72996358840118" y="795.0"/>
      <point x="222.5083519682825" y="829.0"/>
      <point x="198.5083519682825" y="829.0" type="qcurve" smooth="yes"/>
      <point x="181.5083519682825" y="829.0"/>
      <point x="149.1353719354251" y="805.0"/>
      <point x="139.91914689435336" y="775.0" type="qcurve"/>
    </contour>
  </outline>
</glyph>
<glyph name="kgreenlandic" format="2">
  <advance width="328"/>
  <unicode hex="0138"/>
  <outline>
    <contour>
      <point x="165.16286036753695" y="914.0" type="line"/>
      <point x="4.0" y="0.0" type="line"/>
      <point x="-88.0" y="0.0" type="line"/>
      <point x="73.16286036753698" y="914.0" type="line"/>
    </contour>
    <contour>
      <point x="347.16286036753695" y="914.0" type="line"/>
      <point x="158.8810049168468" y="419.0" type="line"/>
      <point x="37.88100491684682" y="419.0" type="line"/>
      <point x="54.27941412273407" y="512.0" type="line"/>
      <point x="107.27941412273407" y="512.0" type="line"/>
      <point x="256.16286036753695" y="914.0" type="line"/>
    </contour>
    <contour>
      <point x="108.0" y="0.0" type="line"/>
      <point x="95.11285245385" y="443.0" type="line"/>
      <point x="177.74066786878427" y="577.0" type="line"/>
      <point x="200.0" y="0.0" type="line"/>
    </contour>
  </outline>
</glyph>
<glyph name="OE" format="2">
  <advance width="500"/>
  <unicode hex="0152"/>
  <outline>
    <contour>
      <point x="323.49535371860964" y="1466.0" type="qcurve" smooth="yes"/>
      <point x="358.49535371860964" y="1466.0"/>
      <point x="401.96637277648426" y="1463.0"/>
      <point x="453.732083911525" y="1456.0" type="qcurve"/>
      <point x="611.732083911525" y="1456.0" type="line"/>
      <point x="594.8046937635124" y="1360.0" type="line"/>
      <point x="456.80469376351243" y="1360.0" type="line"/>
      <point x="358.9432194703143" y="805.0" type="line"/>
      <point x="469.94321947031426" y="805.0" type="line"/>
      <point x="453.01582932230167" y="709.0" type="line"/>
      <point x="342.01582932230167" y="709.0" type="line"/>
      <point x="233.57473618659571" y="94.0" type="line"/>
      <point x="382.5747361865957" y="94.0" type="line"/>
      <point x="366.0" y="0.0" type="line"/>
      <point x="197.0" y="0.0" type="line"/>
      <point x="135.76571113504076" y="-7.0"/>
      <point x="91.23673019291536" y="-10.0"/>
      <point x="63.23673019291536" y="-10.0" type="qcurve" smooth="yes"/>
      <point x="-36.763269807084654" y="-10.0"/>
      <point x="-46.679083302012316" y="223.0"/>
      <point x="34.25500084317309" y="682.0" type="qcurve" smooth="yes"/>
      <point x="50.12442910693497" y="772.0" type="line" smooth="yes"/>
      <point x="131.41116721353728" y="1233.0"/>
      <point x="223.49535371860964" y="1466.0"/>
    </contour>
    <contour>
      <point x="134.2550008431731" y="682.0" type="line" smooth="yes"/>
      <point x="64.42951648262098" y="286.0"/>
      <point x="45.811466379511046" y="84.0"/>
      <point x="80.81146637951105" y="84.0" type="qcurve" smooth="yes"/>
      <point x="94.81146637951105" y="84.0"/>
      <point x="113.16412034092798" y="86.0"/>
      <point x="134.6931012830534" y="89.0" type="qcurve"/>
      <point x="359.6863286670547" y="1365.0" type="line"/>
      <point x="335.21530960918005" y="1368.0"/>
      <point x="316.56796357059704" y="1370.0"/>
      <point x="306.56796357059704" y="1370.0" type="qcurve" smooth="yes"/>
      <point x="272.56796357059704" y="1370.0"/>
      <point x="219.24460554465327" y="1164.0"/>
      <point x="150.47708306835193" y="774.0" type="qcurve" smooth="yes"/>
    </contour>
  </outline>
</glyph>
<glyph name="oe" format="2">
  <advance width="520"/>
  <unicode hex="0153"/>
  <outline>
    <contour>
      <point x="131.65829270497255" y="741.0" type="qcurve" smooth="yes"/>
      <point x="30.270278797605187" y="166.0" type="line" smooth="yes"/>
      <point x="19.866986935805755" y="107.0"/>
      <point x="40.282485437385674" y="81.0"/>
      <point x="61.282485437385674" y="81.0" type="qcurve" smooth="yes"/>
      <point x="82.28248543738567" y="81.0"/>
      <point x="111.86698693580576" y="107.0"/>
      <point x="122.27027879760519" y="166.0" type="qcurve" smooth="yes"/>
      <point x="223.65829270497255" y="741.0" type="line" smooth="yes"/>
      <point x="234.59056550889738" y="803.0"/>
      <point x="216.5277209687344" y="831.0"/>
      <point x="193.5277209687344" y="831.0" type="qcurve" smooth="yes"/>
      <point x="170.5277209687344" y="831.0"/>
      <point x="142.59056550889738" y="803.0"/>
    </contour>
    <contour>
      <point x="299.69672396557456" y="883.0" type="qcurve"/>
      <point x="322.0469365990354" y="902.0"/>
      <point x="362.7498031939132" y="923.0"/>
      <point x="387.7498031939132" y="923.0" type="qcurve" smooth="yes"/>
      <point x="454.7498031939132" y="923.0"/>
      <point x="512.4093558722767" y="836.0"/>
      <point x="499.0109466663895" y="743.0" type="qcurve" smooth="yes"/>
      <point x="449.46306508731084" y="462.0" type="line"/>
      <point x="211.46306508731084" y="462.0" type="line"/>
      <point x="226.27453146682188" y="546.0" type="line"/>
      <point x="372.2745314668219" y="546.0" type="line"/>
      <point x="405.9529847821386" y="737.0" type="line" smooth="yes"/>
      <point x="416.00362268252115" y="794.0"/>
      <point x="398.52772096873446" y="831.0"/>
      <point x="375.5277209687344" y="831.0" type="qcurve" smooth="yes"/>
      <point x="356.5277209687344" y="831.0"/>
      <point x="326.35627664393814" y="796.0"/>
      <point x="316.1293117628471" y="738.0" type="qcurve" smooth="yes"/>
      <point x="216.15191370114752" y="171.0" type="line" smooth="yes"/>
      <point x="207.1592376850158" y="120.0"/>
      <point x="218.28248543738567" y="81.0"/>
      <point x="242.28248543738567" y="81.0" type="qcurve" smooth="yes"/>
      <point x="265.2824854373857" y="81.0"/>
      <point x="301.98046937635127" y="136.0"/>
      <point x="319.2580721578247" y="251.0" type="qcurve"/>
      <point x="408.1421483893231" y="239.0" type="line"/>
      <point x="392.1592376850158" y="120.0"/>
      <point x="299.4130571736238" y="-9.0"/>
      <point x="228.41305717362383" y="-9.0" type="qcurve" smooth="yes"/>
      <point x="199.41305717362383" y="-9.0"/>
      <point x="162.58694282637617" y="9.0"/>
      <point x="146.93715545983702" y="28.0" type="qcurve"/>
      <point x="125.76326980708464" y="10.0"/>
      <point x="74.41305717362383" y="-9.0"/>
      <point x="44.41305717362383" y="-9.0" type="qcurve" smooth="yes"/>
      <point x="-20.586942826376188" y="-9.0"/>
      <point x="-77.71751456261434" y="81.0"/>
      <point x="-62.90604818310328" y="165.0" type="qcurve" smooth="yes"/>
      <point x="39.716254589223325" y="747.0" type="line" smooth="yes"/>
      <point x="54.70404794944287" y="832.0"/>
      <point x="143.74980319391318" y="923.0"/>
      <point x="208.74980319391318" y="923.0" type="qcurve" smooth="yes"/>
      <point x="239.74980319391318" y="923.0"/>
      <point x="286.22326357974384" y="903.0"/>
    </contour>
  </outline>
</glyph>
<glyph name="Schwa" format="2">
  <advance width="389"/>
  <unicode hex="018F"/>
  <outline>
    <contour>
      <point x="98.59481817811405" y="1183.0" type="line"/>
      <point x="154.45448113005153" y="1341.0"/>
      <point x="252.2610648536504" y="1459.0"/>
      <point x="325.2610648536504" y="1459.0" type="qcurve" smooth="yes"/>
      <point x="427.2610648536504" y="1459.0"/>
      <point x="436.5874941942458" y="1234.0"/>
      <point x="358.1219877789789" y="789.0" type="qcurve" smooth="yes"/>
      <point x="255.6760119873607" y="208.0"/>
      <point x="166.71019057874605" y="-30.0"/>
      <point x="52.71019057874605" y="-30.0" type="qcurve" smooth="yes"/>
      <point x="-37.28980942125395" y="-30.0"/>
      <point x="-60.079933835855655" y="147.0"/>
      <point x="15.916994849492767" y="578.0" type="qcurve" smooth="yes"/>
      <point x="34.96030876600696" y="686.0" type="line"/>
      <point x="280.96030876600696" y="686.0" type="line"/>
      <point x="261.2116869266589" y="574.0" type="line"/>
      <point x="171.62230277232663" y="582.0" type="line"/>
      <point x="115.56434088807583" y="576.0" type="line"/>
      <point x="98.81327772077165" y="481.0" type="line" smooth="yes"/>
      <point x="46.973145392482934" y="187.0"/>
      <point x="40.813907707467166" y="67.0"/>
      <point x="77.81390770746717" y="67.0" type="qcurve" smooth="yes"/>
      <point x="118.81390770746717" y="67.0"/>
      <point x="168.72664988774324" y="265.0"/>
      <point x="251.06890855064023" y="749.0" type="qcurve" smooth="yes"/>
      <point x="319.83398969898553" y="1156.0"/>
      <point x="339.1573477249293" y="1362.0"/>
      <point x="301.1573477249293" y="1362.0" type="qcurve" smooth="yes"/>
      <point x="274.1573477249293" y="1362.0"/>
      <point x="226.22751624896057" y="1283.0"/>
      <point x="167.54418027773158" y="1126.0" type="qcurve"/>
    </contour>
  </outline>
</glyph>
<glyph name="florin" format="2">
  <advance width="207"/>
  <unicode hex="0192"/>
  <outline>
    <contour>
      <point x="241.81753038998835" y="861.0" type="line"/>
      <point x="224.53748628055877" y="763.0" type="line"/>
      <point x="149.53748628055877" y="763.0" type="line"/>
      <point x="34.57229485863962" y="111.0" type="line" smooth="yes"/>
      <point x="-25.20255160153002" y="-228.0"/>
      <point x="-113.0548905695992" y="-437.0"/>
      <point x="-195.0548905695992" y="-437.0" type="qcurve" smooth="yes"/>
      <point x="-210.0548905695992" y="-437.0"/>
      <point x="-235.1732556660569" y="-432.0"/>
      <point x="-249.29162076251453" y="-427.0" type="qcurve"/>
      <point x="-214.71688457591884" y="-333.0" type="line"/>
      <point x="-203.42219249875268" y="-337.0"/>
      <point x="-188.9511734408781" y="-340.0"/>
      <point x="-181.9511734408781" y="-340.0" type="qcurve" smooth="yes"/>
      <point x="-151.9511734408781" y="-340.0"/>
      <point x="-108.2098755853983" y="-177.0"/>
      <point x="-57.42770514136039" y="111.0" type="qcurve" smooth="yes"/>
      <point x="57.53748628055877" y="763.0" type="line"/>
      <point x="11.537486280558767" y="763.0" type="line"/>
      <point x="28.81753038998835" y="861.0" type="line"/>
      <point x="74.81753038998835" y="861.0" type="line"/>
      <point x="120.83887235489769" y="1122.0" type="line" smooth="yes"/>
      <point x="156.63324943871612" y="1325.0"/>
      <point x="241.2586235256943" y="1476.0"/>
      <point x="319.2586235256943" y="1476.0" type="qcurve" smooth="yes"/>
      <point x="353.2586235256943" y="1476.0"/>
      <point x="403.1451410851488" y="1447.0"/>
      <point x="415.5606395867287" y="1421.0" type="qcurve"/>
      <point x="353.27571282138695" y="1357.0" type="line"/>
      <point x="345.21530960918005" y="1368.0"/>
      <point x="320.33123337768166" y="1380.0"/>
      <point x="306.33123337768166" y="1380.0" type="qcurve" smooth="yes"/>
      <point x="279.33123337768166" y="1380.0"/>
      <point x="238.93526549975053" y="1270.0"/>
      <point x="212.83887235489772" y="1122.0" type="qcurve" smooth="yes"/>
      <point x="166.81753038998835" y="861.0" type="line"/>
    </contour>
  </outline>
</glyph>
<glyph name="schwa" format="2">
  <advance width="344"/>
  <unicode hex="0259"/>
  <outline>
    <contour>
      <point x="311.71625458922335" y="747.0" type="qcurve" smooth="yes"/>
      <point x="210.15191370114752" y="171.0" type="line" smooth="yes"/>
      <point x="195.6931012830534" y="89.0"/>
      <point x="93.41305717362383" y="-9.0"/>
      <point x="37.41305717362383" y="-9.0" type="qcurve" smooth="yes"/>
      <point x="-29.586942826376188" y="-9.0"/>
      <point x="-90.24649550473973" y="78.0"/>
      <point x="-73.8480862988525" y="171.0" type="qcurve" smooth="yes"/>
      <point x="-24.30020471977383" y="452.0" type="line"/>
      <point x="223.69979528022617" y="452.0" type="line"/>
      <point x="208.88832890071512" y="368.0" type="line"/>
      <point x="54.88832890071512" y="368.0" type="line"/>
      <point x="21.209875585398294" y="177.0" type="line" smooth="yes"/>
      <point x="11.335564665724263" y="121.0"/>
      <point x="33.63513939880261" y="83.0"/>
      <point x="51.63513939880261" y="83.0" type="qcurve" smooth="yes"/>
      <point x="68.63513939880261" y="83.0"/>
      <point x="108.80658372359886" y="118.0"/>
      <point x="119.03354860468983" y="176.0" type="qcurve" smooth="yes"/>
      <point x="219.0109466663895" y="743.0" type="line" smooth="yes"/>
      <point x="228.00362268252115" y="794.0"/>
      <point x="206.88037493015133" y="833.0"/>
      <point x="182.88037493015133" y="833.0" type="qcurve" smooth="yes"/>
      <point x="159.88037493015133" y="833.0"/>
      <point x="123.18239099118574" y="778.0"/>
      <point x="105.90478820971228" y="663.0" type="qcurve"/>
      <point x="17.020711978213853" y="675.0" type="line"/>
      <point x="32.70893060535505" y="798.0"/>
      <point x="136.74980319391318" y="923.0"/>
      <point x="196.74980319391318" y="923.0" type="qcurve" smooth="yes"/>
      <point x="259.7498031939132" y="923.0"/>
      <point x="327.23302889156827" y="835.0"/>
    </contour>
  </outline>
</glyph>
<glyph name="primemod" format="2">
  <advance width="301"/>
  <unicode hex="02B9"/>
  <outline>
    <contour>
      <point x="257.3165854099451" y="1482.0" type="line"/>
      <point x="376.3165854099451" y="1482.0" type="line"/>
      <point x="190.7400378820888" y="991.0" type="line"/>
      <point x="119.62167278563112" y="996.0" type="line"/>
    </contour>
  </outline>
</glyph>
<glyph name="doubleprimemod" format="2">
  <advance width="491"/>
  <unicode hex="02BA"/>
  <outline>
    <contour>
      <point x="257.3165854099451" y="1482.0" type="line"/>
      <point x="376.3165854099451" y="1482.0" type="line"/>
      <point x="190.7400378820888" y="991.0" type="line"/>
      <point x="119.62167278563112" y="996.0" type="line"/>
    </contour>
    <contour>
      <point x="447.3165854099451" y="1482.0" type="line"/>
      <point x="566.3165854099451" y="1482.0" type="line"/>
      <point x="380.7400378820888" y="991.0" type="line"/>
      <point x="309.6216727856311" y="996.0" type="line"/>
    </contour>
  </outline>
</glyph>
<glyph name="commaaccentturned" format="2">
  <advance width="500"/>
  <unicode hex="02BB"/>
  <outline>
    <contour>
      <point x="359.0" y="1222.0" type="line"/>
      <point x="319.0" y="1118.0"/>
      <point x="295.0" y="1052.0"/>
      <point x="263.0" y="955.0" type="qcurve"/>
      <point x="160.0" y="955.0" type="line"/>
      <point x="274.0" y="1222.0" type="line"/>
    </contour>
  </outline>
</glyph>
